<?xml version="1.0" encoding="utf-8"?>
<!-- Generator: Adobe Illustrator 19.0.0, SVG Export Plug-In . SVG Version: 6.00 Build 0)  -->
<svg version="1.1" id="图层_1" xmlns="http://www.w3.org/2000/svg" xmlns:xlink="http://www.w3.org/1999/xlink" x="0px" y="0px"
	 viewBox="-712.5 6612.3 710 710" style="enable-background:new -712.5 6612.3 710 710;" xml:space="preserve">
<style type="text/css">
	.st0{fill:#0DD8E2;}
</style>
<path class="st0" d="M-357.5,7322.3c-47.9,0-94.4-9.4-138.2-27.9c-42.3-17.9-80.2-43.5-112.8-76.1c-32.6-32.6-58.2-70.6-76.1-112.8
	c-18.5-43.8-27.9-90.3-27.9-138.2c0-47.9,9.4-94.4,27.9-138.2c17.9-42.3,43.5-80.2,76.1-112.8c32.6-32.6,70.6-58.2,112.8-76.1
	c43.8-18.5,90.3-27.9,138.2-27.9c47.9,0,94.4,9.4,138.2,27.9c42.3,17.9,80.2,43.5,112.8,76.1c32.6,32.6,58.2,70.6,76.1,112.8
	c18.5,43.8,27.9,90.3,27.9,138.2c0,47.9-9.4,94.4-27.9,138.2c-17.9,42.3-43.5,80.2-76.1,112.8c-32.6,32.6-70.6,58.2-112.8,76.1
	C-263.1,7312.9-309.6,7322.3-357.5,7322.3z M-357.5,6618.3c-93.2,0-180.9,36.3-246.8,102.2c-65.9,65.9-102.2,153.6-102.2,246.8
	c0,93.2,36.3,180.9,102.2,246.8c65.9,65.9,153.6,102.2,246.8,102.2c93.2,0,180.9-36.3,246.8-102.2
	c65.9-65.9,102.2-153.6,102.2-246.8c0-93.2-36.3-180.9-102.2-246.8S-264.3,6618.3-357.5,6618.3z"/>
<path class="st0" d="M-348.6,7031.4c-34.7,0-62.9-27.5-62.9-61.2v-152.6c0-33.7,28.2-61.2,62.9-61.2c34.7,0,62.9,27.4,62.9,61.2
	v152.6C-285.7,7003.9-313.9,7031.4-348.6,7031.4z M-348.6,6762.3c-31.4,0-56.9,24.8-56.9,55.2v152.6c0,30.5,25.5,55.2,56.9,55.2
	c31.4,0,56.9-24.8,56.9-55.2v-152.6C-291.7,6787.1-317.2,6762.3-348.6,6762.3z"/>
<path class="st0" d="M-244.5,6912.1c4.5,0,8.1,3.6,8.1,8.1v41.4c0,61-31.2,104.6-83.6,116.6l-4.7,1.1v4.8v33v6h6h43.8
	c4.6,0,8.4,3.8,8.4,8.4s-3.8,8.4-8.4,8.4h-149.1c-4.6,0-8.4-3.8-8.4-8.4s3.8-8.4,8.4-8.4h43.9h6v-6v-33v-4.8l-4.7-1.1
	c-52.3-12-83.5-55.6-83.5-116.6v-41.4c0-4.5,3.6-8.1,8.1-8.1c4.7,0,9.1,3.9,9.1,8.1v41.4c0,31,8.8,57,25.5,75.4
	c17,18.7,41.5,28.7,70.7,28.7c58.8,0,95.3-39.9,95.3-104v-41.4C-253.6,6916-249.3,6912.1-244.5,6912.1 M-244.5,6906.1
	c-7.8,0-15.1,6.3-15.1,14.1v41.4c0,59.6-32.7,98-89.3,98c-56.5,0-90.2-38.5-90.2-98v-41.4c0-7.8-7.3-14.1-15.1-14.1
	c-7.8,0-14.1,6.3-14.1,14.1v41.4c0,64,33.3,109.8,88.2,122.4v33h-43.9c-7.9,0-14.4,6.4-14.4,14.4c0,7.9,6.4,14.4,14.4,14.4h149.1
	c7.9,0,14.4-6.4,14.4-14.4c0-7.9-6.4-14.4-14.4-14.4h-43.8v-33c54.9-12.6,88.2-58.4,88.2-122.4v-41.4
	C-230.4,6912.4-236.8,6906.1-244.5,6906.1L-244.5,6906.1z"/>
</svg>
