<?xml version="1.0" encoding="utf-8"?>
<!-- Generator: Adobe Illustrator 19.0.0, SVG Export Plug-In . SVG Version: 6.00 Build 0)  -->
<svg version="1.1" id="图层_1" xmlns="http://www.w3.org/2000/svg" xmlns:xlink="http://www.w3.org/1999/xlink" x="0px" y="0px"
	 viewBox="-7242.3 -2059.6 716.1 716.1" style="enable-background:new -7242.3 -2059.6 716.1 716.1;" xml:space="preserve">
<style type="text/css">
	.st0{fill:#007FFC;}
	.st1{clip-path:url(#SVGID_2_);fill:#007FFC;}
</style>
<path class="st0" d="M-6884.2-1343.5c-48.3,0-95.2-9.5-139.4-28.1c-42.6-18-80.9-43.8-113.8-76.7s-58.7-71.2-76.7-113.8
	c-18.7-44.1-28.1-91-28.1-139.4c0-48.3,9.5-95.2,28.1-139.4c18-42.6,43.8-80.9,76.7-113.8s71.2-58.7,113.8-76.7
	c44.1-18.7,91-28.1,139.4-28.1c48.3,0,95.2,9.5,139.4,28.1c42.6,18,80.9,43.8,113.8,76.7c32.9,32.9,58.7,71.2,76.7,113.8
	c18.7,44.1,28.1,91,28.1,139.4c0,48.3-9.5,95.2-28.1,139.4c-18,42.6-43.8,80.9-76.7,113.8s-71.2,58.7-113.8,76.7
	C-6789-1353-6835.9-1343.5-6884.2-1343.5z M-6884.2-2053.6c-94,0-182.4,36.6-248.9,103.1c-66.5,66.5-103.1,154.9-103.1,248.9
	c0,94,36.6,182.4,103.1,248.9c66.5,66.5,154.9,103.1,248.9,103.1c94,0,182.4-36.6,248.9-103.1c66.5-66.5,103.1-154.9,103.1-248.9
	c0-94-36.6-182.4-103.1-248.9S-6790.2-2053.6-6884.2-2053.6z"/>
<path class="st0" d="M-6719.9-1518.7c-1.1,0-2.2-0.1-3.3-0.2c-8.1-1-15.6-4.2-24.2-7.9c-13.6-5.8-30.5-13-57.1-14.1l-5.5-0.2
	l3.1-4.5c3.4-4.9,5.7-10.9,7.7-20.2l0.1-0.4c11.2-51.7,11.9-107.1,12.1-125.3l0.1-4.7l4.2,2.1c23.2,11.3,46.7,38.7,64.3,75.2
	c16.2,33.5,23.2,66.7,17.9,84.7C-6703.4-1524.2-6710.2-1518.7-6719.9-1518.7z M-6799.3-1546.7c24.8,1.8,41,8.7,54.2,14.3
	c8.2,3.5,15.3,6.6,22.6,7.4c8.5,1,13.8-2.6,16.3-11.1c4.8-16.4-2.3-48.7-17.6-80.4c-15.7-32.6-36.9-58.3-57.3-70.1
	c-0.8,47.2-4.9,88-12.2,121.6l-0.1,0.4C-6794.5-1558.9-6796.2-1552.6-6799.3-1546.7z"/>
<path class="st0" d="M-7048.4-1518.9c-9.8,0-16.7-5.5-19.7-15.9c-5.2-18.1,2-51.4,18.4-84.8c17.9-36.5,41.6-63.7,65-74.8l4.2-2
	l0.1,4.7c0.9,73.5,9.2,113.2,12,126.2l0.1,0.6c1.7,8.2,3.4,14.2,6.4,19.4l2.5,4.3l-5,0.2c-26,1.3-42.8,8.4-56.2,14.1
	c-8.7,3.7-16.3,6.9-24.4,7.9C-7046.2-1519-7047.3-1518.9-7048.4-1518.9z M-6986.4-1686.8c-20.6,11.7-42,37.4-58,69.9
	c-15.5,31.6-22.7,64-18,80.5c2.5,8.7,7.9,12.4,16.6,11.4c7.3-0.9,14.5-3.9,22.8-7.4c13.1-5.5,29.2-12.4,53.7-14.3
	c-2.4-5.4-3.8-11.3-4.9-16.9l-0.1-0.6C-6977.1-1577.1-6985.2-1615.8-6986.4-1686.8z"/>
<path class="st0" d="M-6883.7-1735.3c-29.2,0-52.9-23.7-52.9-52.9c0-29.2,23.7-52.9,52.9-52.9s52.9,23.7,52.9,52.9
	C-6830.8-1759-6854.5-1735.3-6883.7-1735.3z M-6883.7-1835.1c-25.9,0-46.9,21.1-46.9,46.9c0,25.9,21.1,46.9,46.9,46.9
	s46.9-21.1,46.9-46.9C-6836.8-1814.1-6857.8-1835.1-6883.7-1835.1z"/>
<path class="st0" d="M-6883.7-1751.9c-20,0-36.3-16.3-36.3-36.3c0-20,16.3-36.3,36.3-36.3c20,0,36.3,16.3,36.3,36.3
	C-6847.4-1768.2-6863.7-1751.9-6883.7-1751.9z M-6883.7-1818.5c-16.7,0-30.3,13.6-30.3,30.3c0,16.7,13.6,30.3,30.3,30.3
	c16.7,0,30.3-13.6,30.3-30.3C-6853.4-1804.9-6867-1818.5-6883.7-1818.5z"/>
<path class="st0" d="M-6884.1-1502.3c-8.3,0-15.7-12.9-21.8-38.2c-5.4-22.3-8.6-50.6-8.6-75.7c0-24.5,3-45.1,8.7-59.5
	c5.4-13.7,13.1-21.2,21.7-21.2c15.5,0,31.1,24.9,31.1,80.7C-6853-1570.9-6865.4-1502.3-6884.1-1502.3z M-6884.1-1690.9
	c-9.8,0-24.4,19.9-24.4,74.7c0,24.6,3.2,52.4,8.4,74.3c2.6,10.6,5.5,19.3,8.5,25.3c3.9,7.8,6.7,8.4,7.4,8.4c2.7,0,9.7-7,16.3-33.7
	c5.5-22,8.8-49.8,8.8-74.3c0-29.9-4.7-47.6-8.6-57.2C-6872.2-1684.5-6878.2-1690.9-6884.1-1690.9z"/>
<path class="st0" d="M-6892.7-1518.9l-4.5-0.1c-63.5-1.6-71.5-17.9-77.1-44.7l-0.1-0.6c-8.1-38.6-12.2-85.9-12.2-140.7
	c0-73,23.7-134.7,43.6-173.7c10.2-19.9,21.9-38.6,33-52.8c6-7.6,16.9-20.3,23.2-20.6l0.1,0c2-0.1,5.7,0.8,13.9,8.8
	c29.9,29.2,91.8,125.8,91.8,238.2c0,55-4.2,102.1-12.3,140l-0.1,0.4c-3,13.7-7.3,24.4-18.6,32.2c-11.6,8-30.3,12.2-58.8,13.2
	l-4.6,0.2l1.7-4.3c8.6-21.8,14.6-60,14.6-92.9c0-48.5-12.9-74.7-25.1-74.7c-9.8,0-24.4,19.9-24.4,74.7c0,33.3,5.8,71.6,14.1,93.1
	L-6892.7-1518.9z M-6886.4-1946.1c-5,0.6-28.2,25.1-51.3,70.4c-19.6,38.3-42.9,99-42.9,170.7c0,54.4,4.1,101.3,12.1,139.5l0.1,0.6
	c5,23.9,10.7,37.7,66.9,39.7c-7.8-22.9-13-58.6-13-91c0-24.5,3-45.1,8.7-59.5c5.4-13.7,13.1-21.2,21.7-21.2
	c15.5,0,31.1,24.9,31.1,80.7c0,31.6-5.4,68-13.4,90.8c54.9-2.8,62.3-17.9,67.2-40.5l0.1-0.4c8.1-37.5,12.2-84.1,12.2-138.7
	c0-71.3-24.7-132.1-45.4-170.6c-10.5-19.6-22.7-38-34.2-51.9C-6878.7-1942.3-6885-1945.9-6886.4-1946.1z"/>
<g>
	<defs>
		<path id="SVGID_1_" d="M-6884.2-2056.6c196.1,0,355,159,355,355c0,196.1-159,355-355,355c-196.1,0-355-158.9-355-355
			C-7239.3-1897.6-7080.3-2056.6-6884.2-2056.6z"/>
	</defs>
	<clipPath id="SVGID_2_">
		<use xlink:href="#SVGID_1_"  style="overflow:visible;"/>
	</clipPath>
	<path class="st1" d="M-6637.3-1343.5h-67.3l0.4-5.9c-0.1-36.5-41-66.2-91.3-66.2c-33.6,0-62.1,10.3-78.3,28.3l-10.5,11.7
		l-10.5-11.7c-16.1-18-44.7-28.3-78.3-28.3c-50.3,0-91.2,29.7-91.3,66.2l0.4,5.9h-66.6l-0.8-1.8c-6.1-14.4-10.5-29-13.3-43.4
		c-16-10.1-29.4-24.2-38.7-40.7c-9.5-17-14.6-36.2-14.6-55.7c0-3.2,0.2-6.5,0.5-9.8c-35.8-7.7-61.5-39.3-61.5-76.1
		c0-42.9,34.9-77.9,77.9-77.9c16.9,0,33,5.4,46.5,15.5c12.6,9.4,22,22.2,27,37c16.2-3.5,32.7-3.3,49.1,0.4l4.6,1.1l-1.1,3.2
		c-10.2,28.9-11.8,52.8-4.1,62.4c3,3.7,7.3,5.2,13.3,4.5c7.3-0.9,14.5-3.9,22.8-7.4c13.9-5.9,31.2-13.2,58.3-14.5l1.8-0.1l0.9,1.6
		c4.7,7.9,13.7,16.4,45.5,19.4l5.2,0.5l-3.1,4.3c-3.5,4.8-5.2,10.2-5.2,16.1c0,20.2,19,58,35.8,58c16.9,0,35.8-37.9,35.8-58
		c0-6-1.9-11.6-5.8-16.5l-3.3-4.2l5.3-0.6c23.6-2.7,37.4-8.5,44.7-19.1l0.9-1.4l1.6,0.1c27.7,1.1,45.2,8.6,59.2,14.6
		c8.2,3.5,15.3,6.6,22.6,7.4c5.8,0.7,10.1-0.8,13-4.4c7.7-9.6,6.1-33.5-4-62.6l-1.1-3.1l3.2-0.8c16.8-4.1,33.7-4.4,50.4-0.8
		c5.1-14.8,14.4-27.5,27-37c13.6-10.1,29.6-15.5,46.5-15.5c42.9,0,77.9,34.9,77.9,77.9c0,36.9-25.7,68.4-61.5,76.1
		c0.3,3.3,0.5,6.6,0.5,9.8c0,19.5-5,38.7-14.5,55.7c-9.3,16.5-22.6,30.6-38.6,40.7c-2.7,14.4-7,29-12.7,43.4L-6637.3-1343.5z
		 M-6698.2-1349.5h56.8c5.4-13.9,9.4-27.9,11.9-41.7l0.2-1.3l1.1-0.7c15.7-9.6,28.7-23.2,37.7-39.2c9-16.1,13.8-34.3,13.8-52.8
		c0-3.9-0.2-7.9-0.7-11.9l-0.3-2.8l2.8-0.5c34.3-6.1,59.3-35.9,59.3-70.8c0-39.6-32.2-71.9-71.9-71.9c-31.3,0-59.6,20.9-68.7,50.8
		l-0.8,2.7l-2.7-0.7c-15.5-3.7-31.3-3.9-47-0.5c10,30,10.8,54.2,2,65.2c-4.2,5.3-10.6,7.6-18.4,6.6c-8.1-1-15.6-4.2-24.2-7.9
		c-13.3-5.7-29.8-12.8-55.5-14.1c-8,10.5-21.5,16.7-43.2,19.7c2.8,4.9,4.2,10.3,4.2,15.9c0,21.1-19.4,64-41.8,64
		c-22.5,0-41.8-42.9-41.8-64c0-5.4,1.3-10.7,3.7-15.4c-23.4-2.8-36.9-9-44.4-20.3c-25,1.5-41.3,8.4-54.5,14
		c-8.7,3.7-16.3,6.9-24.4,7.9c-7.9,0.9-14.4-1.4-18.6-6.7c-8.8-11-8-35.1,2.1-65c-15.7-3.3-31.6-3.1-47.1,0.6l-2.7,0.7l-0.8-2.7
		c-9.1-29.9-37.4-50.8-68.7-50.8c-39.6,0-71.9,32.2-71.9,71.9c0,34.9,24.9,64.6,59.3,70.8l2.8,0.5l-0.3,2.8c-0.5,4-0.7,8-0.7,11.9
		c0,18.4,4.8,36.7,13.8,52.8c9,16,22,29.6,37.7,39.2l1.1,0.7l0.2,1.3c2.6,13.8,6.8,27.8,12.5,41.7h56.2
		c0.2-39.8,43.8-72.1,97.3-72.1c35.3,0,65.5,11,82.7,30.3l6,6.7l6-6.7c17.3-19.3,47.4-30.3,82.7-30.3
		C-6741.9-1421.6-6698.3-1389.3-6698.2-1349.5z"/>
</g>
</svg>
