<?xml version="1.0" encoding="utf-8"?>
<!-- Generator: Adobe Illustrator 19.0.0, SVG Export Plug-In . SVG Version: 6.00 Build 0)  -->
<svg version="1.1" id="图层_1" xmlns="http://www.w3.org/2000/svg" xmlns:xlink="http://www.w3.org/1999/xlink" x="0px" y="0px"
	 viewBox="2704.9 1852.4 710 710" style="enable-background:new 2704.9 1852.4 710 710;" xml:space="preserve">
<style type="text/css">
	.st0{fill:#00CB98;}
</style>
<path class="st0" d="M3059.9,2562.4c-47.9,0-94.4-9.4-138.2-27.9c-42.3-17.9-80.2-43.5-112.8-76.1c-32.6-32.6-58.2-70.6-76.1-112.8
	c-18.5-43.8-27.9-90.3-27.9-138.2s9.4-94.4,27.9-138.2c17.9-42.3,43.5-80.2,76.1-112.8c32.6-32.6,70.6-58.2,112.8-76.1
	c43.8-18.5,90.3-27.9,138.2-27.9c47.9,0,94.4,9.4,138.2,27.9c42.3,17.9,80.2,43.5,112.8,76.1c32.6,32.6,58.2,70.6,76.1,112.8
	c18.5,43.8,27.9,90.3,27.9,138.2s-9.4,94.4-27.9,138.2c-17.9,42.3-43.5,80.2-76.1,112.8c-32.6,32.6-70.6,58.2-112.8,76.1
	C3154.3,2553,3107.8,2562.4,3059.9,2562.4z M3059.9,1858.4c-93.2,0-180.9,36.3-246.8,102.2c-65.9,65.9-102.2,153.6-102.2,246.8
	c0,93.2,36.3,180.9,102.2,246.8s153.6,102.2,246.8,102.2c93.2,0,180.9-36.3,246.8-102.2c65.9-65.9,102.2-153.6,102.2-246.8
	s-36.3-180.9-102.2-246.8C3240.8,1894.7,3153.1,1858.4,3059.9,1858.4z"/>
<g>
	<path class="st0" d="M2957.2,2397.4c-37.2,0-66.3-13.4-66.3-30.5v-30.5h132.5v30.5C3023.4,2384,2994.3,2397.4,2957.2,2397.4z
		 M2896.9,2342.4v24.5c0,11.8,24.2,24.5,60.3,24.5c36,0,60.2-12.7,60.2-24.5v-24.5H2896.9z"/>
	<path class="st0" d="M2921.4,2295.4h5.5v-187h-5.5V2295.4z M2981.9,2108.4v187h5.5v-187H2981.9z"/>
	<path class="st0" d="M3023.4,2342.4h-132.5v-50h132.5V2342.4z M2896.9,2336.4h120.5v-38h-120.5V2336.4z"/>
	<path class="st0" d="M2954.4,2122.4c-12.9,0-21.9-3.7-31.1-9.3c-5.6,1.5-11.8,2.7-17.2,3.1c-10.2,0.9-12.6-1-13.4-1.6
		c-1.2-0.9-1.8-2.1-1.8-3.5c0.1-7.5,27.9-48.4,29.1-50.1c29.7-43.6,35.3-43.6,37.2-43.7h0c1.8,0,7.3,0.1,37.1,43.6
		c3,4.4,29.1,42.7,29.1,50.1c0,1.3-0.6,2.5-1.7,3.3c-5.1,4-26.6,1.4-37.2-1.1c-1.3,0.5-2.7,1.1-4.2,1.7
		C2972.6,2118.3,2962.9,2122.4,2954.4,2122.4z M2924.3,2106.6l1.1,0.7c8.7,5.4,17,9.1,29,9.1c7.3,0,16.3-3.8,23.6-6.9
		c1.8-0.8,3.6-1.5,5.2-2.1l0.9-0.4l0.9,0.2c12.1,3.1,27.5,3.8,32,2.8c-1.9-5.2-12-22.5-27.2-44.7c-18.9-27.8-29.7-39.9-32.8-41.8
		c-3.1,1.8-13.9,13.9-32.8,41.8c-14.7,21.6-25.3,39.7-27.1,44.9c3.6,0.8,14.7,0,25.8-3.2L2924.3,2106.6z"/>
	<path class="st0" d="M3023.4,2298.4h-132.5v-186l1.2-0.9c0,0,0.7-0.5,1.7-1.2l1.3-0.9l1.4,0.5c3.3,1.2,15.3,0.2,26.4-3l1.3-0.4
		l1.1,0.7c8.7,5.4,17,9.1,29,9.1c7.3,0,16.3-3.8,23.6-6.9c1.8-0.8,3.6-1.5,5.2-2.2l0.9-0.4l0.9,0.2c12,3.1,28.3,4,32.6,2.5l1.4-0.5
		l1.2,0.8c1.1,0.8,1.9,1.3,1.9,1.3l1.2,0.9l0,1.5V2298.4z M2896.9,2292.4h120.5V2116c-7.5,1.3-22.6-0.2-32.9-2.7
		c-1.3,0.5-2.8,1.1-4.2,1.7c-7.8,3.3-17.4,7.3-25.9,7.3c-12.9,0-21.9-3.7-31.1-9.3c-9,2.4-20.1,4-26.4,3.1V2292.4z"/>
	<path class="st0" d="M2957.2,2050.9c-8.1,0-15.5-4.5-19.5-11.6l-0.9-1.7l1.2-1.6c14.3-18.6,17.4-18.6,19.2-18.6h0.1
		c1.8,0,4.8,0.1,19.1,18.7l1.2,1.6l-1,1.7C2972.7,2046.4,2965.2,2050.9,2957.2,2050.9z M2944,2038c3,4.3,7.9,6.9,13.2,6.9
		c5.2,0,10.1-2.6,13.1-6.8c-8.6-11.1-12.1-13.8-13.2-14.5C2956.1,2024.2,2952.6,2026.9,2944,2038z"/>
	<g>
		<polygon class="st0" points="2942.4,2039.4 2945.6,2026.6 2946.6,2025.4 2950.1,2028.4 2951.2,2028.7 2950.1,2028.4 
			2951.1,2029.4 2950.6,2030 		"/>
		<polygon class="st0" points="2950.2,2028.9 2950.2,2028.9 2950.2,2026.7 2947.6,2024.3 2948.9,2022.9 2957.1,2022.9 2952,2028.4 
			2950.2,2026.7 		"/>
		<path class="st0" d="M2954.4,2122.4c-11.4,0-20.6-2.8-31.8-9.7l-1.9-1.2l21.9-74.4l3.6,3.4c3,2.9,7,4.5,11.1,4.5
			c2.5,0,5-0.6,7.2-1.7l3.2-1.6l21.4,72.9l-4.5-1.1c-1.4,0.5-2.8,1.1-4.3,1.8C2972.6,2118.3,2962.9,2122.4,2954.4,2122.4z
			 M2927.7,2108.7c7.9,4.7,15.7,7.7,26.7,7.7c7.3,0,16.3-3.8,23.6-6.8c1-0.4,2.1-0.9,3-1.3l-17.2-58.4c-2.1,0.7-4.4,1-6.7,1
			c-4.1,0-8.1-1.1-11.5-3.3L2927.7,2108.7z"/>
	</g>
</g>
<g>
	<path class="st0" d="M3157.7,2397.4c-37.2,0-66.3-13.4-66.3-30.5v-30.5H3224v30.5C3224,2384,3194.9,2397.4,3157.7,2397.4z
		 M3097.5,2342.4v24.5c0,11.8,24.2,24.5,60.3,24.5c36,0,60.2-12.7,60.2-24.5v-24.5H3097.5z"/>
	<path class="st0" d="M3122,2295.4h5.5v-187h-5.5V2295.4z M3182.5,2108.4v187h5.5v-187H3182.5z"/>
	<path class="st0" d="M3224,2342.4h-132.5v-50H3224V2342.4z M3097.5,2336.4H3218v-38h-120.5V2336.4z"/>
	<path class="st0" d="M3155,2122.4c-12.9,0-21.9-3.7-31.1-9.3c-5.6,1.5-11.8,2.7-17.2,3.1c-10.2,0.9-12.6-1-13.4-1.6
		c-1.2-0.9-1.8-2.1-1.8-3.5c0.1-7.5,27.9-48.4,29.1-50.1c29.7-43.6,35.3-43.6,37.2-43.7h0c1.8,0,7.3,0.1,37.1,43.6
		c3,4.4,29.1,42.7,29.1,50.1c0,1.3-0.6,2.5-1.7,3.3c-5.1,4-26.6,1.4-37.2-1.1c-1.3,0.5-2.7,1.1-4.2,1.7
		C3173.1,2118.3,3163.4,2122.4,3155,2122.4z M3124.8,2106.6l1.1,0.7c8.7,5.4,17,9.1,29,9.1c7.3,0,16.3-3.8,23.6-6.9
		c1.8-0.8,3.6-1.5,5.2-2.1l0.9-0.4l0.9,0.2c12.1,3.1,27.5,3.8,32,2.8c-1.9-5.2-12-22.5-27.2-44.7c-18.9-27.8-29.7-39.9-32.8-41.8
		c-3.1,1.8-13.9,13.9-32.8,41.8c-14.7,21.6-25.3,39.7-27.1,44.9c3.6,0.8,14.7,0,25.8-3.2L3124.8,2106.6z"/>
	<path class="st0" d="M3224,2298.4h-132.5v-186l1.2-0.9c0,0,0.7-0.5,1.7-1.2l1.3-0.9l1.4,0.5c3.3,1.2,15.3,0.2,26.4-3l1.3-0.4
		l1.1,0.7c8.7,5.4,17,9.1,29,9.1c7.3,0,16.3-3.8,23.6-6.9c1.8-0.8,3.6-1.5,5.2-2.1l0.9-0.4l0.9,0.2c12,3.1,28.3,4,32.6,2.5l1.4-0.5
		l1.2,0.8c1.1,0.8,1.9,1.3,1.9,1.3l1.2,0.9l0,1.5V2298.4z M3097.5,2292.4H3218V2116c-7.5,1.3-22.6-0.2-32.9-2.7
		c-1.3,0.5-2.7,1.1-4.2,1.7c-7.8,3.3-17.4,7.3-25.9,7.3c-12.9,0-21.9-3.7-31.1-9.3c-9,2.4-20.1,4-26.4,3.1V2292.4z"/>
	<path class="st0" d="M3157.7,2050.9c-8.1,0-15.5-4.5-19.5-11.6l-0.9-1.7l1.2-1.6c14.3-18.6,17.4-18.6,19.2-18.6h0.1
		c1.8,0,4.8,0.1,19.1,18.7l1.2,1.6l-1,1.7C3173.2,2046.4,3165.7,2050.9,3157.7,2050.9z M3144.5,2038c3,4.3,7.9,6.9,13.2,6.9
		c5.2,0,10.1-2.6,13.1-6.8c-8.6-11.1-12.1-13.8-13.2-14.5C3156.6,2024.2,3153.2,2026.9,3144.5,2038z"/>
	<g>
		<polygon class="st0" points="3141.7,2040.7 3146.2,2026.5 3147.2,2025.4 3150.8,2028.6 3151.7,2028.9 3150.8,2028.6 
			3151.6,2029.4 3151.1,2030 		"/>
		<polygon class="st0" points="3150.8,2028.9 3150.7,2028.9 3150.7,2026.7 3148.1,2024.3 3149.4,2022.9 3157.6,2022.9 
			3152.5,2028.4 3150.8,2026.7 		"/>
		<path class="st0" d="M3155,2122.4c-11.4,0-20.6-2.8-31.8-9.7l-1.9-1.2l21.9-74.4l3.6,3.4c3,2.9,7,4.5,11.1,4.5
			c2.5,0,5-0.6,7.2-1.7l3.2-1.6l21.4,72.9l-4.5-1.1c-1.4,0.5-2.8,1.1-4.3,1.8C3173.1,2118.3,3163.4,2122.4,3155,2122.4z
			 M3128.2,2108.7c7.9,4.7,15.7,7.7,26.7,7.7c7.3,0,16.3-3.8,23.6-6.8c1-0.4,2-0.9,3-1.3l-17.2-58.4c-2.1,0.7-4.4,1-6.7,1
			c-4.1,0-8.1-1.1-11.5-3.3L3128.2,2108.7z"/>
	</g>
</g>
</svg>
