<?xml version="1.0" encoding="utf-8"?>
<!-- Generator: Adobe Illustrator 19.0.0, SVG Export Plug-In . SVG Version: 6.00 Build 0)  -->
<svg version="1.1" id="图层_1" xmlns="http://www.w3.org/2000/svg" xmlns:xlink="http://www.w3.org/1999/xlink" x="0px" y="0px"
	 viewBox="-1625 6612.3 710 710" style="enable-background:new -1625 6612.3 710 710;" xml:space="preserve">
<style type="text/css">
	.st0{fill:#00CB98;}
</style>
<path class="st0" d="M-1270,7322.3c-47.9,0-94.4-9.4-138.2-27.9c-42.3-17.9-80.2-43.5-112.8-76.1c-32.6-32.6-58.2-70.6-76.1-112.8
	c-18.5-43.8-27.9-90.3-27.9-138.2c0-47.9,9.4-94.4,27.9-138.2c17.9-42.3,43.5-80.2,76.1-112.8c32.6-32.6,70.6-58.2,112.8-76.1
	c43.8-18.5,90.3-27.9,138.2-27.9c47.9,0,94.4,9.4,138.2,27.9c42.3,17.9,80.2,43.5,112.8,76.1c32.6,32.6,58.2,70.6,76.1,112.8
	c18.5,43.8,27.9,90.3,27.9,138.2c0,47.9-9.4,94.4-27.9,138.2c-17.9,42.3-43.5,80.2-76.1,112.8c-32.6,32.6-70.6,58.2-112.8,76.1
	C-1175.6,7312.9-1222.1,7322.3-1270,7322.3z M-1270,6618.3c-93.2,0-180.9,36.3-246.8,102.2c-65.9,65.9-102.2,153.6-102.2,246.8
	c0,93.2,36.3,180.9,102.2,246.8c65.9,65.9,153.6,102.2,246.8,102.2c93.2,0,180.9-36.3,246.8-102.2
	c65.9-65.9,102.2-153.6,102.2-246.8c0-93.2-36.3-180.9-102.2-246.8S-1176.8,6618.3-1270,6618.3z"/>
<path class="st0" d="M-1271.1,7155.6c-25.7,0-51.4-4.2-76-12.5c-8.8-3-17.2-6.3-26.9-10.1c-4.4-1.7-9-3.5-13.9-5.4
	c-22.4,7.3-44,14.2-71.1,23l-5,1.6l1.2-5.1c1.1-4.9,2.1-9.3,3-13.3c1.8-8.3,3.3-14.9,5-21.5c2-7.4,4.2-14.6,6.5-22.2
	c0.9-2.9,1.8-5.9,2.7-9c-1.7-3-3.5-5.9-5.2-8.9c-4.2-7.1-8.5-14.4-12.5-21.8c-36.1-65.9-29.6-137.1,17.8-195.3
	c20.5-25.2,46.6-44.8,77.6-58.5c29.1-12.8,61.8-19.7,94.7-19.9c32.9-0.2,65.8,6.3,95.1,18.8c31.2,13.3,57.6,32.7,78.5,57.7
	c28.2,33.7,42.7,73.5,42.1,115.2c-0.6,41.7-16.3,81.1-45.5,114.1c-28.5,32.2-66.8,55.1-111,66
	C-1232.8,7153.3-1252,7155.6-1271.1,7155.6z M-1387.8,7121.3l1,0.4c5.3,2,10.2,3.9,14.9,5.8c9.7,3.8,18,7.1,26.6,10
	c41.9,14.2,86.8,16.1,129.9,5.4c43-10.6,80.3-32.8,107.9-64.1c28.2-31.9,43.4-70,44-110.2c0.6-40.2-13.5-78.7-40.7-111.2
	c-39.5-47.3-100.5-74.3-167.4-74.3c-0.5,0-1,0-1.5,0c-67.5,0.4-128.6,28.2-167.7,76.1c-45.8,56.2-52.1,124.9-17.2,188.6
	c4,7.3,8.3,14.6,12.4,21.6c2,3.3,3.9,6.7,5.9,10l0.6,1.1l-0.4,1.2c-1.1,3.5-2.1,6.9-3.1,10.3c-2.3,7.6-4.5,14.7-6.4,21.9
	c-1.7,6.5-3.2,13-5,21.2c-0.6,2.6-1.2,5.3-1.8,8.2c25.2-8.1,45.7-14.8,67.1-21.7L-1387.8,7121.3z"/>
</svg>
