<?xml version="1.0" encoding="utf-8"?>
<!-- Generator: Adobe Illustrator 19.0.0, SVG Export Plug-In . SVG Version: 6.00 Build 0)  -->
<svg version="1.1" id="图层_1" xmlns="http://www.w3.org/2000/svg" xmlns:xlink="http://www.w3.org/1999/xlink" x="0px" y="0px"
	 viewBox="-802.5 1229.5 710 710" style="enable-background:new -802.5 1229.5 710 710;" xml:space="preserve">
<style type="text/css">
	.st0{fill:#F85A56;}
</style>
<path class="st0" d="M-447.5,1939.5c-47.9,0-94.4-9.4-138.2-27.9c-42.3-17.9-80.2-43.5-112.8-76.1c-32.6-32.6-58.2-70.6-76.1-112.8
	c-18.5-43.8-27.9-90.3-27.9-138.2c0-47.9,9.4-94.4,27.9-138.2c17.9-42.3,43.5-80.2,76.1-112.8c32.6-32.6,70.6-58.2,112.8-76.1
	c43.8-18.5,90.3-27.9,138.2-27.9c47.9,0,94.4,9.4,138.2,27.9c42.3,17.9,80.2,43.5,112.8,76.1c32.6,32.6,58.2,70.6,76.1,112.8
	c18.5,43.8,27.9,90.3,27.9,138.2c0,47.9-9.4,94.4-27.9,138.2c-17.9,42.3-43.5,80.2-76.1,112.8c-32.6,32.6-70.6,58.2-112.8,76.1
	C-353.1,1930.1-399.6,1939.5-447.5,1939.5z M-447.5,1235.5c-93.2,0-180.9,36.3-246.8,102.2c-65.9,65.9-102.2,153.6-102.2,246.8
	c0,93.2,36.3,180.9,102.2,246.8c65.9,65.9,153.6,102.2,246.8,102.2c93.2,0,180.9-36.3,246.8-102.2
	c65.9-65.9,102.2-153.6,102.2-246.8c0-93.2-36.3-180.9-102.2-246.8C-266.6,1271.8-354.3,1235.5-447.5,1235.5z"/>
<path class="st0" d="M-485,1736c-1.2,0-2.4-0.1-3.6-0.4c-8-1.9-13.5-9.6-18.7-17.1c-3.9-5.6-7.9-11.3-12.5-13.6
	c-4.7-2.3-11.7-1.9-18.4-1.6c-8.9,0.5-18.1,1-24.4-4.2c-6.3-5.2-7.9-14.5-9.4-23.5c-1.2-6.8-2.4-13.9-5.6-18
	c-3.2-4.1-9.6-6.8-15.8-9.5c-8.3-3.5-16.8-7.2-20.4-14.7c-3.5-7.3-1-16.4,1.5-25.1c1.9-6.7,3.8-13.7,2.6-19c-1.1-5-5.5-10-10.1-15.3
	c-6-6.9-12.2-14.1-12.2-22.5s6.2-15.6,12.2-22.5c4.6-5.3,9-10.3,10.1-15.3c1.2-5.3-0.8-12.2-2.6-19c-2.4-8.7-4.9-17.7-1.5-25.1
	c3.5-7.5,12.1-11.2,20.4-14.7c6.2-2.6,12.6-5.4,15.8-9.5c3.2-4.2,4.4-11.2,5.6-18c1.5-9,3.1-18.3,9.4-23.5
	c6.3-5.2,15.5-4.7,24.4-4.2c6.8,0.4,13.7,0.7,18.4-1.6c4.6-2.3,8.6-8,12.5-13.6c5.2-7.5,10.6-15.3,18.7-17.1
	c7.7-1.8,15.7,2.7,23.5,7c6,3.4,12.2,6.9,17.6,6.9c5.3,0,11.6-3.5,17.6-6.9c7.7-4.3,15.7-8.8,23.5-7c8,1.9,13.5,9.6,18.7,17.1
	c3.9,5.6,7.9,11.3,12.5,13.6c4.7,2.3,11.7,1.9,18.4,1.6c8.9-0.5,18.1-1,24.4,4.2c6.3,5.2,7.9,14.5,9.4,23.5c1.2,6.8,2.4,13.9,5.6,18
	c3.2,4.1,9.6,6.8,15.8,9.5c8.3,3.5,16.8,7.2,20.4,14.7c3.5,7.3,1,16.3-1.4,25.1c-1.9,6.7-3.8,13.7-2.6,19c1.1,5,5.5,10,10.1,15.4
	c6,6.9,12.2,14.1,12.2,22.5c0,8.5-6.2,15.6-12.2,22.5c-4.6,5.3-9,10.3-10.1,15.3c-1.2,5.3,0.7,12.3,2.6,19
	c2.4,8.7,4.9,17.7,1.5,25.1c-3.5,7.5-12.1,11.2-20.4,14.7c-6.2,2.6-12.6,5.4-15.8,9.5c-3.2,4.2-4.4,11.2-5.6,18
	c-1.5,9-3.1,18.3-9.4,23.4c-6.3,5.2-15.5,4.7-24.4,4.2c-6.8-0.4-13.7-0.7-18.4,1.6c-4.6,2.3-8.6,8-12.5,13.6
	c-5.2,7.5-10.6,15.3-18.7,17.1c-7.7,1.8-15.7-2.7-23.5-7c-6-3.4-12.3-6.9-17.6-6.9c-5.4,0-11.6,3.5-17.6,6.9
	C-471.6,1732.2-478.4,1736-485,1736z M-530.7,1697c4.9,0,9.6,0.5,13.6,2.5c5.9,2.9,10.4,9.3,14.7,15.5c4.6,6.6,9.3,13.4,15.1,14.7
	c5.5,1.3,12.1-2.5,19.2-6.4c6.7-3.8,13.6-7.6,20.5-7.6c6.9,0,13.8,3.9,20.5,7.6c7,4,13.7,7.7,19.2,6.4c5.8-1.3,10.5-8.1,15.1-14.7
	c4.3-6.2,8.8-12.6,14.7-15.5c6.1-3,13.9-2.6,21.4-2.2c8.1,0.4,15.8,0.8,20.3-2.9c4.6-3.7,6-11.9,7.3-19.8c1.3-7.6,2.6-15.4,6.8-20.7
	c4.1-5.3,11.3-8.4,18.2-11.3c7.6-3.2,14.7-6.3,17.3-11.7c2.5-5.3,0.4-12.9-1.8-20.9c-2.1-7.4-4.2-15.1-2.7-21.9
	c1.4-6.5,6.5-12.3,11.4-18c5.3-6.1,10.7-12.4,10.7-18.6c0-6.2-5.5-12.5-10.7-18.6c-4.9-5.6-10-11.5-11.4-18
	c-1.5-6.8,0.6-14.5,2.7-21.9c2.2-8,4.3-15.6,1.8-20.9c-2.6-5.4-9.7-8.5-17.3-11.7c-6.9-2.9-14-6-18.2-11.3
	c-4.2-5.3-5.5-13.2-6.8-20.7c-1.3-7.9-2.7-16.1-7.3-19.8c-4.5-3.7-12.2-3.3-20.3-2.9c-7.5,0.4-15.3,0.8-21.4-2.2
	c-5.9-2.9-10.4-9.3-14.7-15.5c-4.6-6.6-9.3-13.4-15.1-14.7c-5.5-1.3-12.1,2.5-19.2,6.4c-6.7,3.8-13.6,7.6-20.5,7.6
	c-6.9,0-13.8-3.9-20.5-7.6c-7-4-13.7-7.7-19.2-6.4c-5.8,1.3-10.5,8.2-15.1,14.7c-4.3,6.2-8.8,12.6-14.7,15.5
	c-6.1,3-13.9,2.6-21.4,2.2c-8.1-0.4-15.8-0.8-20.3,2.9c-4.6,3.7-6,11.9-7.3,19.8c-1.3,7.6-2.6,15.4-6.8,20.7
	c-4.1,5.3-11.3,8.4-18.2,11.3c-7.6,3.2-14.7,6.3-17.3,11.7c-2.5,5.3-0.4,12.9,1.8,20.9c2.1,7.4,4.2,15.1,2.7,21.9
	c-1.4,6.5-6.5,12.3-11.4,18c-5.3,6.1-10.7,12.4-10.7,18.6c0,6.2,5.5,12.5,10.7,18.6c4.9,5.6,10,11.5,11.4,18
	c1.5,6.8-0.6,14.4-2.7,21.9c-2.2,8-4.3,15.6-1.8,20.9c2.6,5.4,9.7,8.5,17.3,11.7c6.9,2.9,14,6,18.2,11.3c4.2,5.3,5.5,13.2,6.8,20.7
	c1.3,7.9,2.7,16.1,7.3,19.8c4.5,3.7,12.2,3.3,20.3,2.8C-535.9,1697.1-533.3,1697-530.7,1697z"/>
<path class="st0" d="M-471.6,1839.9l-63.5-53.9l-82.2-12.2l49.5-109.2l1.7,10c1.3,7.9,2.7,16.1,7.3,19.8c4.5,3.7,12.2,3.3,20.3,2.8
	c7.5-0.4,15.3-0.8,21.4,2.2c5.9,2.9,10.4,9.3,14.7,15.5c4.6,6.6,9.3,13.4,15.1,14.7c5.5,1.3,12.1-2.5,19.2-6.4
	c6.7-3.8,13.6-7.6,20.5-7.6c6.9,0,13.9,3.9,20.5,7.6c1.4,0.8,2.8,1.5,4.1,2.3l2.5,1.3L-471.6,1839.9z M-608.5,1769l76,11.3
	l58.8,49.9l45.6-100.6c-0.6-0.3-1.2-0.7-1.8-1c-6-3.4-12.3-6.9-17.6-6.9c-5.4,0-11.6,3.5-17.6,6.9c-7.7,4.3-15.7,8.8-23.5,7
	c-8-1.9-13.5-9.6-18.7-17.1c-3.9-5.6-7.9-11.3-12.5-13.6c-4.7-2.3-11.7-1.9-18.4-1.6c-8.9,0.5-18.1,1-24.4-4.2
	c-4.2-3.4-6.3-8.7-7.7-14.4L-608.5,1769z"/>
<path class="st0" d="M-423.4,1836.8l-50.1-110.5l2.4-1.3c1-0.5,2-1.1,3-1.7c6.7-3.8,13.6-7.6,20.5-7.6c6.9,0,13.8,3.9,20.5,7.6
	c7,4,13.7,7.7,19.2,6.4c5.8-1.3,10.5-8.1,15.1-14.7c4.3-6.2,8.8-12.6,14.7-15.5c6.1-3,13.9-2.6,21.4-2.2c8.1,0.4,15.8,0.8,20.3-2.9
	c4.6-3.7,6-11.9,7.3-19.8l2-11.6l48.9,107.9l-82,12.1L-423.4,1836.8z M-465.7,1728.9l44.5,98.2l58.6-49.8l75.8-11.2l-37.6-83
	c-1.4,6.4-3.5,12.2-8,16l0,0c-6.3,5.2-15.5,4.7-24.4,4.2c-6.8-0.4-13.7-0.7-18.4,1.6c-4.6,2.3-8.6,8-12.5,13.6
	c-5.2,7.5-10.6,15.3-18.7,17.1c-7.7,1.8-15.7-2.7-23.5-7c-6-3.4-12.3-6.9-17.6-6.9c-5.4,0-11.6,3.5-17.6,6.9
	C-465.3,1728.7-465.5,1728.8-465.7,1728.9z"/>
<g>
	<g>
		<path class="st0" d="M-447.5,1626c-41.1,0-74.5-33.4-74.5-74.5s33.4-74.5,74.5-74.5s74.5,33.4,74.5,74.5S-406.4,1626-447.5,1626z
			 M-447.5,1483c-37.8,0-68.5,30.7-68.5,68.5s30.7,68.5,68.5,68.5s68.5-30.7,68.5-68.5S-409.7,1483-447.5,1483z M-447.5,1587.5
			c-19.9,0-36-16.1-36-36s16.1-36,36-36s36,16.1,36,36S-427.6,1587.5-447.5,1587.5z M-447.5,1521.5c-16.5,0-30,13.5-30,30
			s13.5,30,30,30s30-13.5,30-30S-431,1521.5-447.5,1521.5z"/>
	</g>
</g>
<g>
	<g>
		<path class="st0" d="M-447.5,1686.5c-74.4,0-135-60.6-135-135s60.6-135,135-135s135,60.6,135,135S-373.1,1686.5-447.5,1686.5z
			 M-447.5,1422.5c-71.1,0-129,57.9-129,129c0,71.1,57.9,129,129,129s129-57.9,129-129C-318.5,1480.4-376.4,1422.5-447.5,1422.5z
			 M-447.5,1664.5c-62.3,0-113-50.7-113-113s50.7-113,113-113s113,50.7,113,113S-385.2,1664.5-447.5,1664.5z M-447.5,1444.5
			c-59,0-107,48-107,107c0,59,48,107,107,107s107-48,107-107C-340.5,1492.5-388.5,1444.5-447.5,1444.5z"/>
	</g>
</g>
</svg>
