<?xml version="1.0" encoding="utf-8"?>
<!-- Generator: Adobe Illustrator 19.0.0, SVG Export Plug-In . SVG Version: 6.00 Build 0)  -->
<svg version="1.1" id="图层_1" xmlns="http://www.w3.org/2000/svg" xmlns:xlink="http://www.w3.org/1999/xlink" x="0px" y="0px"
	 viewBox="-2537.5 6612.3 710 710" style="enable-background:new -2537.5 6612.3 710 710;" xml:space="preserve">
<style type="text/css">
	.st0{fill:#007FFC;}
</style>
<path class="st0" d="M-2182.5,7322.3c-47.9,0-94.4-9.4-138.2-27.9c-42.3-17.9-80.2-43.5-112.8-76.1c-32.6-32.6-58.2-70.6-76.1-112.8
	c-18.5-43.8-27.9-90.3-27.9-138.2c0-47.9,9.4-94.4,27.9-138.2c17.9-42.3,43.5-80.2,76.1-112.8c32.6-32.6,70.6-58.2,112.8-76.1
	c43.8-18.5,90.3-27.9,138.2-27.9c47.9,0,94.4,9.4,138.2,27.9c42.3,17.9,80.2,43.5,112.8,76.1c32.6,32.6,58.2,70.6,76.1,112.8
	c18.5,43.8,27.9,90.3,27.9,138.2c0,47.9-9.4,94.4-27.9,138.2c-17.9,42.3-43.5,80.2-76.1,112.8c-32.6,32.6-70.6,58.2-112.8,76.1
	C-2088.1,7312.9-2134.6,7322.3-2182.5,7322.3z M-2182.5,6618.3c-93.2,0-180.9,36.3-246.8,102.2c-65.9,65.9-102.2,153.6-102.2,246.8
	c0,93.2,36.3,180.9,102.2,246.8c65.9,65.9,153.6,102.2,246.8,102.2c93.2,0,180.9-36.3,246.8-102.2
	c65.9-65.9,102.2-153.6,102.2-246.8c0-93.2-36.3-180.9-102.2-246.8S-2089.3,6618.3-2182.5,6618.3z"/>
<g>
	<path class="st0" d="M-2022.3,7119.3h-330c-28.2,0-51.2-23-51.2-51.2v-204.7c0-28.2,23-51.2,51.2-51.2h330
		c28.2,0,51.2,23,51.2,51.2v204.7C-1971.1,7096.4-1994,7119.3-2022.3,7119.3z M-2352.2,6818.2c-24.9,0-45.2,20.3-45.2,45.2v204.7
		c0,24.9,20.3,45.2,45.2,45.2h330c24.9,0,45.2-20.3,45.2-45.2v-204.7c0-24.9-20.3-45.2-45.2-45.2H-2352.2z"/>
	<path class="st0" d="M-2186.3,7007.3c-10.8,0-21.9-4.3-36.5-12.8l-0.3-0.2l-179.2-134.5l3.6-4.8l179.1,134.4
		c26.9,15.7,40.3,15.8,64.8,0l179-134.2l3.6,4.8l-179.2,134.3l-0.1,0.1C-2164.9,7003-2175.5,7007.3-2186.3,7007.3z"/>
</g>
</svg>
