<?xml version="1.0" encoding="utf-8"?>
<!-- Generator: Adobe Illustrator 19.0.0, SVG Export Plug-In . SVG Version: 6.00 Build 0)  -->
<svg version="1.1" id="图层_1" xmlns="http://www.w3.org/2000/svg" xmlns:xlink="http://www.w3.org/1999/xlink" x="0px" y="0px"
	 viewBox="-4589.7 5592.7 714.7 714.7" style="enable-background:new -4589.7 5592.7 714.7 714.7;" xml:space="preserve">
<style type="text/css">
	.st0{fill:#E27C3F;}
	.st1{fill:#3497E1;}
</style>
<path class="st0" d="M-4232.4,6307.3c-48.2,0-95-9.4-139.1-28.1c-42.6-18-80.8-43.8-113.6-76.6s-58.6-71-76.6-113.6
	c-18.6-44.1-28.1-90.9-28.1-139.1s9.4-95,28.1-139.1c18-42.6,43.8-80.8,76.6-113.6s71-58.6,113.6-76.6
	c44.1-18.6,90.9-28.1,139.1-28.1c48.2,0,95,9.4,139.1,28.1c42.6,18,80.8,43.8,113.6,76.6s58.6,71,76.6,113.6
	c18.6,44.1,28.1,90.9,28.1,139.1s-9.4,95-28.1,139.1c-18,42.6-43.8,80.8-76.6,113.6s-71,58.6-113.6,76.6
	C-4137.4,6297.9-4184.2,6307.3-4232.4,6307.3z M-4232.4,5598.7c-93.8,0-182.1,36.5-248.4,102.9c-66.4,66.4-102.9,154.6-102.9,248.4
	s36.5,182.1,102.9,248.4c66.4,66.4,154.6,102.9,248.4,102.9c93.8,0,182.1-36.5,248.4-102.9c66.4-66.4,102.9-154.6,102.9-248.4
	s-36.5-182.1-102.9-248.4C-4050.3,5635.2-4138.6,5598.7-4232.4,5598.7z"/>
<path class="st0" d="M-4023.5,6124.6c0,0-0.1,0-0.1,0c-4.6,0-10-1.7-12.3-2.4l-0.6-0.2c-0.1,0-16.6-5.2-53.2-44.5
	c-2.6-2.6-5.6-5.6-8.8-8.8c-10.8-10.8-24.2-24.2-32.2-29.2c-12.1-7.5-17.8-10.4-48.3-16.8c-0.1,0-18.1-3.4-52.8-3.5
	c-34.7,0-52.6,3.4-52.8,3.5c-30.5,6.3-36.2,9.3-48.3,16.8c-8,5-21.4,18.4-32.1,29.1c-3.2,3.2-6.3,6.3-8.9,8.8
	c-36.7,39.5-52.4,44.5-52.5,44.5c-2.5,0.8-8.9,2.5-13.7,2.5c-5.9,0-10.5-2.7-15.6-6.9c-10.4-8.9-16.9-30.7-17.5-32.8
	c-0.7-1.7-5.9-16.1-5.9-38.5c-1.6-35.7,15.1-95.6,27.3-139.4c1.6-5.6,3-10.9,4.4-15.9c9.5-34.9,23.7-65.7,31.3-80.9
	c0.2-0.5,0.4-0.8,0.5-1c7.9-16.9,51.4-38.3,90-22.9c1.1,0.4,3.1,1.4,5.8,2.8c7.5,3.8,21.4,10.8,31.5,13.1c10,2.3,42.6,1.9,53.2,1.7
	v-0.2l3.4,0.1l3.4-0.1v0.2c17.5,0.4,45.7,0.4,53-1.7c8.8-2.5,20.6-8.2,28.5-11.9c5-2.4,7.7-3.7,9.2-4.1c28.2-8.6,48.5-5.2,60.5-0.9
	c13.6,4.9,24.6,13.8,29.3,23.9c0.1,0.2,0.3,0.6,0.6,1.1c13.1,26.4,24.2,55.1,31.2,80.8l1.8,6.7c12,43.9,30.2,110.3,28.6,148.5
	c0,23.2-4.4,37.8-4.6,38.5c-0.3,0.9-6.8,24.2-17.5,33.3C-4013.4,6122.7-4018,6124.6-4023.5,6124.6z M-4231.7,6013.3
	c35.4,0,53.2,3.4,54,3.6c30.6,6.4,37.3,9.5,50.3,17.6c8.6,5.4,22.3,19,33.2,30c3.2,3.2,6.2,6.2,8.8,8.8l0.1,0.1
	c34.1,36.7,50.4,42.9,50.6,42.9l0.6,0.2c2,0.6,6.8,2.1,10.6,2.1c3.4,0,6.8-0.8,11.9-5.1c9.2-7.9,15.5-30.2,15.6-30.4
	c0.1-0.2,4.4-14.5,4.4-36.8l0-0.1c1.6-37.3-16.4-103.1-28.4-146.7l-1.8-6.7c-6.9-25.3-17.8-53.6-30.8-79.7c-0.3-0.6-0.5-1.1-0.6-1.3
	c-7.1-15.2-35.8-34-82.6-19.8c-1.2,0.4-4.7,2-8.4,3.8c-8,3.8-20.1,9.6-29.4,12.2c-10.2,2.9-49.9,2.1-57.8,1.9l-0.3,0l0,0l-0.1,0
	l-0.2,0c-7.5,0.2-45.8,0.8-57.6-1.8c-10.9-2.5-24.6-9.4-32.9-13.6c-2.4-1.2-4.4-2.2-5.3-2.6c-35-13.9-75.5,5.1-82.4,19.9
	c-0.1,0.2-0.3,0.5-0.5,1.1c-7.5,15-21.4,45.4-30.8,79.8c-1.4,4.9-2.8,10.3-4.4,15.9c-12.1,43.4-28.6,102.9-27.1,137.6l0,0.1
	c0,22.3,5.5,36.4,5.6,36.5l0.1,0.3c0.1,0.2,6.4,22.1,15.6,30c4.9,4,8,5.5,11.6,5.5c0,0,0,0,0.1,0c4.1,0,10.2-1.7,12-2.3
	c0.1,0,15.8-6.2,49.9-42.9l0.1-0.1c2.6-2.6,5.7-5.6,8.9-8.8c11-11,24.6-24.6,33.2-30c13-8.1,19.7-11.2,50.2-17.6
	C-4284.9,6016.8-4267.1,6013.3-4231.7,6013.3z"/>
<path class="st0" d="M-4348.7,5855.8c-30.6,0-55.3,24.8-55.3,55.4c0,30.6,24.8,55.4,55.3,55.4c30.6,0,55.3-24.8,55.3-55.4
	C-4293.4,5880.6-4318.1,5855.8-4348.7,5855.8z M-4348.7,5955.5c-24.4,0-44.2-19.8-44.2-44.3c0-24.5,19.8-44.3,44.2-44.3
	c24.4,0,44.2,19.8,44.2,44.3C-4304.4,5935.7-4324.3,5955.5-4348.7,5955.5z"/>
<path class="st0" d="M-4196.4,5905.7c-4.6,0-8.3,3.7-8.3,8.2c0,4.6,3.7,8.2,8.3,8.2c4.6,0,8.3-3.7,8.3-8.2
	C-4188.1,5909.4-4191.8,5905.7-4196.4,5905.7z M-4262.8,5905.7c-4.6,0-8.3,3.7-8.3,8.2c0,4.6,3.7,8.2,8.3,8.2c4.6,0,8.3-3.7,8.3-8.2
	C-4254.5,5909.4-4258.2,5905.7-4262.8,5905.7z"/>
<path class="st0" d="M-4146.6,5894.6c10.7,0,19.4,8.7,19.4,19.4c0,10.7-8.7,19.4-19.4,19.4c-10.7,0-19.4-8.7-19.4-19.4
	C-4166,5903.3-4157.3,5894.6-4146.6,5894.6z"/>
<path class="st1" d="M-4146.6,5898.3c8.7,0,15.7,7,15.7,15.7c0,8.7-7,15.7-15.7,15.7c-8.7,0-15.7-7-15.7-15.7
	C-4162.3,5905.3-4155.3,5898.3-4146.6,5898.3z"/>
<path class="st0" d="M-4229.6,5900.1c-7.7,0-13.9,6.2-13.9,13.9c0,7.7,6.2,13.9,13.9,13.9c7.7,0,13.9-6.2,13.9-13.9
	C-4215.7,5906.3-4222,5900.1-4229.6,5900.1z M-4229.6,5925c-6.1,0-11-4.9-11-11c0-6.1,4.9-11,11-11c6.1,0,11,4.9,11,11
	C-4218.7,5920.1-4223.6,5925-4229.6,5925z"/>
</svg>
