<?xml version="1.0" encoding="utf-8"?>
<!-- Generator: Adobe Illustrator 19.0.0, SVG Export Plug-In . SVG Version: 6.00 Build 0)  -->
<svg version="1.1" id="图层_1" xmlns="http://www.w3.org/2000/svg" xmlns:xlink="http://www.w3.org/1999/xlink" x="0px" y="0px"
	 viewBox="1112.5 6612.3 710 710" style="enable-background:new 1112.5 6612.3 710 710;" xml:space="preserve">
<style type="text/css">
	.st0{fill:#62CBF4;}
	.st1{fill-rule:evenodd;clip-rule:evenodd;fill:#62CBF4;}
</style>
<path class="st0" d="M1467.5,7322.3c-47.9,0-94.4-9.4-138.2-27.9c-42.3-17.9-80.2-43.5-112.8-76.1s-58.2-70.6-76.1-112.8
	c-18.5-43.8-27.9-90.3-27.9-138.2c0-47.9,9.4-94.4,27.9-138.2c17.9-42.3,43.5-80.2,76.1-112.8c32.6-32.6,70.6-58.2,112.8-76.1
	c43.8-18.5,90.3-27.9,138.2-27.9c47.9,0,94.4,9.4,138.2,27.9c42.3,17.9,80.2,43.5,112.8,76.1c32.6,32.6,58.2,70.6,76.1,112.8
	c18.5,43.8,27.9,90.3,27.9,138.2c0,47.9-9.4,94.4-27.9,138.2c-17.9,42.3-43.5,80.2-76.1,112.8s-70.6,58.2-112.8,76.1
	C1561.9,7312.9,1515.4,7322.3,1467.5,7322.3z M1467.5,6618.3c-93.2,0-180.9,36.3-246.8,102.2c-65.9,65.9-102.2,153.6-102.2,246.8
	c0,93.2,36.3,180.9,102.2,246.8c65.9,65.9,153.6,102.2,246.8,102.2c93.2,0,180.9-36.3,246.8-102.2
	c65.9-65.9,102.2-153.6,102.2-246.8c0-93.2-36.3-180.9-102.2-246.8C1648.3,6654.6,1560.7,6618.3,1467.5,6618.3z"/>
<g>
	<circle class="st1" cx="1262.5" cy="6822.2" r="17.7"/>
	<path class="st1" d="M1429.3,6802.1c-1.8-0.1-3.6-0.1-5.5-0.1s-3.7,0-5.5,0.1h-1.5v0.1c-20.9,0.8-39.9,5-56.9,12.8
		c-18.8,8.6-34.7,20.4-47.6,35.4c-12.9,15-22.8,32.6-29.6,53c-5.6,16.7-8.9,34.4-9.9,53.1v-92.1h-20.5v260h20.5v-144
		c0.7,14.3,2.8,28.1,6.3,41.3l22.1,5.5c-0.1-0.3-0.2-0.5-0.3-0.8c-5.9-18.1-8.9-37.4-8.9-57.9s3-39.8,8.9-57.9
		c5.9-18.1,14.5-33.9,25.8-47.4c11.3-13.5,25.1-24.3,41.4-32.3c15-7.4,31.9-11.3,50.6-11.9h10c18.7,0.6,35.6,4.6,50.4,11.9
		c16.2,8,29.9,18.8,41.2,32.3c1.1,1.3,2.2,2.7,3.2,4l-12,9.3l-31.2,24.1l92.1,22.4l1.6-94.8l-31.4,24.2l-3.7,2.9
		c-1.4-1.7-2.7-3.4-4.2-5.1c-11-12.7-24-23.2-39.2-31.3h121.6v300.8h19.6V6819h77v-16.9H1429.3z"/>
	<path class="st1" d="M1552.1,6934.3c2,11,2.9,22.3,2.9,34.1c0,20.5-3,39.8-8.9,57.9c-5.9,18.1-14.5,33.9-25.8,47.4
		c-11.3,13.5-25,24.3-41.2,32.3c-16.2,8-34.6,12-55.4,12c-20.8,0-39.3-4-55.6-12c-7.5-3.7-14.4-7.9-20.8-12.7l10.5-8.4l30.7-24.7
		l-92.5-20.5l0.3,94.8l30.8-24.9l5.1-4.1c8.4,6.4,17.6,12,27.7,16.6c18.8,8.6,40.1,12.9,63.9,12.9c23.7,0,44.9-4.3,63.6-12.9
		s34.5-20.4,47.4-35.4c12.9-15,22.8-32.6,29.6-53c6.8-20.3,10.2-42.1,10.2-65.2c0-9.9-0.6-19.5-1.9-28.9L1552.1,6934.3z"/>
</g>
</svg>
