<?xml version="1.0" encoding="utf-8"?>
<!-- Generator: Adobe Illustrator 19.0.0, SVG Export Plug-In . SVG Version: 6.00 Build 0)  -->
<svg version="1.1" id="图层_1" xmlns="http://www.w3.org/2000/svg" xmlns:xlink="http://www.w3.org/1999/xlink" x="0px" y="0px"
	 viewBox="-5380.2 4639.5 714.7 714.7" style="enable-background:new -5380.2 4639.5 714.7 714.7;" xml:space="preserve">
<style type="text/css">
	.st0{fill:#E27C3F;}
	.st1{fill:#CE6430;}
	.st2{fill:#FFFFFF;}
</style>
<path class="st0" d="M-5022.9,5354.1c-48.2,0-95-9.4-139.1-28.1c-42.6-18-80.8-43.8-113.6-76.6s-58.6-71-76.6-113.6
	c-18.6-44.1-28.1-90.9-28.1-139.1s9.4-95,28.1-139.1c18-42.6,43.8-80.8,76.6-113.6s71-58.6,113.6-76.6
	c44.1-18.6,90.9-28.1,139.1-28.1c48.2,0,95,9.4,139.1,28.1c42.6,18,80.8,43.8,113.6,76.6c32.8,32.8,58.6,71,76.6,113.6
	c18.6,44.1,28.1,90.9,28.1,139.1s-9.4,95-28.1,139.1c-18,42.6-43.8,80.8-76.6,113.6c-32.8,32.8-71,58.6-113.6,76.6
	C-4927.9,5344.7-4974.7,5354.1-5022.9,5354.1z M-5022.9,4645.5c-93.8,0-182.1,36.5-248.4,102.9c-66.4,66.4-102.9,154.6-102.9,248.4
	s36.5,182.1,102.9,248.4c66.4,66.4,154.6,102.9,248.4,102.9s182.1-36.5,248.4-102.9c66.4-66.4,102.9-154.6,102.9-248.4
	s-36.5-182.1-102.9-248.4C-4840.8,4682-4929.1,4645.5-5022.9,4645.5z"/>
<path class="st1" d="M-5133,5156l-154.2-152.4l0-0.4c-1-0.7-1.9-1.5-2.8-2.4c-4.7-4.7-7.3-10.8-7.3-17.4c0-6.6,2.6-12.8,7.3-17.4
	l3.9-3.8l126-124.5l174.7,172.6L-5133,5156z M-5281.1,5001.2l148.1,146.3l139-137.3l-166.1-164.1l-125.7,124.2
	c-3.6,3.5-5.5,8.2-5.5,13.2c0,5,2,9.7,5.5,13.2c0.9,0.9,2,1.7,3.2,2.5l1.5,0.9L-5281.1,5001.2z"/>
<path class="st0" d="M-5273.9,5016.9l-19.3-19.4l4.8-4.8l2.7,3c1.4,1.5,2.6,2.9,3.3,4.3L-5273.9,5016.9z"/>
<g>
	<path class="st2" d="M-4995.9,4742.1l-257.6,258.1l0,0.1c-8.6,8.6-22.6,8.6-31.2,0l15.6,15.6c0,0,290.4,290.9,230.5,230.9l0.8,0
		c0.9,1.3,1.8,2.6,3,3.8c8.6,8.6,22.6,8.6,31.2,0c1.2-1.2,2.2-2.5,3.1-3.9h0.8c47-47.1,253.7-254.2,253.7-254.2L-4995.9,4742.1
		L-4995.9,4742.1z"/>
	<path class="st0" d="M-4995.9,4742.1l249.8,250.3c0,0-206.7,207.1-253.7,254.2h-0.8c-0.9,1.4-1.9,2.7-3.1,3.9
		c-4.3,4.3-10,6.5-15.6,6.5s-11.3-2.2-15.6-6.5c-1.2-1.2-2.2-2.5-3-3.8l-0.8,0c5.6,5.6,8.1,8.2,8.1,8.2c0,0-238.6-239.1-238.6-239.1
		l-15.6-15.6c4.3,4.3,10,6.5,15.6,6.5s11.3-2.2,15.6-6.5l0-0.1L-4995.9,4742.1 M-4995.9,4733.6l-4.2,4.3l-257.6,258.1l-0.1,0.1l0,0
		c-3,3-7,4.6-11.3,4.6c-4.3,0-8.3-1.7-11.4-4.7l-4.2,4.2l-4.2,4.2l15.6,15.6c0,0,59.6,59.8,119.3,119.5c29.8,29.9,59.6,59.8,82,82.2
		l27,27.1l7.6,7.6l2,2c1.1,1.1,2.4,2.4,4.9,2.4h0.6c3.3,1.4,6.9,2.1,10.7,2.1c7.5,0,14.6-2.9,19.9-8.2c0.7-0.7,1.3-1.4,1.9-2.2h0.2
		l1.8-1.8c47-47.1,253.7-254.2,253.7-254.2l4.2-4.2l-4.2-4.2l-249.8-250.3L-4995.9,4733.6L-4995.9,4733.6z"/>
</g>
<g>
	<path class="st2" d="M-4995.5,4963.9l-82.2-82.2l-90,90l82.2,82.2L-4995.5,4963.9z M-4979.9,4979.5l-19.6,19.6l97.9,97.9l19.6-19.6
		L-4979.9,4979.5z M-5034.7,5034.3l97.9,97.9l19.6-19.6l-97.9-97.9L-5034.7,5034.3z M-5069.9,5069.6l97.9,97.9l19.6-19.6l-97.9-97.9
		L-5069.9,5069.6z M-5203,5006.9l195.7,195.7l19.6-19.6l-195.7-195.7L-5203,5006.9z"/>
	<path class="st0" d="M-5007.3,5206.9l-200-200l23.8-23.8l200,200L-5007.3,5206.9z M-5198.8,5006.9l191.5,191.5l15.3-15.3
		l-191.5-191.5L-5198.8,5006.9z M-4972,5171.7l-102.1-102.1l23.8-23.8l102.1,102.1L-4972,5171.7z M-5065.6,5069.6l93.6,93.6
		l15.3-15.3l-93.6-93.6L-5065.6,5069.6z M-4936.8,5136.5l-102.1-102.1l23.8-23.8l102.1,102.1L-4936.8,5136.5z M-5030.4,5034.3
		l93.6,93.6l15.3-15.3l-93.6-93.6L-5030.4,5034.3z M-4901.6,5101.2l-102.1-102.1l23.8-23.8l102.1,102.1L-4901.6,5101.2z
		 M-4995.2,4999.1l93.6,93.6l15.3-15.3l-93.6-93.6L-4995.2,4999.1z M-5085.5,5058.2l-86.5-86.5l94.3-94.3l86.5,86.5L-5085.5,5058.2z
		 M-5163.5,4971.7l78,78l85.8-85.8l-78-78L-5163.5,4971.7z"/>
</g>
<path class="st0" d="M-4847.7,5041.7c-3,0-6.1-0.6-9.1-1.8c-4.5-1.7-9.1-5-13.7-9.6c-8.3-8.3-12.3-15.6-12.3-22.4
	c0-6.6,2.3-12.7,6.9-18.1l2-2.4l16,14.1c-2.5-5-3.9-9.3-4.1-13.1c-0.4-5.7,1.5-10.8,5.6-14.9c2.7-2.7,6.1-4.5,10-5.3
	c3.9-0.8,8.2-0.4,12.6,1.3c4.3,1.7,8.8,4.9,13.8,9.9c6.2,6.2,9.8,12.2,10.7,17.9c1,6-0.8,12-5.4,17.9l-2,2.5l-11.8-10.5
	c0.9,1.9,1.6,3.6,2.1,5.2c1.5,4.5,1.7,8.6,0.8,12.3c-0.9,3.7-2.8,7-5.6,9.8c-3.3,3.3-7.3,5.4-11.9,6.4
	C-4844.5,5041.5-4846.1,5041.7-4847.7,5041.7z M-4873.2,4996.1c-2.5,3.7-3.6,7.6-3.6,11.8c0,5,3.6,11.1,10.6,18.1
	c4,4,7.9,6.8,11.6,8.2c3.6,1.4,7,1.7,10.5,1c3.5-0.7,6.3-2.3,8.8-4.7c2.1-2.1,3.4-4.4,4.1-7c0.6-2.6,0.4-5.6-0.7-9
	c-1.2-3.7-4.1-9.2-8.7-16.3c-2.3-3.5-3.4-5.9-3.5-7.7c-0.2-2.6,0.9-4.3,1.8-5.3c1.6-1.6,3.7-2.3,6.1-2.1c2.2,0.2,4.4,1.4,6.5,3.5
	c2.5,2.5,3.8,5.1,4.1,7.8c0.2,2-0.3,4.1-1.3,6.3l9.4,8.4c2.2-3.6,3-7.1,2.4-10.5c-0.8-4.5-3.8-9.4-9.1-14.7
	c-4.4-4.4-8.3-7.2-11.8-8.6c-3.3-1.3-6.4-1.6-9.1-1c-2.8,0.6-5.1,1.8-7,3.7c-2.9,2.9-4.2,6.2-3.9,10.2c0.3,4.3,2.7,10.1,7.1,17.1
	c3.2,5.1,4.8,8.6,5,11.1c0.2,3.5-1.2,5.7-2.5,6.9c-1.8,1.8-4.3,2.7-7.2,2.5c-2.7-0.2-5.4-1.6-7.9-4c-3.3-3.3-4.8-7.1-4.3-11.3
	c0.2-1.9,0.9-3.8,2.2-5.8L-4873.2,4996.1z M-4856.3,5004.7l-1,1.3c-1.5,2-2.4,3.7-2.6,5.2c-0.3,2.3,0.5,4.3,2.5,6.3
	c1.4,1.4,2.8,2.2,4.1,2.3c1.4,0.1,2.1-0.3,2.5-0.8c0.4-0.4,0.8-1,0.7-2.4c0-0.5-0.4-2.6-4-8.2
	C-4854.8,5007.1-4855.6,5005.9-4856.3,5004.7z M-4837.1,4989.1c-0.6,0-0.9,0.2-1.1,0.4c-0.1,0.1-0.1,0.3-0.1,0.6l0,0.1
	c0,0,0.1,1.2,2.5,4.8c0.9,1.5,1.8,2.9,2.6,4.2c1-1.6,1.5-3,1.4-4.2c-0.1-1.3-0.9-2.7-2.4-4.1c-1.1-1.1-2.1-1.7-2.8-1.8
	C-4836.9,4989.1-4837,4989.1-4837.1,4989.1z M-4900.9,4998.4l-16.9-16.9l16.2-28.7l-28.7,16.2l-16.9-16.9l33.8-53.1l-8.2,8.2
	l-23.2-23.2l-2.9,2.9l21.6,21.6l-13.4,13.4l-21.6-21.6l-4.6,4.6l23.9,23.9l-14.4,14.4l-42-42l49.1-49.1l40.1,40.1l0,0l17.6,17.6
	l-14.5,21.2l22.8-12.9l16.3,16.3l-12.9,22.8l21.2-14.5l17.5,17.5L-4900.9,4998.4z M-4910.3,4980.5l10.3,10.3l49.5-31.6l-8.7-8.7
	l-38.4,26.2l23.3-41.2l-9.9-9.9l-41.3,23.4l26.2-38.5l-8.8-8.8l-31.6,49.6l10.3,10.3l43.5-24.6L-4910.3,4980.5z M-4989.7,4901.1
	l33.6,33.6l5.9-5.9l-23.9-23.9l13.1-13.1l21.6,21.6l4.9-4.9l-21.6-21.6l11.4-11.4l23.2,23.2l5.3-5.3l-32.9-32.9L-4989.7,4901.1z
	 M-5003.1,4896.2l-16.3-16.3l6.3-33.4l-19.9,19.9l-17.3-17.3l49.1-49.1l16.2,16.2l-6.4,33.7l20-20l17.3,17.3L-5003.1,4896.2z
	 M-5012.9,4877.9l9.8,9.8l40.6-40.6l-8.8-8.8l-29.6,29.6l9.5-49.7l-9.7-9.7l-40.6,40.6l8.8,8.8l29.4-29.4L-5012.9,4877.9z"/>
</svg>
