<?xml version="1.0" encoding="utf-8"?>
<!-- Generator: Adobe Illustrator 19.0.0, SVG Export Plug-In . SVG Version: 6.00 Build 0)  -->
<svg version="1.1" id="图层_1" xmlns="http://www.w3.org/2000/svg" xmlns:xlink="http://www.w3.org/1999/xlink" x="0px" y="0px"
	 viewBox="-6138 4653.3 714.7 714.7" style="enable-background:new -6138 4653.3 714.7 714.7;" xml:space="preserve">
<style type="text/css">
	.st0{fill:#EFC84A;}
	.st1{fill:#FFFFFF;}
</style>
<path class="st0" d="M-5780.7,5368c-48.2,0-95-9.4-139.1-28.1c-42.6-18-80.8-43.8-113.6-76.6c-32.8-32.8-58.6-71-76.6-113.6
	c-18.6-44.1-28.1-90.9-28.1-139.1s9.4-95,28.1-139.1c18-42.6,43.8-80.8,76.6-113.6c32.8-32.8,71-58.6,113.6-76.6
	c44.1-18.6,90.9-28.1,139.1-28.1c48.2,0,95,9.4,139.1,28.1c42.6,18,80.8,43.8,113.6,76.6c32.8,32.8,58.6,71,76.6,113.6
	c18.6,44.1,28.1,90.9,28.1,139.1s-9.4,95-28.1,139.1c-18,42.6-43.8,80.8-76.6,113.6c-32.8,32.8-71,58.6-113.6,76.6
	C-5685.6,5358.5-5732.4,5368-5780.7,5368z M-5780.7,4659.3c-93.8,0-182.1,36.5-248.4,102.9s-102.9,154.6-102.9,248.4
	c0,93.8,36.5,182.1,102.9,248.4c66.4,66.4,154.6,102.9,248.4,102.9c93.8,0,182.1-36.5,248.4-102.9
	c66.4-66.4,102.9-154.6,102.9-248.4s-36.5-182.1-102.9-248.4C-5598.6,4695.9-5686.8,4659.3-5780.7,4659.3z"/>
<path class="st0" d="M-5681,5201.9h-271.3c-7.8,0-14.1-6.3-14.1-14.1v-382c0-7.8,6.3-14.1,14.1-14.1h271.3c7.8,0,14.1,6.3,14.1,14.1
	v382C-5666.9,5195.6-5673.2,5201.9-5681,5201.9z M-5952.3,4797.7c-4.5,0-8.1,3.6-8.1,8.1v382c0,4.5,3.6,8.1,8.1,8.1h271.3
	c4.5,0,8.1-3.6,8.1-8.1v-382c0-4.5-3.6-8.1-8.1-8.1H-5952.3z"/>
<path class="st0" d="M-5689.1,5135.5h-255.1V4825h255.1V5135.5z M-5938.2,5129.5h243.1V4831h-243.1V5129.5z"/>
<path class="st0" d="M-5813.9,4805.8c3.1,0,5.5,2.5,5.5,5.5c0,3.1-2.5,5.5-5.5,5.5s-5.5-2.5-5.5-5.5
	C-5819.4,4808.3-5816.9,4805.8-5813.9,4805.8z"/>
<path class="st0" d="M-5813.9,5149.1c9.2,0,16.6,7.4,16.6,16.6c0,9.2-7.4,16.6-16.6,16.6s-16.6-7.4-16.6-16.6
	C-5830.5,5156.5-5823,5149.1-5813.9,5149.1z"/>
<g>
	<path class="st1" d="M-5730.8,4933.1h116.3c9.2,0,16.6,7.4,16.6,16.6V5210c0,9.2-7.4,16.6-16.6,16.6h-116.3
		c-9.2,0-16.6-7.4-16.6-16.6v-260.2C-5747.4,4940.6-5740,4933.1-5730.8,4933.1z"/>
	<path class="st0" d="M-5614.6,5229.6h-116.3c-10.8,0-19.6-8.8-19.6-19.6v-260.2c0-10.8,8.8-19.6,19.6-19.6h116.3
		c10.8,0,19.6,8.8,19.6,19.6V5210C-5594.9,5220.8-5603.7,5229.6-5614.6,5229.6z M-5730.8,4936.1c-7.5,0-13.6,6.1-13.6,13.6V5210
		c0,7.5,6.1,13.6,13.6,13.6h116.3c7.5,0,13.6-6.1,13.6-13.6v-260.2c0-7.5-6.1-13.6-13.6-13.6H-5730.8z"/>
</g>
<g>
	<path class="st1" d="M-5730.8,4977.4h116.3v188.2h-116.3V4977.4z"/>
	<path class="st0" d="M-5611.6,5168.7h-122.3v-194.2h122.3V5168.7z M-5727.8,5162.7h110.3v-182.2h-110.3V5162.7z"/>
</g>
<path class="st0" d="M-5692.1,4949.8h38.8c3.1,0,5.5,2.5,5.5,5.5c0,3.1-2.5,5.5-5.5,5.5h-38.8c-3.1,0-5.5-2.5-5.5-5.5
	C-5697.6,4952.2-5695.1,4949.8-5692.1,4949.8z"/>
<path class="st0" d="M-5672.7,5182.3c7.6,0,13.8,6.2,13.8,13.8c0,7.6-6.2,13.8-13.8,13.8c-7.6,0-13.8-6.2-13.8-13.8
	C-5686.5,5188.5-5680.3,5182.3-5672.7,5182.3z"/>
</svg>
