<?xml version="1.0" encoding="utf-8"?>
<!-- Generator: Adobe Illustrator 19.0.0, SVG Export Plug-In . SVG Version: 6.00 Build 0)  -->
<svg version="1.1" id="图层_1" xmlns="http://www.w3.org/2000/svg" xmlns:xlink="http://www.w3.org/1999/xlink" x="0px" y="0px"
	 viewBox="-7685.4 5515.3 714.7 714.7" style="enable-background:new -7685.4 5515.3 714.7 714.7;" xml:space="preserve">
<style type="text/css">
	.st0{fill:#45B39C;}
	.st1{fill:#FFFFFF;}
	.st2{fill:#DF5A48;}
</style>
<path class="st0" d="M-7328,6230c-48.2,0-95-9.4-139.1-28.1c-42.6-18-80.8-43.8-113.6-76.6c-32.8-32.8-58.6-71-76.6-113.6
	c-18.6-44.1-28.1-90.9-28.1-139.1c0-48.2,9.4-95,28.1-139.1c18-42.6,43.8-80.8,76.6-113.6s71-58.6,113.6-76.6
	c44.1-18.6,90.9-28.1,139.1-28.1c48.2,0,95,9.4,139.1,28.1c42.6,18,80.8,43.8,113.6,76.6c32.8,32.8,58.6,71,76.6,113.6
	c18.6,44.1,28.1,90.9,28.1,139.1c0,48.2-9.4,95-28.1,139.1c-18,42.6-43.8,80.8-76.6,113.6c-32.8,32.8-71,58.6-113.6,76.6
	C-7233,6220.5-7279.8,6230-7328,6230z M-7328,5521.3c-93.8,0-182.1,36.5-248.4,102.9c-66.4,66.4-102.9,154.6-102.9,248.4
	c0,93.8,36.5,182.1,102.9,248.4c66.4,66.4,154.6,102.9,248.4,102.9s182.1-36.5,248.4-102.9c66.4-66.4,102.9-154.6,102.9-248.4
	c0-93.8-36.5-182.1-102.9-248.4C-7146,5557.8-7234.2,5521.3-7328,5521.3z"/>
<g>
	<path class="st1" d="M-7311.4,5778.5v51.5h0.2c1,10.9,10,20.3,23.4,26h-63.6c13.3-5.7,22.4-15.2,23.4-26h0.2v-51.5h-105.2v51.5h0.2
		c1,10.9,10,20.3,23.4,26h-63.6c13.3-5.7,22.4-15.2,23.4-26h0.2v-51.5H-7555v51.5h0.2c1.6,17.7,24.4,31.7,52.4,31.7
		c2.8,0,5.6-0.2,8.3-0.5v46.3h0.2c1.6,17.7,24.4,31.7,52.4,31.7c2.8,0,5.6-0.2,8.3-0.5v46.3h0.2c1.6,17.7,24.4,31.7,52.4,31.7
		c28,0,50.8-14,52.4-31.7h0.2v-47c4.4,0.8,9,1.2,13.8,1.2c28,0,50.8-14,52.4-31.7h0.2v-45.9l2.8,0.1c28,0,50.8-14,52.4-31.7h0.2
		v-51.5H-7311.4z M-7412.5,5933.5c13.3-5.7,22.4-15.2,23.4-26h0.2v-46.3c2.7,0.3,5.5,0.5,8.3,0.5c4.8,0,9.4-0.4,13.8-1.2v47h0.2
		c1,10.9,10,20.3,23.4,26H-7412.5z"/>
	<path class="st0" d="M-7380.6,6019.6c-27.9,0-51.3-13.7-55-31.7h-0.6v-46c-1.8,0.1-3.6,0.2-5.3,0.2c-27.9,0-51.3-13.7-55-31.7h-0.6
		v-46c-1.8,0.1-3.6,0.2-5.3,0.2c-27.9,0-51.3-13.7-55-31.7h-0.6v-57.5h111.2v57.5h-0.6c-1.5,7.6-6.5,14.6-14.3,20h40.4
		c-7.8-5.5-12.8-12.4-14.3-20h-0.6v-57.5h111.2v57.5h-0.6c-1.5,7.6-6.5,14.6-14.3,20h40.4c-7.8-5.5-12.8-12.4-14.3-20h-0.6v-57.5
		h111.2v57.5h-0.6c-3.7,17.9-27,31.6-54.8,31.7v45.8h-0.6c-3.7,18-27.1,31.7-55,31.7c-3.6,0-7.2-0.2-10.8-0.7v46.6h-0.6
		C-7329.3,6005.9-7352.7,6019.6-7380.6,6019.6z M-7430.2,5983.1l0.1,1.6c1.5,16.2,23.2,28.9,49.5,28.9s48-12.7,49.5-28.9l0.1-1.6
		v-46.6h-96.1l13.5-5.8c12.6-5.4,20.7-14.2,21.6-23.5l0.1-1.6v-47.7l3.3,0.3c2.9,0.3,5.5,0.4,8,0.4c4.4,0,8.9-0.4,13.3-1.2l3.5-0.6
		v1.1l11.1-4.7c12.6-5.4,20.7-14.2,21.5-23.5l0.1-1.6v-46.6h-99.2v46.6l0.1,1.6c0.9,9.3,8.9,18.1,21.5,23.5l13.5,5.8h-93l13.5-5.8
		c12.6-5.4,20.7-14.2,21.5-23.5l0.1-1.6v-46.6h-99.2v46.6l0.1,1.6c1.5,16.2,23.2,28.9,49.5,28.9c2.5,0,5.1-0.1,8-0.4l3.3-0.3v47.8
		l0.1,1.6c1.5,16.2,23.2,28.9,49.5,28.9c2.5,0,5.1-0.1,8-0.4l3.3-0.3V5983.1z M-7331,5934.3l3.5,0.6c4.4,0.8,8.9,1.2,13.3,1.2
		c26.2,0,48-12.7,49.5-28.9l0.1-1.6v-47.2l5.9,0.2c26.2,0,47.9-12.7,49.4-28.9l0.1-1.6v-46.6h-99.2v46.6l0.1,1.6
		c0.9,9.3,8.9,18.1,21.5,23.5l13.5,5.8h-90.5v46.6l0.1,1.6c0.9,9.3,8.9,18.1,21.6,23.5l11.1,4.7V5934.3z M-7400.8,5930.5h45.9
		c-7.8-5.5-12.8-12.4-14.3-20h-0.6v-46.6c-3.6,0.5-7.2,0.7-10.8,0.7c-1.7,0-3.5-0.1-5.3-0.2v46h-0.6
		C-7388.1,5918.1-7393,5925-7400.8,5930.5z"/>
</g>
<g>
	<path class="st1" d="M-7258.8,5745.3c29,0,52.6,15.3,52.6,34.1c0,18.8-23.6,32.5-52.6,32.5c-29,0-52.6-13.7-52.6-32.5
		C-7311.4,5760.6-7287.9,5745.3-7258.8,5745.3z M-7380.6,5745.3c29,0,52.6,15.3,52.6,34.1c0,18.8-23.5,32.5-52.6,32.5
		c-29,0-52.6-13.7-52.6-32.5C-7433.2,5760.6-7409.7,5745.3-7380.6,5745.3z M-7502.4,5745.3c29,0,52.6,15.3,52.6,34.1
		c0,18.8-23.5,32.5-52.6,32.5c-29,0-52.6-13.7-52.6-32.5C-7555,5760.6-7531.5,5745.3-7502.4,5745.3z M-7314.2,5822.8
		c29,0,52.6,15.3,52.6,34.1c0,18.8-23.6,32.5-52.6,32.5c-29,0-52.6-13.7-52.6-32.5C-7366.8,5838.1-7343.3,5822.8-7314.2,5822.8z
		 M-7441.5,5822.8c29,0,52.6,15.3,52.6,34.1c0,18.8-23.5,32.5-52.6,32.5c-29,0-52.6-13.7-52.6-32.5
		C-7494.1,5838.1-7470.6,5822.8-7441.5,5822.8z M-7380.6,5900.3c29,0,52.6,15.3,52.6,34.1c0,18.8-23.5,32.5-52.6,32.5
		c-29,0-52.6-13.7-52.6-32.5C-7433.2,5915.6-7409.7,5900.3-7380.6,5900.3z"/>
	<path class="st0" d="M-7380.6,5969.9c-31.7,0-55.6-15.3-55.6-35.5c0-20.4,24.9-37.1,55.6-37.1s55.6,16.6,55.6,37.1
		C-7325,5954.6-7348.9,5969.9-7380.6,5969.9z M-7380.6,5903.3c-27.3,0-49.6,13.9-49.6,31.1c0,16.6,21.8,29.5,49.6,29.5
		c27.8,0,49.6-13,49.6-29.5C-7331,5917.3-7353.3,5903.3-7380.6,5903.3z M-7314.2,5892.4c-31.7,0-55.6-15.3-55.6-35.5
		c0-20.4,24.9-37.1,55.6-37.1s55.6,16.6,55.6,37.1C-7258.6,5877.1-7282.5,5892.4-7314.2,5892.4z M-7314.2,5825.8
		c-27.3,0-49.6,13.9-49.6,31.1c0,16.6,21.8,29.5,49.6,29.5c27.8,0,49.6-13,49.6-29.5C-7264.6,5839.8-7286.9,5825.8-7314.2,5825.8z
		 M-7441.5,5892.4c-31.7,0-55.6-15.3-55.6-35.5c0-20.4,24.9-37.1,55.6-37.1s55.6,16.6,55.6,37.1
		C-7385.9,5877.1-7409.8,5892.4-7441.5,5892.4z M-7441.5,5825.8c-27.3,0-49.6,13.9-49.6,31.1c0,16.6,21.8,29.5,49.6,29.5
		c27.8,0,49.6-13,49.6-29.5C-7391.9,5839.8-7414.2,5825.8-7441.5,5825.8z M-7258.8,5814.9c-31.7,0-55.6-15.3-55.6-35.5
		c0-20.4,24.9-37.1,55.6-37.1c30.7,0,55.6,16.6,55.6,37.1C-7203.2,5799.6-7227.1,5814.9-7258.8,5814.9z M-7258.8,5748.3
		c-27.3,0-49.6,13.9-49.6,31.1c0,16.6,21.8,29.5,49.6,29.5c27.8,0,49.6-13,49.6-29.5C-7209.2,5762.2-7231.5,5748.3-7258.8,5748.3z
		 M-7380.6,5814.9c-31.7,0-55.6-15.3-55.6-35.5c0-20.4,24.9-37.1,55.6-37.1s55.6,16.6,55.6,37.1
		C-7325,5799.6-7348.9,5814.9-7380.6,5814.9z M-7380.6,5748.3c-27.3,0-49.6,13.9-49.6,31.1c0,16.6,21.8,29.5,49.6,29.5
		c27.8,0,49.6-13,49.6-29.5C-7331,5762.2-7353.3,5748.3-7380.6,5748.3z M-7502.4,5814.9c-31.7,0-55.6-15.3-55.6-35.5
		c0-20.4,24.9-37.1,55.6-37.1s55.6,16.6,55.6,37.1C-7446.8,5799.6-7470.7,5814.9-7502.4,5814.9z M-7502.4,5748.3
		c-27.3,0-49.6,13.9-49.6,31.1c0,16.6,21.8,29.5,49.6,29.5c27.8,0,49.6-13,49.6-29.5C-7452.8,5762.2-7475.1,5748.3-7502.4,5748.3z"
		/>
</g>
<path class="st2" d="M-7258.8,5761.9c14,0,24.8,8,24.8,16.9c0,8.9-10.8,16.2-24.8,16.2c-14,0-25.2-7.4-25.2-16.2
	C-7284,5769.9-7272.8,5761.9-7258.8,5761.9z M-7380.6,5761.9c14,0,24.8,8,24.8,16.9c0,8.9-10.8,16.2-24.8,16.2
	c-14,0-25.1-7.4-25.1-16.2C-7405.8,5769.9-7394.6,5761.9-7380.6,5761.9z M-7502.4,5761.9c14,0,24.8,8,24.8,16.9
	c0,8.9-10.8,16.2-24.8,16.2s-25.1-7.4-25.1-16.2C-7527.6,5769.9-7516.4,5761.9-7502.4,5761.9z M-7314.2,5839.4
	c14,0,24.8,8,24.8,16.9s-10.8,16.2-24.8,16.2c-14,0-25.1-7.4-25.1-16.2C-7339.3,5847.4-7328.2,5839.4-7314.2,5839.4z
	 M-7441.5,5839.4c14,0,24.8,8,24.8,16.9s-10.8,16.2-24.8,16.2c-14,0-25.1-7.4-25.1-16.2C-7466.7,5847.4-7455.5,5839.4-7441.5,5839.4
	z M-7380.6,5916.9c14,0,24.8,8,24.8,16.9c0,8.9-10.8,16.2-24.8,16.2c-14,0-25.1-7.3-25.1-16.2
	C-7405.8,5924.9-7394.6,5916.9-7380.6,5916.9z"/>
<path class="st0" d="M-7293.1,6108.7l-12.7-7.7l225.2-304.1l17.9,13.9l-1.8,2.4L-7293.1,6108.7z M-7297,6099.2l2.5,1.5l223.5-288.9
	l-8.3-6.5L-7297,6099.2z M-7326.3,6086.5l-12.7-7.7l225.2-304.1l17.9,13.9l-1.8,2.4L-7326.3,6086.5z M-7330.2,6077.1l2.5,1.5
	l223.5-288.9l-8.3-6.5L-7330.2,6077.1z"/>
</svg>
