<?xml version="1.0" encoding="utf-8"?>
<!-- Generator: Adobe Illustrator 19.0.0, SVG Export Plug-In . SVG Version: 6.00 Build 0)  -->
<svg version="1.1" id="图层_1" xmlns="http://www.w3.org/2000/svg" xmlns:xlink="http://www.w3.org/1999/xlink" x="0px" y="0px"
	 viewBox="4494.7 5086.1 714.7 714.7" style="enable-background:new 4494.7 5086.1 714.7 714.7;" xml:space="preserve">
<style type="text/css">
	.st0{fill:#FF6699;}
</style>
<path class="st0" d="M4852,5800.8c-48.2,0-95-9.4-139.1-28.1c-42.6-18-80.8-43.8-113.6-76.6c-32.8-32.8-58.6-71-76.6-113.6
	c-18.6-44.1-28.1-90.9-28.1-139.1c0-48.2,9.4-95,28.1-139.1c18-42.6,43.8-80.8,76.6-113.6c32.8-32.8,71-58.6,113.6-76.6
	c44.1-18.6,90.9-28.1,139.1-28.1s95,9.4,139.1,28.1c42.6,18,80.8,43.8,113.6,76.6c32.8,32.8,58.6,71,76.6,113.6
	c18.6,44.1,28.1,90.9,28.1,139.1c0,48.2-9.4,95-28.1,139.1c-18,42.6-43.8,80.8-76.6,113.6c-32.8,32.8-71,58.6-113.6,76.6
	C4947.1,5791.3,4900.3,5800.8,4852,5800.8z M4852,5092.1c-93.8,0-182.1,36.5-248.4,102.9s-102.9,154.6-102.9,248.4
	c0,93.8,36.5,182.1,102.9,248.4c66.4,66.4,154.6,102.9,248.4,102.9s182.1-36.5,248.4-102.9c66.4-66.4,102.9-154.6,102.9-248.4
	c0-93.8-36.5-182.1-102.9-248.4S4945.9,5092.1,4852,5092.1z"/>
<path class="st0" d="M5023.7,5640.2h-343.3c-10.8,0-19.6-8.8-19.6-19.6v-354.3c0-10.8,8.8-19.6,19.6-19.6h343.3
	c10.8,0,19.6,8.8,19.6,19.6v354.3C5043.3,5631.4,5034.5,5640.2,5023.7,5640.2z M4680.4,5252.7c-7.5,0-13.6,6.1-13.6,13.6v354.3
	c0,7.5,6.1,13.6,13.6,13.6h343.3c7.5,0,13.6-6.1,13.6-13.6v-354.3c0-7.5-6.1-13.6-13.6-13.6H4680.4z"/>
<path class="st0" d="M5004.5,5374.5h-305v-94.6h305V5374.5z M4705.5,5368.5h293v-82.6h-293V5368.5z"/>
<path class="st0" d="M4910.1,5325.1c1.9-0.8,3.4-2,4.4-3.6c1-1.6,1.6-3.4,1.6-5.4c0-3.2-1.1-5.9-3.4-8.1c-2.3-2.1-5.5-3.2-9.7-3.2
	c-4.2,0-7.4,1.1-9.7,3.2c-2.3,2.1-3.4,4.8-3.4,8.1c0,1.9,0.5,3.7,1.5,5.2c1,1.6,2.6,2.8,4.7,3.8c-2.5,1.1-4.4,2.6-5.5,4.6
	c-1.2,2-1.7,4.1-1.7,6.5c0,4.3,1.5,7.6,4.7,10.1c2.6,2.1,5.9,3.1,9.9,3.1c4.3,0,7.7-1.3,10.2-3.8c2.6-2.5,3.9-5.8,3.9-9.8
	c0-2.4-0.6-4.6-1.9-6.5C4914.3,5327.5,4912.5,5326.1,4910.1,5325.1L4910.1,5325.1z M4899.3,5312.9c1-1,2.2-1.4,3.8-1.4
	c1.5,0,2.8,0.5,3.7,1.4c0.9,0.9,1.4,2.2,1.4,3.8c0,1.7-0.5,3-1.4,3.9c-1,0.9-2.2,1.4-3.8,1.4c-1.6,0-2.8-0.5-3.8-1.4
	c-0.9-0.9-1.4-2.2-1.4-3.9C4897.8,5315.1,4898.3,5313.9,4899.3,5312.9L4899.3,5312.9z M4907.5,5340.8c-1.1,1.2-2.6,1.9-4.3,1.9
	c-1.8,0-3.2-0.6-4.4-1.9c-1.2-1.3-1.8-3.1-1.8-5.4c0-1.6,0.5-3.2,1.5-4.6c1-1.4,2.5-2.1,4.6-2.1c1.8,0,3.2,0.6,4.4,1.8
	c1.1,1.2,1.7,2.9,1.7,4.9C4909.2,5337.8,4908.7,5339.6,4907.5,5340.8z M4943.3,5325.1c1.9-0.8,3.4-2,4.4-3.6c1-1.6,1.6-3.4,1.6-5.4
	c0-3.2-1.1-5.9-3.4-8.1c-2.3-2.1-5.5-3.2-9.7-3.2c-4.2,0-7.4,1.1-9.7,3.2c-2.3,2.1-3.4,4.8-3.4,8.1c0,1.9,0.5,3.7,1.5,5.2
	c1,1.6,2.6,2.8,4.7,3.8c-2.5,1.1-4.4,2.6-5.5,4.6c-1.2,2-1.7,4.1-1.7,6.5c0,4.3,1.5,7.6,4.7,10.1c2.6,2.1,5.9,3.1,9.9,3.1
	c4.3,0,7.7-1.3,10.2-3.8c2.6-2.5,3.9-5.8,3.9-9.8c0-2.4-0.6-4.6-1.9-6.5C4947.6,5327.5,4945.7,5326.1,4943.3,5325.1L4943.3,5325.1z
	 M4932.5,5312.9c1-1,2.2-1.4,3.8-1.4c1.5,0,2.8,0.5,3.7,1.4c0.9,0.9,1.4,2.2,1.4,3.8c0,1.7-0.5,3-1.4,3.9c-1,0.9-2.2,1.4-3.8,1.4
	c-1.6,0-2.8-0.5-3.8-1.4c-0.9-0.9-1.4-2.2-1.4-3.9C4931.1,5315.1,4931.5,5313.9,4932.5,5312.9L4932.5,5312.9z M4940.8,5340.8
	c-1.1,1.2-2.6,1.9-4.3,1.9c-1.8,0-3.2-0.6-4.4-1.9c-1.2-1.3-1.8-3.1-1.8-5.4c0-1.6,0.5-3.2,1.5-4.6c1-1.4,2.5-2.1,4.6-2.1
	c1.8,0,3.2,0.6,4.4,1.8c1.1,1.2,1.7,2.9,1.7,4.9C4942.5,5337.8,4941.9,5339.6,4940.8,5340.8z M4979.6,5310
	c-2.8-3.4-6.5-5.1-10.9-5.1c-4.1,0-7.4,1.4-10,4.1c-2.6,2.7-3.9,6.3-3.9,10.7c0,4.2,1.2,7.7,3.7,10.3c2.5,2.6,5.4,4,8.9,4
	c3.2,0,5.8-1.2,7.9-3.7c-0.3,5-1.1,8.3-2.3,9.9c-1.2,1.6-2.7,2.4-4.4,2.4c-1.4,0-2.5-0.4-3.3-1.2c-0.8-0.8-1.3-2-1.5-3.6l-8.1,0.9
	c0.6,3.6,1.9,6.3,4,8.1c2.1,1.8,4.9,2.7,8.3,2.7c4.7,0,8.6-1.8,11.5-5.3c3-3.5,4.4-9.3,4.4-17.3
	C4983.9,5319,4982.4,5313.4,4979.6,5310L4979.6,5310z M4972.8,5325.9c-1.1,1.3-2.4,1.9-4,1.9c-1.7,0-3.1-0.7-4.2-2
	c-1.1-1.3-1.7-3.4-1.7-6.2c0-2.8,0.5-4.8,1.5-6c1-1.2,2.3-1.8,3.8-1.8c1.6,0,3.1,0.7,4.3,2.2c1.2,1.5,1.9,3.6,1.9,6.3
	C4974.5,5322.7,4973.9,5324.6,4972.8,5325.9z"/>
<path class="st0" d="M4774.5,5490.7h-55.4c-10.8,0-19.6-8.8-19.6-19.6v-49.8c0-10.8,8.8-19.6,19.6-19.6h55.4
	c10.8,0,19.6,8.8,19.6,19.6v49.8C4794.1,5481.9,4785.3,5490.7,4774.5,5490.7z M4719.2,5407.7c-7.5,0-13.6,6.1-13.6,13.6v49.8
	c0,7.5,6.1,13.6,13.6,13.6h55.4c7.5,0,13.6-6.1,13.6-13.6v-49.8c0-7.5-6.1-13.6-13.6-13.6H4719.2z"/>
<polygon class="st0" points="4763.4,5437.9 4752.4,5437.9 4752.4,5426.8 4741.3,5426.8 4741.3,5437.9 4730.2,5437.9 4730.2,5449 
	4741.3,5449 4741.3,5460 4752.4,5460 4752.4,5449 4763.4,5449 "/>
<path class="st0" d="M4774.5,5590.4h-55.4c-10.8,0-19.6-8.8-19.6-19.6v-49.8c0-10.8,8.8-19.6,19.6-19.6h55.4
	c10.8,0,19.6,8.8,19.6,19.6v49.8C4794.1,5581.6,4785.3,5590.4,4774.5,5590.4z M4719.2,5507.3c-7.5,0-13.6,6.1-13.6,13.6v49.8
	c0,7.5,6.1,13.6,13.6,13.6h55.4c7.5,0,13.6-6.1,13.6-13.6v-49.8c0-7.5-6.1-13.6-13.6-13.6H4719.2z"/>
<path class="st0" d="M4730.2,5537.6h33.2v11.1h-33.2V5537.6z"/>
<path class="st0" d="M4879.7,5490.7h-55.4c-10.8,0-19.6-8.8-19.6-19.6v-49.8c0-10.8,8.8-19.6,19.6-19.6h55.4
	c10.8,0,19.6,8.8,19.6,19.6v49.8C4899.3,5481.9,4890.5,5490.7,4879.7,5490.7z M4824.3,5407.7c-7.5,0-13.6,6.1-13.6,13.6v49.8
	c0,7.5,6.1,13.6,13.6,13.6h55.4c7.5,0,13.6-6.1,13.6-13.6v-49.8c0-7.5-6.1-13.6-13.6-13.6H4824.3z"/>
<path class="st0" d="M4852,5432.4c6.1,0,11.1,5,11.1,11.1s-5,11.1-11.1,11.1c-6.1,0-11.1-5-11.1-11.1S4845.9,5432.4,4852,5432.4z"/>
<path class="st0" d="M4879.7,5590.4h-55.4c-10.8,0-19.6-8.8-19.6-19.6v-49.8c0-10.8,8.8-19.6,19.6-19.6h55.4
	c10.8,0,19.6,8.8,19.6,19.6v49.8C4899.3,5581.6,4890.5,5590.4,4879.7,5590.4z M4824.3,5507.3c-7.5,0-13.6,6.1-13.6,13.6v49.8
	c0,7.5,6.1,13.6,13.6,13.6h55.4c7.5,0,13.6-6.1,13.6-13.6v-49.8c0-7.5-6.1-13.6-13.6-13.6H4824.3z"/>
<path class="st0" d="M4835.4,5537.6v11.1h33.2v-11.1H4835.4z M4852,5532c3.1,0,5.5-2.5,5.5-5.5c0-3.1-2.5-5.5-5.5-5.5
	c-3.1,0-5.5,2.5-5.5,5.5C4846.5,5529.5,4849,5532,4852,5532z M4852,5554.2c-3.1,0-5.5,2.5-5.5,5.5c0,3.1,2.5,5.5,5.5,5.5
	c3.1,0,5.5-2.5,5.5-5.5C4857.6,5556.6,4855.1,5554.2,4852,5554.2z"/>
<path class="st0" d="M4984.9,5590.4h-55.4c-10.8,0-19.6-8.8-19.6-19.6v-149.5c0-10.8,8.8-19.6,19.6-19.6h55.4
	c10.8,0,19.6,8.8,19.6,19.6v149.5C5004.5,5581.6,4995.7,5590.4,4984.9,5590.4z M4929.5,5407.7c-7.5,0-13.6,6.1-13.6,13.6v149.5
	c0,7.5,6.1,13.6,13.6,13.6h55.4c7.5,0,13.6-6.1,13.6-13.6v-149.5c0-7.5-6.1-13.6-13.6-13.6H4929.5z"/>
<path class="st0" d="M4940.6,5476.7v11.1h33.2v-11.1H4940.6z M4940.6,5504.3h33.2v-11.1h-33.2V5504.3z"/>
</svg>
