<?xml version="1.0" encoding="utf-8"?>
<!-- Generator: Adobe Illustrator 19.0.0, SVG Export Plug-In . SVG Version: 6.00 Build 0)  -->
<svg version="1.1" id="图层_1" xmlns="http://www.w3.org/2000/svg" xmlns:xlink="http://www.w3.org/1999/xlink" x="0px" y="0px"
	 viewBox="3337.7 7177.1 710 710" style="enable-background:new 3337.7 7177.1 710 710;" xml:space="preserve">
<style type="text/css">
	.st0{fill:#0DD8E2;}
</style>
<path class="st0" d="M3692.7,7887.1c-47.9,0-94.4-9.4-138.2-27.9c-42.3-17.9-80.2-43.5-112.8-76.1c-32.6-32.6-58.2-70.6-76.1-112.8
	c-18.5-43.8-27.9-90.3-27.9-138.2c0-47.9,9.4-94.4,27.9-138.2c17.9-42.3,43.5-80.2,76.1-112.8c32.6-32.6,70.6-58.2,112.8-76.1
	c43.8-18.5,90.3-27.9,138.2-27.9s94.4,9.4,138.2,27.9c42.3,17.9,80.2,43.5,112.8,76.1c32.6,32.6,58.2,70.6,76.1,112.8
	c18.5,43.8,27.9,90.3,27.9,138.2c0,47.9-9.4,94.4-27.9,138.2c-17.9,42.3-43.5,80.2-76.1,112.8c-32.6,32.6-70.6,58.2-112.8,76.1
	C3787.1,7877.7,3740.6,7887.1,3692.7,7887.1z M3692.7,7183.1c-93.2,0-180.9,36.3-246.8,102.2c-65.9,65.9-102.2,153.6-102.2,246.8
	c0,93.2,36.3,180.9,102.2,246.8c65.9,65.9,153.6,102.2,246.8,102.2s180.9-36.3,246.8-102.2c65.9-65.9,102.2-153.6,102.2-246.8
	c0-93.2-36.3-180.9-102.2-246.8C3873.6,7219.4,3785.9,7183.1,3692.7,7183.1z"/>
<path class="st0" d="M3610.2,7879.6h5.5v-161.7h-5.5V7879.6z M3736.7,7717.9v166.1h5.5v-166.1H3736.7z"/>
<path class="st0" d="M3627.6,7722.1h-29.7l3.6-17.9c-29.3-3.6-58-24.9-81-60.4c-21.1-32.6-34.2-73.3-34.2-106.2
	c0-68.4,55.6-124,124-124s124,55.6,124,124c0,32.8-13,73.3-34,105.8c-22.7,35.2-50.9,56.5-79.8,60.6L3627.6,7722.1z M3605.2,7716.1
	h13.5l-6.9-17.2l4-0.3c28.4-2.5,56.6-23.2,79.3-58.4c20.4-31.6,33-70.9,33-102.6c0-65.1-52.9-118-118-118c-65.1,0-118,52.9-118,118
	c0,31.8,12.8,71.3,33.3,103c22.9,35.3,51.2,55.9,79.8,58l3.4,0.3L3605.2,7716.1z"/>
<path class="st0" d="M3757.7,7722.1h-35.6l4.5-22.6c-37.4-4.2-74-31.2-103.4-76.6c-26.8-41.4-43.5-93-43.5-134.8
	c0-86.6,70.4-157,157-157s157,70.4,157,157c0,41.6-16.5,93-43.1,134.3c-29,45-65.1,72.1-102.1,77L3757.7,7722.1z M3729.4,7716.1
	h19.4l-8.8-22l4-0.3c36.5-3.1,72.5-29.7,101.5-74.7c26-40.3,42.2-90.5,42.2-131c0-83.3-67.7-151-151-151c-83.3,0-151,67.7-151,151
	c0,40.7,16.3,91.1,42.5,131.5c29.3,45.1,65.5,71.5,102.2,74.2l3.4,0.3L3729.4,7716.1z"/>
</svg>
