<?xml version="1.0" encoding="utf-8"?>
<!-- Generator: Adobe Illustrator 19.0.0, SVG Export Plug-In . SVG Version: 6.00 Build 0)  -->
<svg version="1.1" id="图层_1" xmlns="http://www.w3.org/2000/svg" xmlns:xlink="http://www.w3.org/1999/xlink" x="0px" y="0px"
	 viewBox="-5368.5 5554.1 714.7 714.7" style="enable-background:new -5368.5 5554.1 714.7 714.7;" xml:space="preserve">
<style type="text/css">
	.st0{fill:#2CA4D5;}
	.st1{fill:#FFFFFF;}
	.st2{fill:#BDBFBF;}
	.st3{fill:#BF4B3D;}
</style>
<path class="st0" d="M-5011.2,6268.7c-48.2,0-95-9.4-139.1-28.1c-42.6-18-80.8-43.8-113.6-76.6c-32.8-32.8-58.6-71-76.6-113.6
	c-18.6-44.1-28.1-90.9-28.1-139.1c0-48.2,9.4-95,28.1-139.1c18-42.6,43.8-80.8,76.6-113.6s71-58.6,113.6-76.6
	c44.1-18.6,90.9-28.1,139.1-28.1s95,9.4,139.1,28.1c42.6,18,80.8,43.8,113.6,76.6c32.8,32.8,58.6,71,76.6,113.6
	c18.6,44.1,28.1,90.9,28.1,139.1c0,48.2-9.4,95-28.1,139.1c-18,42.6-43.8,80.8-76.6,113.6c-32.8,32.8-71,58.6-113.6,76.6
	C-4916.1,6259.3-4962.9,6268.7-5011.2,6268.7z M-5011.2,5560.1c-93.8,0-182.1,36.5-248.4,102.9c-66.4,66.4-102.9,154.6-102.9,248.4
	c0,93.8,36.5,182.1,102.9,248.4c66.4,66.4,154.6,102.9,248.4,102.9s182.1-36.5,248.4-102.9c66.4-66.4,102.9-154.6,102.9-248.4
	c0-93.8-36.5-182.1-102.9-248.4C-4829.1,5596.6-4917.3,5560.1-5011.2,5560.1z"/>
<g>
	<path class="st1" d="M-5182.4,5767.8h342.4v325.9h-342.4V5767.8z"/>
	<path class="st0" d="M-4845.9,5773.8v313.9h-330.4v-313.9H-4845.9 M-4839.9,5767.8h-342.4v325.9h342.4V5767.8L-4839.9,5767.8z"/>
</g>
<g>
	<path class="st1" d="M-5160.1,5745.7h297.5l22.7,22h-342.5L-5160.1,5745.7z"/>
	<path class="st0" d="M-4865,5751.7l10.3,10h-313.1l10.2-10H-4865 M-4862.6,5745.7h-297.5l-22.3,22h342.5L-4862.6,5745.7
		L-4862.6,5745.7z"/>
</g>
<g>
	<path class="st0" d="M-4958.5,6096.7h-105.4v-243.5h105.4V6096.7z M-5057.9,6090.7h93.4v-231.5h-93.4V6090.7z M-4859,6080.1h-83.3
		v-226.9h83.3V6080.1z M-4936.4,6074.1h71.3v-214.9h-71.3V6074.1z M-5080,6080.1h-83.3v-226.9h83.3V6080.1z M-5157.3,6074.1h71.3
		v-214.9h-71.3V6074.1z"/>
</g>
<path class="st2" d="M-5179.2,5856.2h336.5v16.6h-336.5V5856.2z"/>
<path class="st1" d="M-4801.4,5822.9l-33.4-33.1h-353.2l-33,33.1h-0.1v22.1c0,6.1,4.9,11.1,11,11.1h397.7c6.1,0,11-5,11-11.1
	L-4801.4,5822.9L-4801.4,5822.9z"/>
<g>
	<path class="st1" d="M-4989.1,5916.9h-44.2c-6.1,0-11,5-11,11v16.6c0,6.1,4.9,11,11,11h44.2c6.1,0,11-5,11-11V5928
		C-4978,5921.9-4983,5916.9-4989.1,5916.9z M-4986.3,5944.5c0,1.5-1.2,2.8-2.8,2.8h-44.2c-1.5,0-2.8-1.2-2.8-2.8V5928
		c0-1.5,1.2-2.8,2.8-2.8h44.2c1.5,0,2.8,1.2,2.8,2.8V5944.5z"/>
	<path class="st0" d="M-4989.1,5958.6h-44.2c-7.7,0-14-6.3-14-14V5928c0-7.7,6.3-14,14-14h44.2c7.7,0,14,6.3,14,14v16.6
		C-4975,5952.3-4981.3,5958.6-4989.1,5958.6z M-5033.3,5919.9c-4.4,0-8,3.6-8,8v16.6c0,4.4,3.6,8,8,8h44.2c4.4,0,8-3.6,8-8V5928
		c0-4.4-3.6-8-8-8H-5033.3z M-4989.1,5950.3h-44.2c-3.2,0-5.8-2.6-5.8-5.8V5928c0-3.2,2.6-5.8,5.8-5.8h44.2c3.2,0,5.8,2.6,5.8,5.8
		v16.6C-4983.3,5947.7-4985.9,5950.3-4989.1,5950.3z M-5033,5944.3h43.7v-16.1h-43.7V5944.3z"/>
</g>
<g>
	<g>
		<path class="st1" d="M-4839.9,6027.4c-19.2,0-35,14-38.1,32.3c-4.1-2.9-9-4.7-14.4-4.7c-13.7,0-24.8,11.1-24.8,24.9
			c0,13.7,11.1,24.9,24.8,24.9c2,0,51,0,52.5,0c21.3,0,38.6-17.3,38.6-38.7C-4801.3,6044.7-4818.6,6027.4-4839.9,6027.4z"/>
		<path class="st0" d="M-4839.9,6107.7h-52.5c-15.3,0-27.8-12.5-27.8-27.9c0-15.4,12.5-27.9,27.8-27.9c4.3,0,8.6,1,12.4,3
			c4.9-17.9,21.1-30.6,40.1-30.6c23,0,41.6,18.7,41.6,41.7C-4798.3,6089-4817,6107.7-4839.9,6107.7z M-4892.4,6058
			c-12,0-21.8,9.8-21.8,21.9c0,12.1,9.8,21.9,21.8,21.9h52.5c19.6,0,35.6-16,35.6-35.7c0-19.7-16-35.7-35.6-35.7
			c-17.5,0-32.2,12.5-35.1,29.8l-0.8,4.8l-3.9-2.8C-4883.5,6059.4-4887.9,6058-4892.4,6058z"/>
	</g>
</g>
<g>
	<g>
		<path class="st1" d="M-5129.9,6055c-5.4,0-10.4,1.8-14.5,4.7c-3-18.3-18.9-32.3-38.1-32.3c-21.3,0-38.6,17.3-38.6,38.7
			c0,21.4,17.3,38.7,38.6,38.7c1.6,0,50.5,0,52.5,0c13.7,0,24.8-11.1,24.8-24.9C-5105.1,6066.1-5116.2,6055-5129.9,6055z"/>
		<path class="st0" d="M-5129.9,6107.7h-52.5c-23,0-41.6-18.7-41.6-41.7c0-23,18.7-41.7,41.6-41.7c19,0,35.2,12.6,40.1,30.6
			c3.9-2,8.1-3,12.4-3c15.3,0,27.8,12.5,27.8,27.9S-5114.5,6107.7-5129.9,6107.7z M-5182.4,6030.4c-19.7,0-35.6,16-35.6,35.7
			c0,19.7,16,35.7,35.6,35.7h52.5c12,0,21.8-9.8,21.8-21.9s-9.8-21.9-21.8-21.9c-4.5,0-8.9,1.4-12.7,4.2l-3.9,2.8l-0.8-4.8
			C-5150.2,6042.9-5164.9,6030.4-5182.4,6030.4z"/>
	</g>
</g>
<polygon class="st1" points="-4834.7,5789.9 -5187.9,5789.9 -5221,5822.9 -5221.1,5822.9 -5221.1,5823 -4801.3,5823 -4801.3,5822.9 
	-4801.4,5822.9 "/>
<g>
	<polygon class="st3" points="-5088.5,5823 -5066.4,5823 -5060.9,5789.9 -5083,5789.9 	"/>
	<rect x="-5000.1" y="5789.9" class="st3" width="22.1" height="33.1"/>
	<polygon class="st3" points="-5132.7,5823 -5110.6,5823 -5099.5,5789.9 -5121.6,5789.9 	"/>
	<polygon class="st3" points="-4884.1,5789.9 -4867.6,5823 -4845.5,5823 -4862,5789.9 	"/>
	<rect x="-5044.3" y="5789.9" class="st3" width="22.1" height="33.1"/>
	<polygon class="st3" points="-4845.5,5789.9 -4823.4,5823 -4801.3,5823 -4801.3,5822.9 -4801.4,5822.9 -4834.7,5789.9 	"/>
	<polygon class="st3" points="-4939.4,5789.9 -4961.5,5789.9 -4955.9,5823 -4933.8,5823 	"/>
	<polygon class="st3" points="-5176.9,5789.9 -5187.9,5789.9 -5221,5822.9 -5221,5822.9 -5221.1,5823 -5199,5823 	"/>
	<polygon class="st3" points="-4900.7,5789.9 -4922.8,5789.9 -4911.7,5823 -4889.7,5823 	"/>
	<polygon class="st3" points="-5154.8,5823 -5138.2,5789.9 -5154.8,5789.9 -5176.9,5823 	"/>
</g>
<g>
	<path class="st0" d="M-4958.5,5875.7h-105.4v-22.6h105.4V5875.7z M-5057.9,5869.7h93.4v-10.6h-93.4V5869.7z"/>
	<path class="st0" d="M-4859,5875.7h-83.3v-22.6h83.3V5875.7z M-4936.4,5869.7h71.3v-10.6h-71.3V5869.7z"/>
	<path class="st0" d="M-5080,5875.7h-83.3v-22.6h83.3V5875.7z M-5157.3,5869.7h71.3v-10.6h-71.3V5869.7z"/>
</g>
<g>
	<polygon class="st0" points="-5083,5789.9 -5088.5,5823 -5088.5,5856.1 -5066.4,5856.1 -5066.4,5823 -5060.9,5789.9 	"/>
	<polygon class="st0" points="-5121.6,5789.9 -5132.7,5823 -5132.7,5856.1 -5110.6,5856.1 -5110.6,5823 -5099.5,5789.9 	"/>
	<rect x="-5044.3" y="5789.9" class="st0" width="22.1" height="66.2"/>
	<polygon class="st0" points="-5154.8,5789.9 -5176.9,5823 -5176.9,5856.1 -5154.8,5856.1 -5154.8,5823 -5138.2,5789.9 	"/>
	<polygon class="st0" points="-4884.1,5789.9 -4867.6,5823 -4867.6,5856.1 -4845.5,5856.1 -4845.5,5823 -4862,5789.9 	"/>
	<path class="st0" d="M-4801.4,5822.9l-33.4-33h-10.7l22.1,33.1v33.1h11c6.1,0,11-5,11-11.1L-4801.4,5822.9L-4801.4,5822.9
		L-4801.4,5822.9z"/>
	<path class="st0" d="M-5210,5856.1h11V5823l22.1-33.1h-11.1l-33,33h0l-0.1,0.1v22C-5221.1,5851.1-5216.1,5856.1-5210,5856.1z"/>
	<rect x="-5000.1" y="5789.9" class="st0" width="22.1" height="66.2"/>
	<polygon class="st0" points="-4889.7,5856.1 -4889.7,5823 -4900.7,5789.9 -4922.8,5789.9 -4911.7,5823 -4911.7,5856.1 	"/>
	<polygon class="st0" points="-4933.8,5856.1 -4933.8,5823 -4939.4,5789.9 -4961.5,5789.9 -4955.9,5823 -4955.9,5856.1 	"/>
</g>
</svg>
