<?xml version="1.0" encoding="utf-8"?>
<!-- Generator: Adobe Illustrator 19.0.0, SVG Export Plug-In . SVG Version: 6.00 Build 0)  -->
<svg version="1.1" id="图层_1" xmlns="http://www.w3.org/2000/svg" xmlns:xlink="http://www.w3.org/1999/xlink" x="0px" y="0px"
	 viewBox="198.6 6612.7 710 710" style="enable-background:new 198.6 6612.7 710 710;" xml:space="preserve">
<style type="text/css">
	.st0{fill:#F85A56;}
</style>
<path class="st0" d="M553.6,7322.7c-47.9,0-94.4-9.4-138.2-27.9c-42.3-17.9-80.2-43.5-112.8-76.1c-32.6-32.6-58.2-70.6-76.1-112.8
	c-18.5-43.8-27.9-90.3-27.9-138.2c0-47.9,9.4-94.4,27.9-138.2c17.9-42.3,43.5-80.2,76.1-112.8c32.6-32.6,70.6-58.2,112.8-76.1
	c43.8-18.5,90.3-27.9,138.2-27.9c47.9,0,94.4,9.4,138.2,27.9c42.3,17.9,80.2,43.5,112.8,76.1c32.6,32.6,58.2,70.6,76.1,112.8
	c18.5,43.8,27.9,90.3,27.9,138.2c0,47.9-9.4,94.4-27.9,138.2c-17.9,42.3-43.5,80.2-76.1,112.8c-32.6,32.6-70.6,58.2-112.8,76.1
	C648,7313.3,601.5,7322.7,553.6,7322.7z M553.6,6618.7c-93.2,0-180.9,36.3-246.8,102.2s-102.2,153.6-102.2,246.8
	c0,93.2,36.3,180.9,102.2,246.8c65.9,65.9,153.6,102.2,246.8,102.2c93.2,0,180.9-36.3,246.8-102.2
	c65.9-65.9,102.2-153.6,102.2-246.8c0-93.2-36.3-180.9-102.2-246.8C734.4,6655,646.8,6618.7,553.6,6618.7z"/>
<path class="st0" d="M643,7198H464.1c-16,0-29.1-13-29.1-29.1v-402.4c0-16,13-29.1,29.1-29.1H643c16,0,29.1,13,29.1,29.1v402.4
	C672.1,7184.9,659,7198,643,7198z M464.1,6743.4c-12.7,0-23.1,10.4-23.1,23.1v402.4c0,12.7,10.4,23.1,23.1,23.1H643
	c12.7,0,23.1-10.4,23.1-23.1v-402.4c0-12.7-10.4-23.1-23.1-23.1H464.1z"/>
<path class="st0" d="M648.2,6813.5v308.4H459v-308.4H648.2 M654.2,6807.5H453v320.4h201.2V6807.5L654.2,6807.5z"/>
<g>
	<path class="st0" d="M577.8,6777.7h-48.4c-3.1,0-5.6,2.5-5.6,5.6c0,3.1,2.5,5.6,5.6,5.6h48.4c3.1,0,5.6-2.5,5.6-5.6
		C583.4,6780.2,580.9,6777.7,577.8,6777.7z M553.6,7142.8c-10.3,0-18.6,8.3-18.6,18.6c0,10.3,8.3,18.6,18.6,18.6
		c10.3,0,18.6-8.3,18.6-18.6C572.2,7151.2,563.8,7142.8,553.6,7142.8z"/>
	<path class="st0" d="M555.4,6755.3c3.1,0,5.6,2.5,5.6,5.6c0,3.1-2.5,5.6-5.6,5.6c-3.1,0-5.6-2.5-5.6-5.6
		C549.8,6757.8,552.3,6755.3,555.4,6755.3z"/>
</g>
<path class="st0" d="M553.6,6890.3c-42.8,0-77.4,34.7-77.4,77.4c0,42.8,34.7,77.4,77.4,77.4c42.8,0,77.4-34.7,77.4-77.4
	S596.3,6890.3,553.6,6890.3z M553.6,7030.6c-34.7,0-62.9-28.2-62.9-62.9s28.2-62.9,62.9-62.9c34.7,0,62.9,28.2,62.9,62.9
	S588.3,7030.6,553.6,7030.6z M558.3,6937c-2.6-4.3-6.9-4.3-9.5,0l-28,27.7c-2.6,4.3-0.5,7.8,4.8,7.8H539v24.3c0,2.7,2.2,4.8,4.8,4.8
	h19.4c2.7,0,4.8-2.2,4.8-4.8v-24.3h13.5c5.3,0,7.4-3.5,4.8-7.8L558.3,6937z"/>
</svg>
