<?xml version="1.0" encoding="utf-8"?>
<!-- Generator: Adobe Illustrator 19.0.0, SVG Export Plug-In . SVG Version: 6.00 Build 0)  -->
<svg version="1.1" id="图层_1" xmlns="http://www.w3.org/2000/svg" xmlns:xlink="http://www.w3.org/1999/xlink" x="0px" y="0px"
	 viewBox="-3801.7 5585.5 718.2 718.2" style="enable-background:new -3801.7 5585.5 718.2 718.2;" xml:space="preserve">
<style type="text/css">
	.st0{fill:#EFC84A;}
	.st1{opacity:0.45;fill:#EFC84A;}
	.st2{fill:#DF5A48;}
	.st3{fill:#FFFFFF;}
	.st4{fill:#EEEFEF;}
</style>
<path class="st0" d="M-3442.6,6303.7c-48.5,0-95.5-9.5-139.8-28.2c-42.8-18.1-81.2-44-114.1-77c-33-33-58.9-71.4-77-114.1
	c-18.7-44.3-28.2-91.3-28.2-139.8c0-48.5,9.5-95.5,28.2-139.8c18.1-42.8,44-81.2,77-114.1c33-33,71.4-58.9,114.1-77
	c44.3-18.7,91.3-28.2,139.8-28.2s95.5,9.5,139.8,28.2c42.8,18.1,81.2,44,114.1,77c33,33,58.9,71.4,77,114.1
	c18.7,44.3,28.2,91.3,28.2,139.8s-9.5,95.5-28.2,139.8c-18.1,42.8-44,81.2-77,114.1c-33,33-71.4,58.9-114.1,77
	C-3347.1,6294.2-3394.1,6303.7-3442.6,6303.7z M-3442.6,5591.5c-94.3,0-183,36.7-249.7,103.4c-66.7,66.7-103.4,155.4-103.4,249.7
	c0,94.3,36.7,183,103.4,249.7c66.7,66.7,155.4,103.4,249.7,103.4s183-36.7,249.7-103.4c66.7-66.7,103.4-155.4,103.4-249.7
	s-36.7-183-103.4-249.7C-3259.6,5628.2-3348.3,5591.5-3442.6,5591.5z"/>
<path class="st1" d="M-3623.3,6251.5c53,31.3,114.7,49.3,180.7,49.3c66,0,127.7-18,180.7-49.3l-86.1-301.3h-189.2L-3623.3,6251.5z"
	/>
<path class="st2" d="M-3442.6,5883.4c144.4,0,261.5,37.4,261.5,83.5c0,46.1-117.1,83.5-261.5,83.5c-144.4,0-261.5-37.4-261.5-83.5
	C-3704.1,5920.8-3587.1,5883.4-3442.6,5883.4z"/>
<path class="st0" d="M-3306.6,5886c-38-8.6-85-13.7-136-13.7c-50.8,0-97.6,5.1-135.5,13.6c-56.2,12.7-92.6,33-92.6,55.9
	c0,38.4,102.1,69.6,228.1,69.6c126,0,228.1-31.1,228.1-69.6C-3214.5,5919-3250.7,5898.7-3306.6,5886z M-3442.6,5980.5
	c-98.7,0-178.8-17.3-178.8-38.6c0-9.6,16.1-18.3,42.8-25.1c32.8-8.3,81.6-13.6,136-13.6c53.9,0,102.3,5.2,135.1,13.3
	c27.2,6.8,43.7,15.6,43.7,25.3C-3263.8,5963.2-3343.9,5980.5-3442.6,5980.5z"/>
<g>
	<path class="st3" d="M-3442.6,5799.9c70.7,0,122.8,57.5,128,128c0.7,11.4-57.3,22.3-128,22.3c-70.7,0-127.8-12.4-128-22.3
		C-3570.6,5857.2-3513.3,5799.9-3442.6,5799.9z"/>
	<path class="st0" d="M-3442.6,5953.2c-32.9,0-65.2-2.7-91-7.5c-39.8-7.5-40-15.2-40-17.7c0-72.3,58.8-131,131-131
		c34.4,0,66.6,13.7,90.7,38.5c23.4,24.1,37.7,56.8,40.3,92.3c0.1,2-0.6,3.9-2.3,5.7C-3324.6,5944.7-3379.9,5953.2-3442.6,5953.2z
		 M-3567.6,5927.8c0.5,1.6,8.2,7.1,36.7,12.3c25.2,4.6,56.5,7.1,88.3,7.1c66.4,0,116.2-9.3,124.3-17.9c0.5-0.6,0.7-1,0.7-1.1
		c-2.5-34-16.2-65.5-38.6-88.5c-23-23.6-53.6-36.6-86.4-36.6C-3511.5,5802.9-3567.6,5859-3567.6,5927.8z"/>
</g>
<path class="st4" d="M-3437.1,5816.6c2,0-38.5,45.9-39,111.3c-38.7-2.2-55.5-3.6-55.6-10.9
	C-3531.7,5864.6-3489.3,5816.6-3437.1,5816.6z"/>
<path class="st0" d="M-3197.8,5802.7L-3197.8,5802.7c0,0-32.4-0.6-34.8-4.5c-2.4-4,8.9-16.8,8.9-16.8s-12.9,11.3-16.8,8.9
	c-4-2.4-4.5-34.8-4.5-34.8s-0.6,32.4-4.5,34.8c-4,2.4-16.8-8.9-16.8-8.9s11.3,12.9,8.8,16.8l-34.8,4.5v0c0,0,32.4,0.6,34.8,4.5
	c2.4,4-8.9,16.8-8.9,16.8s12.9-11.3,16.8-8.8c4,2.4,4.5,34.8,4.5,34.8s0.6-32.4,4.5-34.8l16.8,8.9c0,0-11.3-12.9-8.9-16.8
	L-3197.8,5802.7z M-3624.4,5631.2c0,0-12.9,11.3-16.8,8.9c-4-2.4-4.5-34.8-4.5-34.8s-0.6,32.4-4.5,34.8c-4,2.4-16.8-8.9-16.8-8.9
	s11.3,12.9,8.9,16.8s-34.8,4.5-34.8,4.5v0c0,0,32.4,0.6,34.8,4.5c2.4,4-8.9,16.8-8.9,16.8s12.9-11.3,16.8-8.8
	c3.9,2.4,4.5,34.8,4.5,34.8s0.6-32.4,4.5-34.8c4-2.4,16.8,8.9,16.8,8.9s-11.3-12.9-8.9-16.8c2.4-3.9,34.8-4.5,34.8-4.5v0
	c0,0-32.4-0.6-34.8-4.5C-3635.7,5644-3624.4,5631.2-3624.4,5631.2z M-3615.2,5788.9c0,0-8.3,7.3-10.9,5.7
	c-2.6-1.6-2.9-22.5-2.9-22.5s-0.4,20.9-2.9,22.5c-2.6,1.6-10.9-5.7-10.9-5.7s7.3,8.3,5.7,10.9c-1.6,2.6-22.5,2.9-22.5,2.9v0
	c0,0,21,0.4,22.5,2.9c1.6,2.6-5.7,10.9-5.7,10.9s8.3-7.3,10.9-5.7c2.6,1.6,2.9,22.5,2.9,22.5s0.4-20.9,2.9-22.5
	c2.6-1.6,10.9,5.7,10.9,5.7s-7.3-8.3-5.7-10.9c1.6-2.6,22.5-2.9,22.5-2.9v0c0,0-21-0.4-22.5-2.9
	C-3622.5,5797.2-3615.2,5788.9-3615.2,5788.9z M-3381.5,5677.6c0,0-8.3,7.3-10.9,5.7c-2.6-1.6-2.9-22.5-2.9-22.5s-0.4,20.9-2.9,22.5
	c-2.6,1.6-10.9-5.7-10.9-5.7s7.3,8.3,5.7,10.9c-1.6,2.6-22.5,2.9-22.5,2.9v0c0,0,21,0.4,22.5,2.9c1.6,2.6-5.7,10.9-5.7,10.9
	s8.3-7.3,10.9-5.7c2.6,1.6,2.9,22.5,2.9,22.5s0.4-20.9,2.9-22.5c2.6-1.6,10.9,5.7,10.9,5.7s-7.3-8.3-5.7-10.9
	c1.6-2.6,22.5-2.9,22.5-2.9v0c0,0-21-0.4-22.5-2.9C-3388.8,5686-3381.5,5677.6-3381.5,5677.6z"/>
<path class="st0" d="M-3442.6,5950.2c-69.2,0-125.3-11.9-127.9-21.6c-0.1,1.6-0.1,3.3-0.1,4.9c0.2,9.9,57.3,22.3,128,22.3
	c70.7,0,128.7-10.8,128-22.3l-0.4-3.9C-3319.8,5940.4-3375.5,5950.2-3442.6,5950.2z"/>
</svg>
