<?xml version="1.0" encoding="utf-8"?>
<!-- Generator: Adobe Illustrator 19.0.0, SVG Export Plug-In . SVG Version: 6.00 Build 0)  -->
<svg version="1.1" id="图层_1" xmlns="http://www.w3.org/2000/svg" xmlns:xlink="http://www.w3.org/1999/xlink" x="0px" y="0px"
	 viewBox="-7696.4 4633.8 714.7 714.7" style="enable-background:new -7696.4 4633.8 714.7 714.7;" xml:space="preserve">
<style type="text/css">
	.st0{fill:#2993C0;}
	.st1{clip-path:url(#XMLID_71_);fill:#2993C0;}
</style>
<path id="XMLID_4_" class="st0" d="M-7339.1,5348.5c-48.2,0-95-9.4-139.1-28.1c-42.6-18-80.8-43.8-113.6-76.6
	c-32.8-32.8-58.6-71-76.6-113.6c-18.6-44.1-28.1-90.9-28.1-139.1c0-48.2,9.4-95,28.1-139.1c18-42.6,43.8-80.8,76.6-113.6
	s71-58.6,113.6-76.6c44.1-18.6,90.9-28.1,139.1-28.1c48.2,0,95,9.4,139.1,28.1c42.6,18,80.8,43.8,113.6,76.6
	c32.8,32.8,58.6,71,76.6,113.6c18.6,44.1,28.1,90.9,28.1,139.1c0,48.2-9.4,95-28.1,139.1c-18,42.6-43.8,80.8-76.6,113.6
	c-32.8,32.8-71,58.6-113.6,76.6C-7244.1,5339.1-7290.9,5348.5-7339.1,5348.5z M-7339.1,4639.8c-93.8,0-182.1,36.5-248.4,102.9
	c-66.4,66.4-102.9,154.6-102.9,248.4c0,93.8,36.5,182.1,102.9,248.4c66.4,66.4,154.6,102.9,248.4,102.9
	c93.8,0,182.1-36.5,248.4-102.9c66.4-66.4,102.9-154.6,102.9-248.4c0-93.8-36.5-182.1-102.9-248.4
	C-7157,4676.4-7245.3,4639.8-7339.1,4639.8z"/>
<path id="XMLID_8_" class="st0" d="M-7333.6,5224c-29,0-58.4-6.7-58.4-19.6c0-10.6,20-16.5,39.5-18.6l7.4-48.2
	c-62-5-117.4-40.1-148.7-94.4c-52-90.4-21.7-206.1,67.6-257.9c3-1.7,6.5-2.2,9.8-1.3c3.4,0.9,6.2,3.1,8,6.1
	c3.6,6.2,1.5,14.2-4.7,17.8c-76.9,44.6-103.1,144.3-58.2,222.2c21.8,38,57.1,65.1,99.2,76.4c41.5,11.1,84.7,5.5,121.6-15.9
	c3-1.7,6.5-2.2,9.8-1.3c3.4,0.9,6.2,3.1,8,6.1c3.6,6.2,1.5,14.2-4.7,17.8c-25.8,14.9-54.9,23.4-84.6,24.7l7.3,47.8
	c19.5,2.1,39.5,8,39.5,18.6C-7275.2,5217.2-7304.6,5224-7333.6,5224z M-7419.7,4789.4c-1.2,0-2.4,0.3-3.4,0.9
	c-86.5,50.1-115.8,162.1-65.4,249.7c30.8,53.5,85.8,87.8,147.1,91.7l3.3,0.2l-9.1,59.3l-2.3,0.2c-24.8,2.3-36.3,9-36.3,12.9
	c0,5.5,20.4,13.6,52.4,13.6c32,0,52.4-8.1,52.4-13.6c0-3.8-11.5-10.6-36.3-12.9l-2.3-0.2l-9.1-59.1l3.4-0.1
	c29.8-0.7,59.3-9.1,85.1-24.1c3.3-1.9,4.5-6.3,2.5-9.6l0,0c-1-1.7-2.5-2.8-4.3-3.3c-1.8-0.5-3.7-0.2-5.2,0.7
	c-38.3,22.2-83.1,28.1-126.1,16.5c-43.7-11.7-80.2-39.8-102.9-79.2c-46.5-80.8-19.4-184.2,60.4-230.4c3.3-1.9,4.5-6.3,2.5-9.6
	c-1-1.7-2.5-2.8-4.3-3.3C-7418.5,4789.5-7419.1,4789.4-7419.7,4789.4z"/>
<path id="XMLID_5_" class="st0" d="M-7328,5099.4c-84.1,0-152.5-68.4-152.5-152.5s68.4-152.5,152.5-152.5
	c84.1,0,152.5,68.4,152.5,152.5S-7244,5099.4-7328,5099.4z M-7328,4800.4c-80.8,0-146.5,65.7-146.5,146.5s65.7,146.5,146.5,146.5
	c80.8,0,146.5-65.7,146.5-146.5S-7247.3,4800.4-7328,4800.4z"/>
<g id="XMLID_1_">
	<defs>
		<path id="XMLID_3_" d="M-7328,4797.4c82.6,0,149.5,66.9,149.5,149.5c0,82.6-66.9,149.5-149.5,149.5
			c-82.6,0-149.5-66.9-149.5-149.5C-7477.5,4864.3-7410.6,4797.4-7328,4797.4z"/>
	</defs>
	<clipPath id="XMLID_71_">
		<use xlink:href="#XMLID_3_"  style="overflow:visible;"/>
	</clipPath>
	<path id="XMLID_9_" class="st1" d="M-7326.6,5071.7c-2.3,0-5.2-1.5-9.1-3.5c-2.6-1.4-5.5-2.9-7.3-3.3c-6.5-1.6-9.5-12.7-12.5-23.5
		c-0.8-3-1.6-5.7-2.3-7.9c-2.2-6.6-1.1-17.8,0.1-28.7c0.6-5.5,1.1-10.6,1.1-14.3c0-7-3-10.1-7.9-15.3c-1.7-1.7-3.5-3.7-5.5-6.1
		c-7.7-9.2-8.4-11.7-12.4-25.9l-0.9-3.2c-4.6-16.3-2.4-23,2.7-27.2c-3.2-2.2-12-5.7-15.7-7.1c-1-0.4-1.9-0.7-2.7-1
		c-6.6-2.6-13.1-7.2-21.2-13c-1.9-1.3-3.9-2.8-6-4.2c-8.1-5.7-12.2-13.6-15.5-19.9c-1.5-2.8-2.7-5.3-4.1-7l-0.2-0.2l-0.1-0.2
		c-4-8-3.1-16.7,2.6-25.3c8.4-12.6,27.4-25,52-33.9c24.4-8.8,50.9-13,72.5-11.4l0.7,0.1l0.6,0.4c3.5,2.2,8,5.6,6.8,9.9
		c-1.5,5.1-10.9,6.3-17.4,6.5c-2.2,3.8-8,12.6-15.7,12.6c-2.3,0-8,3.8-14.5,11c-6.4,7.1-11.7,15.3-13.6,21.4
		c-2.6,7.8-4.4,12.6-8.3,13c-3.7,0.4-6.2-3.4-9.6-9.2c-2-3.5-3.7-3.6-4.2-3.6c-3.6-0.2-9.4,4.8-17.2,15c-1.5,2-2,3.9-1.4,6
		c1.9,7.6,15.6,15.1,20.7,17.3l0.4,0.2l14.8,13.1c3.5-0.9,11.9-3.3,16.5-5.7c4.8-2.4,7.5,0.3,10.2,2.9c3.1,3,7.7,7.7,18.9,12.4
		c11.5,4.8,13.2,8.2,14.1,11.7c0.3,1.3,0.7,2.6,9.1,5.1l0,0c17.2,5.1,24.1,16.7,26.3,21.5h2.8l-8.2,16.6l-6.5,20l-1.4,0.5
		c-0.3,0.1-8,3.1-12,16.8c-3.6,12-10.7,17.3-17,22.1c-2.5,1.9-4.9,3.7-7,5.8c-5.8,5.8,2,20.9,6.2,29l0.9,1.7c0.7,1.4,2.4,4.8,0.2,7
		C-7324.6,5071.4-7325.5,5071.7-7326.6,5071.7z M-7375.8,4909.1c1.2,1.1,1.9,2.3,2,3.5c0.2,1.6-0.6,3.1-2.1,4.2
		c-2.7,1.9-6.5,4.4-1.7,21.6l0.9,3.2c3.9,14,4.3,15.4,11.2,23.6c1.9,2.2,3.6,4,5.3,5.8c5.3,5.6,9.6,10,9.6,19.4c0,4-0.5,9.3-1.1,15
		c-1,9.7-2.2,20.7-0.3,26.1c0.8,2.3,1.6,5.2,2.4,8.3c1.7,6,5.1,18.5,8.1,19.2c2.5,0.6,5.6,2.2,8.6,3.8c0.7,0.4,1.6,0.8,2.4,1.3
		c-5.2-10.2-13.5-26.7-4.8-35.5c2.4-2.4,5.1-4.4,7.7-6.4c6.1-4.6,11.8-8.9,14.8-19c3.9-13.3,11.2-18.4,14.3-20.1l5.9-17.9l5.6-11.3
		c-1.5-3.4-7.2-14-22.7-18.6l0,0c-10-3-12.1-5.3-13.2-9.4c-0.4-1.6-0.9-3.6-10.6-7.7c-12.3-5.2-17.7-10.5-20.8-13.7
		c-0.9-0.9-2.1-2-2.5-2.1c0,0-0.2,0-0.8,0.3C-7363,4905.6-7372.6,4908.2-7375.8,4909.1z M-7440.8,4857.1c1.6,2.2,3,4.8,4.5,7.7
		c3.2,6.1,6.7,13,13.6,17.8c2.1,1.5,4.1,2.9,6,4.2c7.8,5.6,14,10,20,12.3c0.8,0.3,1.7,0.7,2.6,1c3.5,1.4,6.6,2.6,9.1,3.7l-9.9-8.8
		c-3.5-1.6-20.8-10-23.6-21.1c-1-3.9-0.1-7.7,2.5-11.1c9.5-12.5,16.2-17.7,22.3-17.3c3.6,0.2,6.7,2.4,9.1,6.6
		c1.7,2.9,2.9,4.8,3.8,5.8c0.8-1.3,1.9-4.1,3.2-8.4c4.5-14,23.8-36.5,33.8-36.5c4.9,0,9.9-8.1,11.2-10.9l0.8-1.7l1.9,0
		c5.6,0,11.6-1,13.3-2.2c-0.3-0.5-1.2-1.4-3.4-2.8c-43.5-2.9-101.9,18.1-118.3,42.6C-7442.9,4844.8-7443.7,4851.2-7440.8,4857.1z
		 M-7233.3,4938.2c-0.1,0-0.1,0-0.2,0c-3.6-0.2-9-6.7-32.1-38.7c-6-8.4-11.7-16.3-15.1-20.4c-6.7-8.4-5.3-18.3-2-24.3
		c1-1.8,3.5-5.7,6.9-5.8c6.1-13.4,23.2-29.1,24-29.9l1.1-1l1.4,0.2c1.2,0.2,9.5,1.7,14.6,6.3c0.1,0,0.1-0.1,0.2-0.1
		c4.1-2.3,12.5,0.7,25,8.9c11.7,7.7,23.6,18,32.8,28.3c19.2,21.6,24.4,40.8,14.7,54.2c-6.2,8.5-41.1,19.7-41.4,19.8
		c-4.3,1.3-9.2,0.7-14,0c-5.6-0.7-10.8-1.4-13.3,1.3C-7231.3,4937.8-7232.3,4938.2-7233.3,4938.2z M-7276.4,4856.2
		c-0.9,1.2-1.9,3.1-2.5,5.6c-0.8,3.5-1,8.6,3,13.6c3.4,4.3,9.2,12.2,15.3,20.7c9.1,12.6,22.5,31.2,27.2,35.5
		c4.6-3.4,11.1-2.5,16.9-1.8c4.1,0.5,8.4,1.1,11.5,0.2c11.1-3.4,34.8-12.7,38.4-17.6c4.6-6.3,7.1-18-7.1-37.6
		c-8.1-11.2-20.4-23.1-33.8-32.8c-12.8-9.2-20.7-12.1-23.2-12.2c0,0.1,0.1,0.3,0.1,0.4c0,0,0,0,0,0c0,0,0,0,0,0l-5.7,1.8
		c-1.2-4.1-8.4-6.5-12.2-7.4c-4.2,4-19.1,18.8-22.5,29.5l-2.9,9.1L-7276.4,4856.2z"/>
</g>
</svg>
