<?xml version="1.0" encoding="utf-8"?>
<!-- Generator: Adobe Illustrator 19.0.0, SVG Export Plug-In . SVG Version: 6.00 Build 0)  -->
<svg version="1.1" id="图层_1" xmlns="http://www.w3.org/2000/svg" xmlns:xlink="http://www.w3.org/1999/xlink" x="0px" y="0px"
	 viewBox="-4629.4 4669.1 714.7 714.7" style="enable-background:new -4629.4 4669.1 714.7 714.7;" xml:space="preserve">
<style type="text/css">
	.st0{fill:#E09274;}
</style>
<path class="st0" d="M-4272.1,5383.8c-48.2,0-95-9.4-139.1-28.1c-42.6-18-80.8-43.8-113.6-76.6s-58.6-71-76.6-113.6
	c-18.6-44.1-28.1-90.9-28.1-139.1c0-48.2,9.4-95,28.1-139.1c18-42.6,43.8-80.8,76.6-113.6s71-58.6,113.6-76.6
	c44.1-18.6,90.9-28.1,139.1-28.1c48.2,0,95,9.4,139.1,28.1c42.6,18,80.8,43.8,113.6,76.6s58.6,71,76.6,113.6
	c18.6,44.1,28.1,90.9,28.1,139.1c0,48.2-9.4,95-28.1,139.1c-18,42.6-43.8,80.8-76.6,113.6c-32.8,32.8-71,58.6-113.6,76.6
	C-4177.1,5374.3-4223.8,5383.8-4272.1,5383.8z M-4272.1,4675.1c-93.8,0-182.1,36.5-248.4,102.9c-66.4,66.4-102.9,154.6-102.9,248.4
	s36.5,182.1,102.9,248.4s154.6,102.9,248.4,102.9c93.8,0,182.1-36.5,248.4-102.9c66.4-66.4,102.9-154.6,102.9-248.4
	c0-93.8-36.5-182.1-102.9-248.4C-4090,4711.7-4178.2,4675.1-4272.1,4675.1z"/>
<path class="st0" d="M-4343.2,5245.3c-2.7,0-5.4-0.4-8.1-1.1c-16.7-4.5-26.6-22.1-22.2-39.3l5.9-22.9c-14.8-7.9-27.8-17.4-38.7-28.3
	l-7.7,2c-9.6,2.4-19.5,1-28-4.1c-8.7-5.3-14.9-13.7-17.3-23.8l-8.3-34.2c-4.9-20.5,7.3-41.3,27.3-46.4l3.4-0.9
	c4.3-15.2,12-29.6,23-42.8c-11.1-15.8-27-41.2-19.4-48.5c16.2-14.9,45-11,69.1,9.1c29.7-15.5,64.4-23.7,100.5-23.7
	c97.7,0,177.3,60.3,177.3,134.5c0,41.8-25.1,79.9-68.9,104.8l6.9,25.9c2.2,8.1,1.1,16.5-3.2,23.8c-4.3,7.4-11.3,12.7-19.7,14.9
	c-17.1,4.4-34.8-5.6-39.3-22.5l-5.3-19.9c-15.5,3.1-31.5,4.7-47.7,4.7c-15,0-29.9-1.4-44.4-4.1l-4.8,18.9
	c-2.2,8.4-7.4,15.5-14.8,19.8C-4332.6,5243.9-4337.8,5245.3-4343.2,5245.3z M-4404.4,5147.1l1.2,1.2c11.1,11.4,24.8,21.4,40.5,29.5
	l2.1,1.1l-7.1,27.6c-3.6,14,4.5,28.3,18,32c6.4,1.7,13.1,0.8,18.9-2.5c6-3.5,10.3-9.2,12-16.1l6.3-24.4l2.8,0.6
	c15,3,30.4,4.5,46,4.5c16.7,0,33.3-1.7,49.2-5.2l2.8-0.6l6.7,25.4c3.7,13.6,18.1,21.8,32,18.2c6.8-1.8,12.6-6.1,16.1-12.1
	c3.4-5.9,4.3-12.7,2.6-19.2l-8.1-30.5l2.1-1.1c43.1-23.7,67.9-60.4,67.9-100.7c0-70.9-76.8-128.5-171.3-128.5
	c-35.9,0-70.3,8.3-99.5,24l-1.8,1l-1.6-1.4c-22.1-19.2-48.4-23.6-62.6-10.6c-1.4,1.4,1.1,14.1,21.5,42.5l1.4,1.9l-1.5,1.8
	c-11.6,13.5-19.6,28.3-23.7,43.9l-0.5,1.7l-6.8,1.7c-16.8,4.3-27.1,21.9-22.9,39.1l8.3,34.2c2.1,8.5,7.2,15.6,14.6,20.1
	c7.1,4.3,15.4,5.5,23.4,3.5L-4404.4,5147.1z"/>
<path class="st0" d="M-4380,5062.7c-9.3,0-16.8-7.6-16.8-16.8s7.6-16.8,16.8-16.8s16.8,7.6,16.8,16.8S-4370.8,5062.7-4380,5062.7z
	 M-4380,5035c-6,0-10.8,4.9-10.8,10.8s4.9,10.8,10.8,10.8c6,0,10.8-4.9,10.8-10.8S-4374.1,5035-4380,5035z M-4331.3,5001.7
	c-5.6,0-10.2-4.9-10.2-10.9c0-5.8,4.3-10.6,9.6-10.9c4.2-1.5,34.5-11.9,65.4-11.9c30.8,0,61.1,9.9,65.3,11.4
	c2.4,0.1,4.7,1.2,6.4,2.9c2.1,2.1,3.2,5,3.2,8c0,6-4.6,10.9-10.2,10.9c-1.8,0-3.6-0.5-5.1-1.5c-9.9-3.1-34.8-9.8-59.7-9.8
	c-24.7,0-49.4,7-59.3,10.2C-4327.6,5001.2-4329.4,5001.7-4331.3,5001.7z M-4331.3,4985.9c-2.3,0-4.2,2.2-4.2,4.9
	c0,2.7,1.9,4.9,4.2,4.9c0.8,0,1.6-0.3,2.2-0.8l0.4-0.3l0.5-0.2c9.9-3.2,35.7-10.7,61.6-10.7c26.1,0,51.9,7.2,61.9,10.2l0.4,0.1
	l0.4,0.3c0.5,0.3,1.2,0.7,2.1,0.7c2.3,0,4.2-2.2,4.2-4.9c0-1.4-0.5-2.8-1.5-3.7c-0.8-0.8-1.7-1.2-2.7-1.2h-0.5l-0.5-0.2
	c-0.3-0.1-32.3-11.2-63.8-11.2c-31.5,0-63.5,11.6-63.8,11.7l-0.5,0.2H-4331.3z"/>
<path class="st0" d="M-4266.6,4913.2c-41.3,0-75-33.6-75-75s33.6-75,75-75c41.3,0,75,33.6,75,75S-4225.2,4913.2-4266.6,4913.2z
	 M-4266.6,4769.2c-38,0-69,30.9-69,69s30.9,69,69,69s69-30.9,69-69S-4228.5,4769.2-4266.6,4769.2z"/>
<path class="st0" d="M-4262.5,4885.5h-8.1c-3.8,0-6-2.2-6-5.9v-5.4c-12.7-3.4-20.7-12.1-20.7-22.8c0-2.5,0.6-5.8,6-5.8h10
	c1.7,0,6.3,0,6.7,5.5c0,0.5,0.2,1.2,1.2,2.3c1.2,1.4,4.3,2.3,7.9,2.3c7.1,0,7.1-2.2,7.1-3.8c0-1.7-4.5-2.7-8.9-3.7
	c-2.2-0.5-4.6-1-7-1.8c-8.3-2.5-22.2-6.8-22.2-22.7c0-10.7,7.3-18.7,19.8-21.7v-5.2c0-3.7,2.2-5.9,6-5.9h8.1c3.8,0,6,2.2,6,5.9v5.6
	c11.8,3.1,18.8,10.6,18.8,20.4c0,5.2-3.4,5.8-6,5.8h-10.1c-3.8,0-5-3-5.4-4.2l-0.1-0.3c-0.2-0.6-0.4-1-1.4-1.9
	c-1.2-1.1-4.1-1.9-6.8-1.9c-1.9,0-6.1,0.7-6.1,2.8c0,1.6,4.3,3.5,12.9,5.8c1.8,0.5,3.3,0.9,4.4,1.3l0.4,0.1
	c7.5,2.2,20,5.9,20.1,21.4c0,11.9-7.6,20.3-20.6,23v5C-4256.5,4883.2-4258.8,4885.5-4262.5,4885.5z M-4270.6,4879.5
	C-4270.6,4879.5-4270.6,4879.5-4270.6,4879.5h8.1c0,0,0,0,0,0v-10.1l2.6-0.4c6.7-0.9,18-4.4,18-17.5c0-10.2-6.8-13-15.7-15.6
	l-0.8-0.2c-0.8-0.3-2.3-0.7-3.9-1.1c-7.3-1.9-17.4-4.5-17.4-11.6c0-6,6.3-8.8,12.1-8.8c3.4,0,8,0.9,10.8,3.5c1.5,1.3,2.3,2.5,3,4.1
	l0.2,0.4c0,0.1,0.1,0.2,0.1,0.4l9.8,0c-0.1-10.5-11.5-13.9-16.4-14.9l-2.4-0.5V4797c0,0,0,0,0,0h-8.1c0,0,0,0,0,0v10.1l-2.5,0.4
	c-5.2,0.9-17.3,4.3-17.3,16.3c0,9.7,6.3,13.4,17.9,17c2.2,0.7,4.4,1.2,6.6,1.7c6.7,1.5,13.5,3.1,13.5,9.6c0,6.5-4.4,9.8-13.1,9.8
	c-2.6,0-9-0.4-12.4-4.3c-1.6-1.8-2.5-3.7-2.7-5.8c0,0,0,0,0,0c-0.2,0-0.4,0-0.7,0h-10c0.1,10,9.5,15.5,18.3,17.3l2.4,0.5V4879.5z"/>
</svg>
