<?xml version="1.0" encoding="utf-8"?>
<!-- Generator: Adobe Illustrator 19.0.0, SVG Export Plug-In . SVG Version: 6.00 Build 0)  -->
<svg version="1.1" id="图层_1" xmlns="http://www.w3.org/2000/svg" xmlns:xlink="http://www.w3.org/1999/xlink" x="0px" y="0px"
	 viewBox="-738.3 -5899.3 710 710" style="enable-background:new -738.3 -5899.3 710 710;" xml:space="preserve">
<style type="text/css">
	.st0{fill:#62CBF4;}
</style>
<path class="st0" d="M-383.3-5189.3c-47.9,0-94.4-9.4-138.2-27.9c-42.3-17.9-80.2-43.5-112.8-76.1s-58.2-70.6-76.1-112.8
	c-18.5-43.8-27.9-90.3-27.9-138.2c0-47.9,9.4-94.4,27.9-138.2c17.9-42.3,43.5-80.2,76.1-112.8c32.6-32.6,70.6-58.2,112.8-76.1
	c43.8-18.5,90.3-27.9,138.2-27.9c47.9,0,94.4,9.4,138.2,27.9c42.3,17.9,80.2,43.5,112.8,76.1c32.6,32.6,58.2,70.6,76.1,112.8
	c18.5,43.8,27.9,90.3,27.9,138.2c0,47.9-9.4,94.4-27.9,138.2c-17.9,42.3-43.5,80.2-76.1,112.8c-32.6,32.6-70.6,58.2-112.8,76.1
	C-288.9-5198.7-335.4-5189.3-383.3-5189.3z M-383.3-5893.3c-93.2,0-180.9,36.3-246.8,102.2c-65.9,65.9-102.2,153.6-102.2,246.8
	c0,93.2,36.3,180.9,102.2,246.8c65.9,65.9,153.6,102.2,246.8,102.2c93.2,0,180.9-36.3,246.8-102.2
	c65.9-65.9,102.2-153.6,102.2-246.8c0-93.2-36.3-180.9-102.2-246.8S-290.1-5893.3-383.3-5893.3z"/>
<path class="st0" d="M-372.3-5340.6c-3.7,0-7.3-1.5-9.9-4.1l-20.3-20.3l-20.3,20.3c-2.6,2.7-6.1,4.1-9.9,4.1c-7.7,0-14-6.3-14-14
	c0-3.7,1.5-7.2,4.1-9.9l20.3-20.3l-20.3-20.3c-2.6-2.7-4.1-6.2-4.1-9.9l0,0c0-3.7,1.4-7.3,4.1-9.9c2.6-2.6,6.1-4.1,9.9-4.1
	c3.7,0,7.3,1.5,9.9,4.1l20.3,20.3l20.3-20.3c2.6-2.7,6.1-4.1,9.9-4.1c7.7,0,14,6.3,14,14c0,3.7-1.5,7.2-4.1,9.9l-20.3,20.3
	l20.3,20.3c2.6,2.6,4.1,6.2,4.1,9.9C-358.3-5346.8-364.6-5340.6-372.3-5340.6z M-402.5-5373.5l24.5,24.6c1.5,1.5,3.5,2.4,5.6,2.4
	c4.4,0,8-3.6,8-8c0-2.1-0.8-4.1-2.3-5.7l-24.5-24.6l24.5-24.6c1.5-1.5,2.3-3.5,2.3-5.7c0-4.4-3.6-8-8-8c-2.1,0-4.1,0.8-5.6,2.3
	l-24.5,24.6l-24.5-24.6c-1.5-1.5-3.5-2.4-5.6-2.4c-2.1,0-4.1,0.8-5.6,2.3c-1.5,1.5-2.3,3.5-2.3,5.7v0c0,2.1,0.8,4.1,2.4,5.7
	l24.5,24.6l-24.5,24.6c-1.5,1.5-2.3,3.5-2.3,5.7c0,4.4,3.6,8,8,8c2.1,0,4.1-0.8,5.6-2.3L-402.5-5373.5z M-593.9-5417.2
	c-5.1,0-10.4-2.5-13.8-6.5c-2.8-3.3-4-7.2-3.3-11.1c1.8-11.1,3.2-17.2,5.9-20.8c4.7-19,13.4-36.6,30-60.5
	c25-36.1,61.8-62.7,103.8-75c38.5-11.3,79.9-10.2,117.5,3l-14.4-23.7c-4.4-2.5-7.2-7.2-7.2-12.2c0-7.7,6.3-14,14-14h0
	c3.4,0,6.7,1.3,9.2,3.6l2-1.3l50.9,83.4l-3.7,2.3l1.4,2.5l-14.3,5.3l-7.3,4.5l-0.9-1.4l-64.4,24l-0.4-1.3c0,0,0,0,0,0
	c-7.7,0-14-6.3-14-14c0-6.8,4.8-12.6,11.5-13.7l28.9-11.3c-31.3-11.5-65.9-12.9-98.2-3.7c-35.2,10-66.2,32.2-87.1,62.4
	c-10.2,14.8-20.5,36.5-26.8,56.7l-0.4,1.3l-1.2,0.5C-577-5429.8-584.8-5417.2-593.9-5417.2z M-417.3-5592.9
	c-17.7,0-35.4,2.5-52.5,7.5c-40.7,11.9-76.4,37.7-100.6,72.7c-16.3,23.5-24.7,40.7-29.2,59.1l-0.2,0.7l-0.5,0.6
	c-2,2.3-3.3,8.5-5,18.4c-0.4,2.7,0.8,4.9,2,6.2c2.3,2.7,5.9,4.4,9.3,4.4c5.3,0,11.6-10,11.7-16.4l-0.4-2.6l2.6-1.2
	c6.6-20.7,16.7-41.9,27.2-57c21.7-31.4,53.8-54.4,90.4-64.7c36.1-10.2,74.8-7.9,109.2,6.7l6.8,2.9l-43.5,17l-0.3,0
	c-3.9,0.6-6.8,3.9-6.8,7.9c0,4.4,3.6,8,8,8c0.5,0,1.1-0.1,1.6-0.2l2.7-0.6l0,0.1l63-23.5l0.3,0.5l2.7-1.6l8.2-3.1l-0.8-1.4l3.6-2.2
	l-44.5-73l-1.3,0.8l-1.7-2.2c-1.5-2-3.9-3.2-6.3-3.2c-4.4,0-8,3.6-8,8c0,3.1,1.8,5.9,4.6,7.2l0.8,0.4l24.6,40.4l-8.4-3.4
	C-370.1-5588.4-393.7-5592.9-417.3-5592.9z M-205-5467.1c-27.4,0-49.6-22.3-49.6-49.8c0-27.4,22.3-49.8,49.6-49.8
	c27.4,0,49.6,22.3,49.6,49.8C-155.4-5489.4-177.6-5467.1-205-5467.1z M-205-5560.6c-24.1,0-43.6,19.6-43.6,43.8s19.6,43.8,43.6,43.8
	s43.6-19.6,43.6-43.8S-180.9-5560.6-205-5560.6z M-205-5489.1c-15.3,0-27.7-12.4-27.7-27.8c0-15.3,12.4-27.8,27.7-27.8
	c15.3,0,27.7,12.4,27.7,27.8C-177.3-5501.5-189.7-5489.1-205-5489.1z M-205-5538.6c-12,0-21.7,9.8-21.7,21.8
	c0,12,9.7,21.8,21.7,21.8c12,0,21.7-9.8,21.7-21.8C-183.3-5528.8-193-5538.6-205-5538.6z M-487.5-5659.6c-3.7,0-7.2-1.5-9.9-4.1
	l-20.3-20.3l-20.3,20.3c-2.6,2.6-6.1,4.1-9.9,4.1c-7.7,0-14-6.3-14-14c0-3.7,1.5-7.3,4.1-9.9l20.3-20.3l-20.3-20.3
	c-2.6-2.6-4.1-6.2-4.1-9.9c0-7.7,6.3-14,14-14c3.7,0,7.3,1.5,9.9,4.1l20.3,20.3l20.3-20.3c2.6-2.6,6.2-4.1,9.9-4.1
	c7.7,0,14,6.3,14,14c0,3.7-1.5,7.3-4.1,9.9l-20.3,20.3l20.3,20.3c2.6,2.6,4.1,6.2,4.1,9.9C-473.5-5665.8-479.8-5659.6-487.5-5659.6z
	 M-517.7-5692.5l24.5,24.6c1.5,1.5,3.5,2.3,5.6,2.3c4.4,0,8-3.6,8-8c0-2.1-0.8-4.1-2.3-5.7l-24.5-24.6l24.5-24.6
	c1.5-1.5,2.3-3.5,2.3-5.7c0-4.4-3.6-8-8-8c-2.1,0-4.1,0.8-5.6,2.3l-24.5,24.6l-24.5-24.6c-1.5-1.5-3.5-2.3-5.6-2.3c-4.4,0-8,3.6-8,8
	c0,2.1,0.8,4.1,2.3,5.7l24.5,24.6l-24.5,24.6c-1.5,1.5-2.3,3.5-2.3,5.7c0,4.4,3.6,8,8,8c2.1,0,4.1-0.8,5.6-2.3L-517.7-5692.5z"/>
</svg>
