<?xml version="1.0" encoding="utf-8"?>
<!-- Generator: Adobe Illustrator 19.0.0, SVG Export Plug-In . SVG Version: 6.00 Build 0)  -->
<svg version="1.1" id="图层_1" xmlns="http://www.w3.org/2000/svg" xmlns:xlink="http://www.w3.org/1999/xlink" x="0px" y="0px"
	 viewBox="-6900.7 5515.3 714.7 714.7" style="enable-background:new -6900.7 5515.3 714.7 714.7;" xml:space="preserve">
<style type="text/css">
	.st0{fill:#E27C3F;}
	.st1{clip-path:url(#SVGID_2_);fill:#E27C3F;}
	.st2{fill:#FFFFFF;}
	.st3{fill:#D5753A;}
</style>
<path class="st0" d="M-6543.3,6230c-48.2,0-95-9.4-139.1-28.1c-42.6-18-80.8-43.8-113.6-76.6s-58.6-71-76.6-113.6
	c-18.6-44.1-28.1-90.9-28.1-139.1c0-48.2,9.4-95,28.1-139.1c18-42.6,43.8-80.8,76.6-113.6s71-58.6,113.6-76.6
	c44.1-18.6,90.9-28.1,139.1-28.1c48.2,0,95,9.4,139.1,28.1c42.6,18,80.8,43.8,113.6,76.6s58.6,71,76.6,113.6
	c18.6,44.1,28.1,90.9,28.1,139.1c0,48.2-9.4,95-28.1,139.1c-18,42.6-43.8,80.8-76.6,113.6s-71,58.6-113.6,76.6
	C-6448.3,6220.5-6495.1,6230-6543.3,6230z M-6543.3,5521.3c-93.8,0-182.1,36.5-248.4,102.9c-66.4,66.4-102.9,154.6-102.9,248.4
	c0,93.8,36.5,182.1,102.9,248.4c66.4,66.4,154.6,102.9,248.4,102.9c93.8,0,182.1-36.5,248.4-102.9
	c66.4-66.4,102.9-154.6,102.9-248.4c0-93.8-36.5-182.1-102.9-248.4C-6361.3,5557.8-6449.5,5521.3-6543.3,5521.3z"/>
<g>
	<defs>
		<path id="SVGID_1_" d="M-6543.3,5518.3c195.7,0,354.3,158.6,354.3,354.3c0,195.7-158.6,354.3-354.3,354.3
			c-195.7,0-354.3-158.6-354.3-354.3C-6897.7,5676.9-6739,5518.3-6543.3,5518.3z"/>
	</defs>
	<clipPath id="SVGID_2_">
		<use xlink:href="#SVGID_1_"  style="overflow:visible;"/>
	</clipPath>
	<path class="st1" d="M-6720.5,6227h11.1v-332.2h-11.1V6227z M-6676.2,6227h11.1v-326.6h-11.1V6227z M-6631.9,6227h11.1v-321.1
		h-11.1V6227z M-6465.8,6227h11.1v-321.1h-11.1V6227z M-6421.5,6227h11.1v-326.6h-11.1V6227z M-6377.2,5894.8V6227h11.1v-332.2
		H-6377.2z"/>
</g>
<g>
	<path class="st2" d="M-6460.3,5867.1c-6.1,0-11.1,5-11.1,11.1v22.1c0,6.1,5,11.1,11.1,11.1s11.1-5,11.1-11.1v-22.1
		C-6449.2,5872.1-6454.2,5867.1-6460.3,5867.1z M-6416,5867.1c-6.1,0-11.1,5-11.1,11.1v16.6c0,6.1,5,11.1,11.1,11.1
		c6.1,0,11.1-5,11.1-11.1v-16.6C-6404.9,5872.1-6409.9,5867.1-6416,5867.1z M-6371.7,5867.1c-6.1,0-11.1,5-11.1,11.1v11.1
		c0,6.1,5,11.1,11.1,11.1c6.1,0,11.1-5,11.1-11.1v-11.1C-6360.6,5872.1-6365.6,5867.1-6371.7,5867.1z M-6626.4,5867.1
		c-6.1,0-11.1,5-11.1,11.1v22.1c0,6.1,5,11.1,11.1,11.1c6.1,0,11.1-5,11.1-11.1v-22.1C-6615.3,5872.1-6620.3,5867.1-6626.4,5867.1z
		 M-6670.7,5867.1c-6.1,0-11.1,5-11.1,11.1v16.6c0,6.1,5,11.1,11.1,11.1s11.1-5,11.1-11.1v-16.6
		C-6659.6,5872.1-6664.6,5867.1-6670.7,5867.1z M-6715,5867.1c-6.1,0-11.1,5-11.1,11.1v11.1c0,6.1,5,11.1,11.1,11.1
		s11.1-5,11.1-11.1v-11.1C-6703.9,5872.1-6708.9,5867.1-6715,5867.1z"/>
	<path class="st0" d="M-6460.3,5914.4c-7.8,0-14.1-6.3-14.1-14.1v-22.1c0-7.8,6.3-14.1,14.1-14.1s14.1,6.3,14.1,14.1v22.1
		C-6446.2,5908.1-6452.5,5914.4-6460.3,5914.4z M-6460.3,5870.1c-4.5,0-8.1,3.6-8.1,8.1v22.1c0,4.5,3.6,8.1,8.1,8.1s8.1-3.6,8.1-8.1
		v-22.1C-6452.2,5873.7-6455.8,5870.1-6460.3,5870.1z M-6626.4,5914.4c-7.8,0-14.1-6.3-14.1-14.1v-22.1c0-7.8,6.3-14.1,14.1-14.1
		s14.1,6.3,14.1,14.1v22.1C-6612.3,5908.1-6618.6,5914.4-6626.4,5914.4z M-6626.4,5870.1c-4.5,0-8.1,3.6-8.1,8.1v22.1
		c0,4.5,3.6,8.1,8.1,8.1c4.5,0,8.1-3.6,8.1-8.1v-22.1C-6618.3,5873.7-6621.9,5870.1-6626.4,5870.1z M-6416,5908.9
		c-7.8,0-14.1-6.3-14.1-14.1v-16.6c0-7.8,6.3-14.1,14.1-14.1s14.1,6.3,14.1,14.1v16.6C-6401.9,5902.5-6408.2,5908.9-6416,5908.9z
		 M-6416,5870.1c-4.5,0-8.1,3.6-8.1,8.1v16.6c0,4.5,3.6,8.1,8.1,8.1c4.5,0,8.1-3.6,8.1-8.1v-16.6
		C-6407.9,5873.7-6411.6,5870.1-6416,5870.1z M-6670.7,5908.9c-7.8,0-14.1-6.3-14.1-14.1v-16.6c0-7.8,6.3-14.1,14.1-14.1
		s14.1,6.3,14.1,14.1v16.6C-6656.6,5902.5-6662.9,5908.9-6670.7,5908.9z M-6670.7,5870.1c-4.5,0-8.1,3.6-8.1,8.1v16.6
		c0,4.5,3.6,8.1,8.1,8.1c4.5,0,8.1-3.6,8.1-8.1v-16.6C-6662.6,5873.7-6666.2,5870.1-6670.7,5870.1z M-6371.7,5903.3
		c-7.8,0-14.1-6.3-14.1-14.1v-11.1c0-7.8,6.3-14.1,14.1-14.1s14.1,6.3,14.1,14.1v11.1C-6357.6,5897-6364,5903.3-6371.7,5903.3z
		 M-6371.7,5870.1c-4.5,0-8.1,3.6-8.1,8.1v11.1c0,4.5,3.6,8.1,8.1,8.1c4.5,0,8.1-3.6,8.1-8.1v-11.1
		C-6363.6,5873.7-6367.3,5870.1-6371.7,5870.1z M-6715,5903.3c-7.8,0-14.1-6.3-14.1-14.1v-11.1c0-7.8,6.3-14.1,14.1-14.1
		s14.1,6.3,14.1,14.1v11.1C-6700.9,5897-6707.2,5903.3-6715,5903.3z M-6715,5870.1c-4.5,0-8.1,3.6-8.1,8.1v11.1
		c0,4.5,3.6,8.1,8.1,8.1s8.1-3.6,8.1-8.1v-11.1C-6706.9,5873.7-6710.5,5870.1-6715,5870.1z"/>
</g>
<g>
	<path class="st2" d="M-6597.8,5999.4c-0.2,0-12,5.3-12,11.8c0,6.5,11.5,11.8,12,11.8c2.2,0,46.3,11.2,48.1,10.1
		c3.5-2.1,5.9-5.8,5.9-10.1c0-4.4-2.4-37.7-6-39.8C-6551.6,5982.3-6595.6,5999.4-6597.8,5999.4z"/>
	<path class="st0" d="M-6550,6036.3c-2.6,0-9.5-1.4-32.8-6.8c-6.9-1.6-14-3.3-15.1-3.4c0.1,0,0.1,0,0.2,0c-1.8,0-15-6.2-15-14.8
		c0-8.4,13.3-14.8,15-14.8c-0.1,0-0.2,0-0.3,0c1.3-0.3,9.8-3.3,17.3-6.1c30.2-11,30.7-10.7,32.5-9.7c1.5,0.8,3.6,2.1,5.9,21.3
		c1.1,9.4,1.7,18.9,1.7,21.1c0,5.2-2.8,10.1-7.3,12.7C-6548.6,6036-6549,6036.3-6550,6036.3z M-6597.2,6020.1
		c1.6,0.2,5.4,1.1,15.7,3.5c10.3,2.4,27.1,6.3,30.9,6.7c2.4-1.6,3.8-4.3,3.8-7.2c0-5.9-2.2-30.6-4.5-36.5
		c-4.6,1.2-18.2,6.1-27.5,9.5c-12.7,4.6-16.6,6-18.2,6.3c-2.9,1.2-9.8,5.5-9.8,8.9C-6606.8,6014.9-6599.4,6019.2-6597.2,6020.1z"/>
</g>
<g>
	<path class="st2" d="M-6488.9,5999.4c-2.2,0-46.2-17.1-48-16.1c-3.6,2-6,35.4-6,39.8c0,4.3,2.3,8.1,5.9,10.1
		c1.8,1.1,45.9-10.1,48.1-10.1c0.5,0,12-5.3,12-11.8C-6476.9,6004.7-6488.7,5999.4-6488.9,5999.4z"/>
	<path class="st0" d="M-6536.7,6036.3c-1,0-1.4-0.2-1.9-0.5c-4.5-2.7-7.3-7.5-7.3-12.7c0-2.2,0.6-11.7,1.7-21.1
		c2.2-19.2,4.4-20.5,5.9-21.3c1.8-1,2.2-1.3,32.5,9.7c7.5,2.7,16,5.8,17.3,6.1c-0.1,0-0.3,0-0.3,0c1.7,0,15,6.4,15,14.8
		c0,8.6-13.2,14.8-15,14.8c0,0,0.1,0,0.2,0c-1.1,0.1-8.2,1.8-15.1,3.4C-6527.1,6034.9-6534,6036.3-6536.7,6036.3z M-6535.4,5986.5
		c-2.2,6-4.5,30.7-4.5,36.5c0,2.9,1.4,5.6,3.8,7.2c3.8-0.3,20.6-4.3,30.9-6.7c10.3-2.4,14.2-3.3,15.7-3.5c2.2-0.9,9.6-5.2,9.6-8.9
		c0-3.4-6.9-7.7-9.8-8.9c-1.7-0.3-5.5-1.7-18.2-6.3C-6517.2,5992.6-6530.8,5987.7-6535.4,5986.5z"/>
</g>
<g>
	<path class="st2" d="M-6565.6,5817.5c-1.9-0.6-189.6,25.1-191.7,25.1c-10.3,0-18.6,8.5-18.6,19c0,10.5,8.3,19,18.6,19
		c2.2,0,190,25.9,191.9,25.2c7.2-2.6,12.4-35.9,12.4-44.2C-6553,5853.2-6558.3,5820-6565.6,5817.5z"/>
	<path class="st0" d="M-6565.3,5908.7c-3.5,0-21-2.1-136.2-17.7c-28.9-3.9-53.9-7.3-55.9-7.5c-11.9-0.1-21.5-9.9-21.5-22
		c0-12.1,9.6-21.9,21.5-22c2-0.2,27.3-3.6,56.5-7.5c134.4-18.1,135-17.9,136.3-17.4h0c10.3,3.5,14.7,41.2,14.7,46.9
		c0,4.5-1.3,15-3.6,24.9c-4,17.8-8.1,21.2-10.8,22.1C-6564.6,5908.7-6564.7,5908.7-6565.3,5908.7z M-6566.3,5820.5
		c-8,0.6-83.4,10.8-133.8,17.5c-47.8,6.4-56.4,7.6-57.2,7.6c-8.6,0-15.6,7.2-15.6,16c0,8.8,7,16,15.6,16c0.8,0,9.3,1.1,56.6,7.5
		c50.7,6.9,126.5,17.1,134.6,17.7c1.2-0.9,3.9-5.3,6.7-17.6c2.1-9.3,3.4-19.5,3.4-23.6c0-4.1-1.3-14.3-3.5-23.6
		C-6562.3,5825.7-6565.1,5821.4-6566.3,5820.5z"/>
</g>
<g>
	<path class="st2" d="M-6323.9,5842.4c-2.1,0-189.8-25.8-191.7-25.2c-7.4,2.5-12.7,35.8-12.7,44.2c0,8.3,5.2,41.7,12.4,44.3
		c1.9,0.7,189.8-25.3,191.9-25.3c10.3,0,18.6-8.5,18.6-19C-6305.3,5851-6313.6,5842.4-6323.9,5842.4z"/>
	<path class="st0" d="M-6515.8,5908.7c-0.6,0-0.8-0.1-1-0.1c-2.7-1-6.8-4.3-10.8-22.2c-2.2-9.9-3.6-20.4-3.6-25
		c0-5.8,4.4-43.5,14.7-47c1.3-0.4,1.9-0.6,136.2,17.5c29.2,3.9,54.5,7.3,56.5,7.5c11.8,0.1,21.5,9.9,21.5,22c0,12.1-9.6,22-21.5,22
		c-2,0.2-27,3.6-56,7.5C-6494.9,5906.6-6512.3,5908.7-6515.8,5908.7z M-6514.9,5820.3c-1.2,0.9-4,5.2-6.8,17.6
		c-2.2,9.3-3.5,19.5-3.5,23.6c0,4.1,1.3,14.3,3.4,23.6c2.8,12.4,5.5,16.7,6.7,17.7c8.2-0.6,83.9-10.9,134.5-17.7
		c47.4-6.4,55.8-7.5,56.7-7.5c8.6,0,15.6-7.2,15.6-16c0-8.8-7-16-15.6-16c-0.8,0-9.4-1.1-57.2-7.6
		C-6431.5,5831.1-6506.9,5820.9-6514.9,5820.3z"/>
</g>
<g>
	<path class="st2" d="M-6543.3,5684.4c24.5,0,44.3,37.9,44.3,61.7c0,23.9-19.8,314.8-44.3,314.8s-44.3-290.9-44.3-314.8
		C-6587.6,5722.3-6567.8,5684.4-6543.3,5684.4z"/>
	<path class="st0" d="M-6543.3,6063.9c-5.4,0-12-5.7-20.2-48.3c-4.8-24.9-9.5-59.6-14.1-102.9c-7.8-73.8-13-154-13-166.6
		c0-25.6,21.2-64.7,47.3-64.7s47.3,39.2,47.3,64.7c0,12.7-5.2,92.8-13,166.6c-4.6,43.3-9.3,77.9-14.1,102.9
		C-6531.3,6058.1-6537.9,6063.9-6543.3,6063.9z M-6543.3,5687.4c-9.9,0-20.4,7.5-28.8,20.5c-7.6,11.8-12.5,26.8-12.5,38.2
		c0,12.6,5.2,92.4,13,166c4.6,43.1,9.3,77.6,14,102.4c8.2,42.9,14,43.4,14.3,43.4s6.1-0.5,14.3-43.4c4.8-24.8,9.5-59.2,14-102.4
		c7.8-73.6,13-153.4,13-166C-6502.1,5723.5-6520.9,5687.4-6543.3,5687.4z"/>
</g>
<path class="st0" d="M-6543.3,5806.2c12.2,0,22.1,13.6,22.1,30.5s-9.9,30.5-22.1,30.5s-22.1-13.6-22.1-30.5
	S-6555.6,5806.2-6543.3,5806.2z"/>
<g>
	<path class="st2" d="M-6543.3,5829.6c8.5,0,16.2,3.9,22.1,10.1l0.1-1.6c0-17.3-9.9-31.3-22.1-31.3s-22.1,14-22.1,31.3l0.1,1.6
		C-6559.6,5833.4-6551.8,5829.6-6543.3,5829.6z"/>
	<path class="st0" d="M-6568.2,5847l-0.3-8.9c0-18.9,11.3-34.3,25.1-34.3s25.1,15.4,25.1,34.3l0,0.1l-0.3,8.8l-4.9-5.3
		c-5.5-5.9-12.6-9.2-19.9-9.2c-7.3,0-14.4,3.3-19.9,9.2L-6568.2,5847z M-6543.3,5809.8c-9.3,0-17.1,9.9-18.8,23
		c5.6-4.1,12.1-6.3,18.8-6.3c6.7,0,13.2,2.2,18.8,6.3C-6526.2,5819.7-6534,5809.8-6543.3,5809.8z"/>
</g>
<path class="st0" d="M-6521.2,5836.6c0-16.8-9.9-30.5-22.1-30.5v60.9C-6531.1,5867.1-6521.2,5853.5-6521.2,5836.6z"/>
<g>
	<path class="st2" d="M-6521.3,5839.7l0.1-1.6c0-17.3-9.9-31.3-22.1-31.3v22.8C-6534.8,5829.6-6527.1,5833.4-6521.3,5839.7z"/>
	<path class="st0" d="M-6518.5,5847l-4.9-5.3c-5.5-5.9-12.6-9.2-19.9-9.2c0,0,0,0,0,0l-3,0v-28.8h3c13.9,0,25.1,15.4,25.1,34.3
		l0,0.1L-6518.5,5847z M-6540.3,5826.7c5.6,0.5,11,2.6,15.8,6.1c-1.5-11.7-7.8-20.8-15.8-22.7V5826.7z"/>
</g>
<path class="st0" d="M-6543.3,5684.4c-24.5,0-44.3,37.9-44.3,61.7l0.1,4.7h2.8c13.2-3.6,27.1-5.5,41.4-5.5c14.3,0,28.2,2,41.4,5.5
	h2.8l0.1-4.7C-6499.1,5722.3-6518.9,5684.4-6543.3,5684.4z"/>
<path class="st3" d="M-6501.9,5750.8h2.8l0.1-2.6v-0.2l0-1.9c0-23.9-19.8-61.7-44.3-61.7v60.9
	C-6529,5745.3-6515.1,5747.3-6501.9,5750.8z"/>
<path class="st0" d="M-6583.1,5819.5c-46.9,5.9-172.5,23.1-174.2,23.1c-9.4,0-17,7.1-18.3,16.3l193.8-23.6
	C-6582.3,5829.8-6582.7,5824.6-6583.1,5819.5z"/>
<path class="st3" d="M-6504.8,5834.5l199.3,24.5c-1.2-9.3-8.9-16.5-18.3-16.5c-1.8,0-138.2-18.7-179.7-23.9
	C-6503.9,5823.7-6504.3,5829-6504.8,5834.5L-6504.8,5834.5z"/>
</svg>
