<?xml version="1.0" encoding="utf-8"?>
<!-- Generator: Adobe Illustrator 19.0.0, SVG Export Plug-In . SVG Version: 6.00 Build 0)  -->
<svg version="1.1" id="图层_1" xmlns="http://www.w3.org/2000/svg" xmlns:xlink="http://www.w3.org/1999/xlink" x="0px" y="0px"
	 viewBox="-6138 5548.5 714.7 714.7" style="enable-background:new -6138 5548.5 714.7 714.7;" xml:space="preserve">
<style type="text/css">
	.st0{fill:#DF5A48;}
	.st1{fill:#FFFFFF;}
	.st2{fill:#45B39C;}
</style>
<path class="st0" d="M-5780.7,6263.2c-48.2,0-95-9.4-139.1-28.1c-42.6-18-80.8-43.8-113.6-76.6s-58.6-71-76.6-113.6
	c-18.6-44.1-28.1-90.9-28.1-139.1s9.4-95,28.1-139.1c18-42.6,43.8-80.8,76.6-113.6s71-58.6,113.6-76.6
	c44.1-18.6,90.9-28.1,139.1-28.1c48.2,0,95,9.4,139.1,28.1c42.6,18,80.8,43.8,113.6,76.6c32.8,32.8,58.6,71,76.6,113.6
	c18.6,44.1,28.1,90.9,28.1,139.1s-9.4,95-28.1,139.1c-18,42.6-43.8,80.8-76.6,113.6c-32.8,32.8-71,58.6-113.6,76.6
	C-5685.6,6253.7-5732.4,6263.2-5780.7,6263.2z M-5780.7,5554.5c-93.8,0-182.1,36.5-248.4,102.9c-66.4,66.4-102.9,154.6-102.9,248.4
	c0,93.8,36.5,182.1,102.9,248.4c66.4,66.4,154.6,102.9,248.4,102.9s182.1-36.5,248.4-102.9c66.4-66.4,102.9-154.6,102.9-248.4
	s-36.5-182.1-102.9-248.4C-5598.6,5591.1-5686.8,5554.5-5780.7,5554.5z"/>
<path class="st0" d="M-5625.6,6119.2h-321.1c-10.8,0-19.6-8.8-19.6-19.6v-376.5c0-10.8,8.8-19.6,19.6-19.6h321.1
	c10.8,0,19.6,8.8,19.6,19.6v376.5C-5606,6110.4-5614.8,6119.2-5625.6,6119.2z M-5946.7,5709.5c-7.5,0-13.6,6.1-13.6,13.6v376.5
	c0,7.5,6.1,13.6,13.6,13.6h321.1c7.5,0,13.6-6.1,13.6-13.6v-376.5c0-7.5-6.1-13.6-13.6-13.6H-5946.7z"/>
<path class="st0" d="M-5658.8,6080.5h-254.7c-7.8,0-14.1-6.3-14.1-14.1v-310c0-7.8,6.3-14.1,14.1-14.1h254.7
	c7.8,0,14.1,6.3,14.1,14.1v310C-5644.8,6074.2-5651.1,6080.5-5658.8,6080.5z M-5913.5,5748.3c-4.5,0-8.1,3.6-8.1,8.1v310
	c0,4.5,3.6,8.1,8.1,8.1h254.7c4.5,0,8.1-3.6,8.1-8.1v-310c0-4.5-3.6-8.1-8.1-8.1H-5913.5z"/>
<g>
	<path class="st1" d="M-5703.1,5723.2h-27.7c0,0-16.7-9.4-16.6-16.6c-0.2-7.2-5-11.1-11.1-11.1h-55.4c-6.1,0-11,3.3-11.1,11.1
		l-16.6,16.6h-27.7c-9.2,0-16.6,7.4-16.6,16.6v11.1c0,9.2,7.4,16.6,16.6,16.6h166.1c9.2,0,16.6-7.4,16.6-16.6v-11.1
		C-5686.5,5730.6-5694,5723.2-5703.1,5723.2z"/>
	<path class="st0" d="M-5703.1,5770.4h-166.1c-10.8,0-19.6-8.8-19.6-19.6v-11.1c0-10.8,8.8-19.6,19.6-19.6h26.4l14.9-14.9
		c0.6-7.9,5.9-12.8,14-12.8h55.4c8.2,0,13.9,5.6,14.1,14l0,0.1l0,0.1c-0.1,3.4,8.1,9.9,14.4,13.6h26.9c10.8,0,19.6,8.8,19.6,19.6
		v11.1C-5683.5,5761.6-5692.3,5770.4-5703.1,5770.4z M-5869.2,5726.2c-7.5,0-13.6,6.1-13.6,13.6v11.1c0,7.5,6.1,13.6,13.6,13.6
		h166.1c7.5,0,13.6-6.1,13.6-13.6v-11.1c0-7.5-6.1-13.6-13.6-13.6h-28.5l-0.7-0.4c-3-1.7-18.2-10.6-18.1-19.2
		c-0.1-5.1-3.2-8.1-8.1-8.1h-55.4c-5.3,0-8,2.7-8.1,8.1l0,1.2l-18.4,18.4H-5869.2z"/>
</g>
<path class="st2" d="M-5891.4,5839.4h38.8v-38.8h-38.8V5839.4z M-5836,5800.7v11.1h155v-11.1H-5836z M-5836,5828.3h99.7v-11.1h-99.7
	V5828.3z"/>
<path class="st0" d="M-5891.4,5905.9h38.8v-38.8h-38.8V5905.9z M-5836,5867.1v11.1h155v-11.1H-5836z M-5836,5894.8h127.3v-11.1
	H-5836V5894.8z"/>
<path class="st2" d="M-5891.4,5972.3h38.8v-38.8h-38.8V5972.3z M-5836,5933.5v11.1h155v-11.1H-5836z M-5836,5961.2h99.7v-11.1h-99.7
	V5961.2z"/>
<path class="st2" d="M-5891.4,6038.7h38.8V6000h-38.8V6038.7z M-5836,6000v11.1h155V6000H-5836z M-5836,6027.7h127.3v-11.1H-5836
	V6027.7z"/>
</svg>
