<?xml version="1.0" encoding="utf-8"?>
<!-- Generator: Adobe Illustrator 19.0.0, SVG Export Plug-In . SVG Version: 6.00 Build 0)  -->
<svg version="1.1" id="图层_1" xmlns="http://www.w3.org/2000/svg" xmlns:xlink="http://www.w3.org/1999/xlink" x="0px" y="0px"
	 viewBox="-6929.5 4636.5 714.7 714.7" style="enable-background:new -6929.5 4636.5 714.7 714.7;" xml:space="preserve">
<style type="text/css">
	.st0{fill:#BD3E25;}
	.st1{fill:#00C3FF;}
	.st2{fill:#FFFFFF;}
	.st3{fill:#07FF00;}
</style>
<path class="st0" d="M-6572.2,5351.2c-48.2,0-95-9.4-139.1-28.1c-42.6-18-80.8-43.8-113.6-76.6c-32.8-32.8-58.6-71-76.6-113.6
	c-18.6-44.1-28.1-90.9-28.1-139.1c0-48.2,9.4-95,28.1-139.1c18-42.6,43.8-80.8,76.6-113.6c32.8-32.8,71-58.6,113.6-76.6
	c44.1-18.6,90.9-28.1,139.1-28.1c48.2,0,95,9.4,139.1,28.1c42.6,18,80.8,43.8,113.6,76.6c32.8,32.8,58.6,71,76.6,113.6
	c18.6,44.1,28.1,90.9,28.1,139.1c0,48.2-9.4,95-28.1,139.1c-18,42.6-43.8,80.8-76.6,113.6s-71,58.6-113.6,76.6
	C-6477.2,5341.8-6524,5351.2-6572.2,5351.2z M-6572.2,4642.5c-93.8,0-182.1,36.5-248.4,102.9c-66.4,66.4-102.9,154.6-102.9,248.4
	c0,93.8,36.5,182.1,102.9,248.4c66.4,66.4,154.6,102.9,248.4,102.9s182.1-36.5,248.4-102.9c66.4-66.4,102.9-154.6,102.9-248.4
	c0-93.8-36.5-182.1-102.9-248.4C-6390.1,4679.1-6478.3,4642.5-6572.2,4642.5z"/>
<path class="st1" d="M-6719.2,5174.2c-24.1,0-49.7-6.9-49.7-19.8v-266.6h99.8v266.6C-6669.1,5167.3-6694.9,5174.2-6719.2,5174.2z
	 M-6762.9,4893.8v260.6c0,5.8,16.6,13.8,43.7,13.8c27.3,0,44.1-8.1,44.1-13.8v-260.6H-6762.9z"/>
<g>
	<path class="st2" d="M-6719,4874c25.9,0,46.9,7.5,46.9,16.8c0,9.3-21,16.8-46.9,16.8c-25.9,0-46.9-7.5-46.9-16.8
		C-6765.9,4881.5-6744.9,4874-6719,4874z"/>
	<path class="st1" d="M-6719,4910.7c-24.2,0-49.9-7-49.9-19.8c0-12.9,25.7-19.8,49.9-19.8c24.2,0,49.9,7,49.9,19.8
		C-6669.1,4903.7-6694.8,4910.7-6719,4910.7z M-6719,4877c-27.2,0-43.9,8.1-43.9,13.8c0,5.8,16.7,13.8,43.9,13.8
		c27.2,0,43.9-8.1,43.9-13.8S-6691.8,4877-6719,4877z"/>
</g>
<path class="st3" d="M-6575.2,5174.2c-24.1,0-49.7-6.9-49.7-19.8v-211.2h99.8v211.2C-6525.1,5167.3-6550.9,5174.2-6575.2,5174.2z
	 M-6618.9,4949.2v205.2c0,5.8,16.6,13.8,43.7,13.8c27.3,0,44.1-8.1,44.1-13.8v-205.2H-6618.9z"/>
<g>
	<path class="st2" d="M-6575,4929.4c25.9,0,46.9,7.5,46.9,16.8c0,9.3-21,16.8-46.9,16.8s-46.9-7.5-46.9-16.8
		C-6621.9,4936.9-6600.9,4929.4-6575,4929.4z"/>
	<path class="st3" d="M-6575,4966c-24.2,0-49.9-7-49.9-19.8c0-12.9,25.7-19.8,49.9-19.8c24.2,0,49.9,7,49.9,19.8
		C-6525.1,4959.1-6550.8,4966-6575,4966z M-6575,4932.4c-27.2,0-43.9,8.1-43.9,13.8c0,5.8,16.7,13.8,43.9,13.8
		c27.2,0,43.9-8.1,43.9-13.8S-6547.8,4932.4-6575,4932.4z"/>
</g>
<path class="st0" d="M-6431.3,5174.2c-24.1,0-49.7-6.9-49.7-19.8v-321.7h99.8v321.7C-6381.2,5167.3-6407,5174.2-6431.3,5174.2z
	 M-6475,4838.7v315.7c0,3,4.4,6.5,11.6,9.1c8.5,3.1,19.9,4.8,32.1,4.8c27.3,0,44.1-8.1,44.1-13.8v-315.7H-6475z"/>
<g>
	<path class="st2" d="M-6431.1,4818.9c25.9,0,46.9,7.5,46.9,16.8c0,9.3-21,16.8-46.9,16.8s-46.9-7.5-46.9-16.8
		C-6478,4826.4-6457,4818.9-6431.1,4818.9z"/>
	<path class="st0" d="M-6431.1,4855.5c-24.2,0-49.9-7-49.9-19.8s25.7-19.8,49.9-19.8c24.2,0,49.9,7,49.9,19.8
		S-6406.9,4855.5-6431.1,4855.5z M-6431.1,4821.9c-27.2,0-43.9,8.1-43.9,13.8s16.7,13.8,43.9,13.8c27.2,0,43.9-8.1,43.9-13.8
		S-6403.9,4821.9-6431.1,4821.9z"/>
</g>
</svg>
