<?xml version="1.0" encoding="utf-8"?>
<!-- Generator: Adobe Illustrator 19.0.0, SVG Export Plug-In . SVG Version: 6.00 Build 0)  -->
<svg version="1.1" id="图层_1" xmlns="http://www.w3.org/2000/svg" xmlns:xlink="http://www.w3.org/1999/xlink" x="0px" y="0px"
	 viewBox="-3873.5 4696.5 714 714" style="enable-background:new -3873.5 4696.5 714 714;" xml:space="preserve">
<style type="text/css">
	.st0{fill:#EFC84A;}
	.st1{clip-path:url(#SVGID_2_);fill:#EFC84A;}
	.st2{fill:#FFFFFF;}
</style>
<path class="st0" d="M-3516.2,5411.3c-48.2,0-95-9.4-139.1-28.1c-42.6-18-80.8-43.8-113.6-76.6c-32.8-32.8-58.6-71-76.6-113.6
	c-18.6-44.1-28.1-90.9-28.1-139.1s9.4-95,28.1-139.1c18-42.6,43.8-80.8,76.6-113.6c32.8-32.8,71-58.6,113.6-76.6
	c44.1-18.6,90.9-28.1,139.1-28.1c48.2,0,95,9.4,139.1,28.1c42.6,18,80.8,43.8,113.6,76.6c32.8,32.8,58.6,71,76.6,113.6
	c18.6,44.1,28.1,90.9,28.1,139.1c0,48.2-9.4,95-28.1,139.1c-18,42.6-43.8,80.8-76.6,113.6c-32.8,32.8-71,58.6-113.6,76.6
	C-3421.2,5401.8-3468,5411.3-3516.2,5411.3z M-3516.2,4702.6c-93.8,0-182.1,36.5-248.4,102.9c-66.4,66.4-102.9,154.6-102.9,248.4
	c0,93.8,36.5,182.1,102.9,248.4c66.4,66.4,154.6,102.9,248.4,102.9c93.8,0,182.1-36.5,248.4-102.9
	c66.4-66.4,102.9-154.6,102.9-248.4c0-93.8-36.5-182.1-102.9-248.4C-3334.1,4739.1-3422.4,4702.6-3516.2,4702.6z"/>
<g>
	<g>
		<g>
			<defs>
				<circle id="SVGID_1_" cx="-3516.2" cy="5053.9" r="354.3"/>
			</defs>
			<clipPath id="SVGID_2_">
				<use xlink:href="#SVGID_1_"  style="overflow:visible;"/>
			</clipPath>
			<path class="st1" d="M-3142.3,5422.3h-742.3V5217h742.3V5422.3z M-3878.6,5416.3h730.3V5223h-730.3V5416.3z"/>
		</g>
	</g>
</g>
<g>
	<path class="st2" d="M-3676.8,5081.6h321.1c6.1,0,11.1,5,11.1,11.1v143.9c0,6.1-5,11.1-11.1,11.1h-321.1c-6.1,0-11.1-5-11.1-11.1
		v-143.9C-3687.8,5086.6-3682.9,5081.6-3676.8,5081.6z"/>
	<path class="st0" d="M-3355.7,5250.7h-321.1c-7.8,0-14.1-6.3-14.1-14.1v-143.9c0-7.8,6.3-14.1,14.1-14.1h321.1
		c7.8,0,14.1,6.3,14.1,14.1v143.9C-3341.6,5244.4-3347.9,5250.7-3355.7,5250.7z M-3676.8,5084.6c-4.5,0-8.1,3.6-8.1,8.1v143.9
		c0,4.5,3.6,8.1,8.1,8.1h321.1c4.5,0,8.1-3.6,8.1-8.1v-143.9c0-4.5-3.6-8.1-8.1-8.1H-3676.8z"/>
</g>
<g>
	<path class="st2" d="M-3388.9,4876.8h-254.7c-6.1,0-11.1,5-11.1,11.1v155c0,6.1,5,11.1,11.1,11.1h110.7v16.6h-11.1v11.1h55.4v-11.1
		h-11.1v-16.6h110.7c6.1,0,11.1-5,11.1-11.1v-155C-3377.8,4881.7-3382.8,4876.8-3388.9,4876.8z"/>
	<path class="st0" d="M-3485.5,5084.6h-61.4v-17.1h11.1v-10.6h-107.7c-7.8,0-14.1-6.3-14.1-14.1v-155c0-7.8,6.3-14.1,14.1-14.1
		h254.7c7.8,0,14.1,6.3,14.1,14.1v155c0,7.8-6.3,14.1-14.1,14.1h-107.7v10.6h11.1V5084.6z M-3540.9,5078.6h49.4v-5.1h-11.1v-22.6
		h113.7c4.5,0,8.1-3.6,8.1-8.1v-155c0-4.5-3.6-8.1-8.1-8.1h-254.7c-4.5,0-8.1,3.6-8.1,8.1v155c0,4.5,3.6,8.1,8.1,8.1h113.7v22.6
		h-11.1V5078.6z"/>
</g>
<g>
	<path class="st0" d="M-3632.5,4893.4h232.5c3.1,0,5.5,2.5,5.5,5.5v132.9c0,3.1-2.5,5.5-5.5,5.5h-232.5c-3.1,0-5.5-2.5-5.5-5.5
		v-132.9C-3638,4895.9-3635.5,4893.4-3632.5,4893.4z"/>
	<path class="st2" d="M-3400,5040.3h-232.5c-4.7,0-8.5-3.8-8.5-8.5v-132.9c0-4.7,3.8-8.5,8.5-8.5h232.5c4.7,0,8.5,3.8,8.5,8.5v132.9
		C-3391.4,5036.5-3395.2,5040.3-3400,5040.3z M-3632.5,4896.4c-1.4,0-2.5,1.1-2.5,2.5v132.9c0,1.4,1.1,2.5,2.5,2.5h232.5
		c1.4,0,2.5-1.1,2.5-2.5v-132.9c0-1.4-1.1-2.5-2.5-2.5H-3632.5z"/>
</g>
<g>
	<path class="st0" d="M-3366.7,5234.1h-138.4c-4.7,0-8.5-3.8-8.5-8.5v-121.8c0-4.7,3.8-8.5,8.5-8.5h138.4c4.7,0,8.5,3.8,8.5,8.5
		v121.8C-3358.2,5230.3-3362,5234.1-3366.7,5234.1z M-3505.1,5101.2c-1.4,0-2.5,1.1-2.5,2.5v121.8c0,1.4,1.1,2.5,2.5,2.5h138.4
		c1.4,0,2.5-1.1,2.5-2.5v-121.8c0-1.4-1.1-2.5-2.5-2.5H-3505.1z M-3527.3,5234.1h-138.4c-4.7,0-8.5-3.8-8.5-8.5v-121.8
		c0-4.7,3.8-8.5,8.5-8.5h138.4c4.7,0,8.5,3.8,8.5,8.5v121.8C-3518.8,5230.3-3522.6,5234.1-3527.3,5234.1z M-3665.7,5101.2
		c-1.4,0-2.5,1.1-2.5,2.5v121.8c0,1.4,1.1,2.5,2.5,2.5h138.4c1.4,0,2.5-1.1,2.5-2.5v-121.8c0-1.4-1.1-2.5-2.5-2.5H-3665.7z
		 M-3388.9,5200.9h-94.1c-4.7,0-8.5-3.8-8.5-8.5s3.8-8.5,8.5-8.5h94.1c4.7,0,8.5,3.8,8.5,8.5S-3384.2,5200.9-3388.9,5200.9z
		 M-3483,5189.8c-1.4,0-2.5,1.1-2.5,2.5s1.1,2.5,2.5,2.5h94.1c1.4,0,2.5-1.1,2.5-2.5s-1.1-2.5-2.5-2.5H-3483z M-3549.4,5200.9h-94.1
		c-4.7,0-8.5-3.8-8.5-8.5s3.8-8.5,8.5-8.5h94.1c4.7,0,8.5,3.8,8.5,8.5S-3544.7,5200.9-3549.4,5200.9z M-3643.6,5189.8
		c-1.4,0-2.5,1.1-2.5,2.5s1.1,2.5,2.5,2.5h94.1c1.4,0,2.5-1.1,2.5-2.5s-1.1-2.5-2.5-2.5H-3643.6z M-3388.9,5173.2h-94.1
		c-4.7,0-8.5-3.8-8.5-8.5s3.8-8.5,8.5-8.5h94.1c4.7,0,8.5,3.8,8.5,8.5S-3384.2,5173.2-3388.9,5173.2z M-3483,5162.1
		c-1.4,0-2.5,1.1-2.5,2.5c0,1.4,1.1,2.5,2.5,2.5h94.1c1.4,0,2.5-1.1,2.5-2.5c0-1.4-1.1-2.5-2.5-2.5H-3483z M-3549.4,5173.2h-94.1
		c-4.7,0-8.5-3.8-8.5-8.5s3.8-8.5,8.5-8.5h94.1c4.7,0,8.5,3.8,8.5,8.5S-3544.7,5173.2-3549.4,5173.2z M-3643.6,5162.1
		c-1.4,0-2.5,1.1-2.5,2.5c0,1.4,1.1,2.5,2.5,2.5h94.1c1.4,0,2.5-1.1,2.5-2.5c0-1.4-1.1-2.5-2.5-2.5H-3643.6z M-3388.9,5145.5h-94.1
		c-4.7,0-8.5-3.8-8.5-8.5s3.8-8.5,8.5-8.5h94.1c4.7,0,8.5,3.8,8.5,8.5S-3384.2,5145.5-3388.9,5145.5z M-3483,5134.4
		c-1.4,0-2.5,1.1-2.5,2.5s1.1,2.5,2.5,2.5h94.1c1.4,0,2.5-1.1,2.5-2.5s-1.1-2.5-2.5-2.5H-3483z M-3549.4,5145.5h-94.1
		c-4.7,0-8.5-3.8-8.5-8.5s3.8-8.5,8.5-8.5h94.1c4.7,0,8.5,3.8,8.5,8.5S-3544.7,5145.5-3549.4,5145.5z M-3643.6,5134.4
		c-1.4,0-2.5,1.1-2.5,2.5s1.1,2.5,2.5,2.5h94.1c1.4,0,2.5-1.1,2.5-2.5s-1.1-2.5-2.5-2.5H-3643.6z"/>
</g>
</svg>
