<?xml version="1.0" encoding="utf-8"?>
<!-- Generator: Adobe Illustrator 19.0.0, SVG Export Plug-In . SVG Version: 6.00 Build 0)  -->
<svg version="1.1" id="图层_1" xmlns="http://www.w3.org/2000/svg" xmlns:xlink="http://www.w3.org/1999/xlink" x="0px" y="0px"
	 viewBox="-621.5 -29.5 595.3 595.3" style="enable-background:new -621.5 -29.5 595.3 595.3;" xml:space="preserve">
<style type="text/css">
	.st0{fill:#007FFC;}
	.st1{fill:#FFFFFF;}
</style>
<path class="st0" d="M-323.9-29.5c164.4,0,297.6,133.3,297.6,297.6s-133.3,297.6-297.6,297.6c-164.4,0-297.6-133.3-297.6-297.6
	S-488.2-29.5-323.9-29.5z"/>
<g>
	<g>
		<path class="st1" d="M-147.6,353.4c0,22.5-18.3,40.8-40.8,40.8h-279c-22.5,0-40.8-18.3-40.8-40.8V180.3
			c0-22.5,18.3-40.8,40.8-40.8h279c22.5,0,40.8,18.3,40.8,40.8V353.4L-147.6,353.4z"/>
		<path class="st0" d="M-188.3,400.1h-279c-25.8,0-46.8-21-46.8-46.8V180.3c0-25.8,21-46.8,46.8-46.8h279c25.8,0,46.8,21,46.8,46.8
			v173.1C-141.6,379.2-162.5,400.1-188.3,400.1z M-467.4,145.5c-19.2,0-34.8,15.6-34.8,34.8v173.1c0,19.2,15.6,34.8,34.8,34.8h279
			c19.2,0,34.8-15.6,34.8-34.8V180.3c0-19.2-15.6-34.8-34.8-34.8H-467.4z"/>
	</g>
	<g>
		<path class="st1" d="M-147.6,175.4L-299,288.9c-22.4,14.5-34.7,13.4-57.7,0l-151.5-113.7"/>
		<path class="st0" d="M-327,305.4c-9.8,0-19.8-3.8-32.7-11.3l-0.6-0.4l-151.5-113.7l7.2-9.6l151.2,113.5
			c21.7,12.7,31.4,12.7,50.9,0.1l151.3-113.3l7.2,9.6l-151.6,113.6l-0.2,0.1C-307.6,301.6-317.1,305.4-327,305.4z"/>
	</g>
</g>
</svg>
