<?xml version="1.0" encoding="utf-8"?>
<!-- Generator: Adobe Illustrator 19.0.0, SVG Export Plug-In . SVG Version: 6.00 Build 0)  -->
<svg version="1.1" id="图层_1" xmlns="http://www.w3.org/2000/svg" xmlns:xlink="http://www.w3.org/1999/xlink" x="0px" y="0px"
	 viewBox="-723.9 -710.2 1049.7 596.4" style="enable-background:new -723.9 -710.2 1049.7 596.4;" xml:space="preserve">
<style type="text/css">
	.st0{fill:#62CBF4;}
	.st1{fill:#FFFFFF;}
	.st2{fill:#F85A56;}
</style>
<g>
	<path class="st0" d="M28.1-709.1c164.4,0,297.6,133.3,297.6,297.6c0,164.4-133.3,297.6-297.6,297.6
		c-164.4,0-297.6-133.3-297.6-297.6C-269.5-575.8-136.2-709.1,28.1-709.1z"/>
	<g>
		<circle class="st1" cx="-145.1" cy="-534.2" r="15"/>
		<path class="st1" d="M-4.2-551.2c-1.5-0.1-3-0.1-4.7-0.1c-1.6,0-3.1,0-4.7,0.1h-1.3v0.1c-17.7,0.7-33.7,4.2-48.1,10.8
			c-15.9,7.3-29.3,17.2-40.2,29.9c-10.9,12.7-19.3,27.6-25,44.8c-4.7,14.1-7.5,29.1-8.4,44.9v-77.9h-17.3v219.8h17.3v-121.8
			c0.6,12.1,2.4,23.8,5.3,34.9l18.7,4.7c-0.1-0.3-0.2-0.4-0.3-0.7c-5-15.3-7.5-31.6-7.5-49c0-17.3,2.5-33.7,7.5-49
			c5-15.3,12.3-28.7,21.8-40.1c9.6-11.4,21.2-20.5,35-27.3c12.7-6.3,27-9.6,42.8-10.1h8.5c15.8,0.5,30.1,3.9,42.6,10.1
			c13.7,6.8,25.3,15.9,34.8,27.3c0.9,1.1,1.9,2.3,2.7,3.4l-10.1,7.9L39-467.9l77.9,18.9l1.4-80.2l-26.6,20.5l-3.1,2.5
			c-1.2-1.4-2.3-2.9-3.6-4.3c-9.3-10.7-20.3-19.6-33.1-26.5h102.8v254.3h16.6V-537h65.1v-14.3L-4.2-551.2L-4.2-551.2z"/>
		<path class="st1" d="M99.8-439.4c1.7,9.3,2.5,18.9,2.5,28.8c0,17.3-2.5,33.7-7.5,49c-5,15.3-12.3,28.7-21.8,40.1
			c-9.6,11.4-21.1,20.5-34.8,27.3C24.3-287.4,8.8-284-8.8-284c-17.6,0-33.2-3.4-47-10.1c-6.3-3.1-12.2-6.7-17.6-10.7l8.9-7.1
			l26-20.9l-78.2-17.3l0.3,80.2l26-21.1l4.3-3.5c7.1,5.4,14.9,10.1,23.4,14c15.9,7.3,33.9,10.9,54,10.9c20,0,38-3.6,53.8-10.9
			c15.8-7.3,29.2-17.2,40.1-29.9c10.9-12.7,19.3-27.6,25-44.8c5.8-17.2,8.6-35.6,8.6-55.1c0-8.4-0.5-16.5-1.6-24.4L99.8-439.4z"/>
	</g>
	<g>
		<path class="st2" d="M-426.3-710.2c164.4,0,297.6,133.3,297.6,297.6c0,164.4-133.3,297.6-297.6,297.6
			c-164.4,0-297.6-133.3-297.6-297.6C-723.9-576.9-590.6-710.2-426.3-710.2z"/>
		<g>
			<g>
				<path class="st1" d="M-501.9-604.8h151.2c12.2,0,22.1,9.9,22.1,22.1v340.3c0,12.2-9.9,22.1-22.1,22.1h-151.2
					c-12.2,0-22.1-9.9-22.1-22.1v-340.3C-523.9-594.9-514-604.8-501.9-604.8z"/>
				<path class="st2" d="M-511.3-548h170.1v270.9h-170.1V-548z"/>
				<g>
					<path class="st2" d="M-405.8-573.2h-40.9c-2.6,0-4.7,2.1-4.7,4.7c0,2.6,2.1,4.7,4.7,4.7h40.9c2.6,0,4.7-2.1,4.7-4.7
						C-401.1-571.1-403.2-573.2-405.8-573.2z M-426.3-264.5c-8.7,0-15.7,7-15.7,15.7c0,8.7,7,15.7,15.7,15.7c8.7,0,15.7-7,15.7-15.7
						C-410.5-257.4-417.6-264.5-426.3-264.5z"/>
					<path class="st2" d="M-424.7-592.2c2.6,0,4.7,2.1,4.7,4.7c0,2.6-2.1,4.7-4.7,4.7c-2.6,0-4.7-2.1-4.7-4.7
						C-429.4-590-427.3-592.2-424.7-592.2z"/>
				</g>
			</g>
			<path class="st1" d="M-426.3-478c-36.2,0-65.4,29.3-65.4,65.4c0,36.2,29.3,65.4,65.4,65.4c36.2,0,65.4-29.3,65.4-65.4
				C-360.8-448.7-390.1-478-426.3-478z M-426.3-359.4c-29.3,0-53.2-23.8-53.2-53.2c0-29.3,23.8-53.2,53.2-53.2
				c29.3,0,53.2,23.8,53.2,53.2C-373.1-383.2-396.9-359.4-426.3-359.4z M-422.2-438.5c-2.2-3.6-5.8-3.6-8,0l-23.7,23.4
				c-2.2,3.6-0.4,6.6,4.1,6.6h11.4v20.5c0,2.3,1.9,4.1,4.1,4.1h16.4c2.3,0,4.1-1.9,4.1-4.1v-20.5h11.4c4.5,0,6.3-3,4.1-6.6
				L-422.2-438.5z"/>
		</g>
	</g>
</g>
</svg>
