<?xml version="1.0" encoding="utf-8"?>
<!-- Generator: Adobe Illustrator 19.0.0, SVG Export Plug-In . SVG Version: 6.00 Build 0)  -->
<svg version="1.1" id="图层_1" xmlns="http://www.w3.org/2000/svg" xmlns:xlink="http://www.w3.org/1999/xlink" x="0px" y="0px"
	 viewBox="-995.5 -527.7 1058.9 597.8" style="enable-background:new -995.5 -527.7 1058.9 597.8;" xml:space="preserve">
<style type="text/css">
	.st0{fill:#0DD8E2;}
	.st1{fill:#FFFFFF;}
	.st2{fill:#00CB98;}
</style>
<g>
	<path class="st0" d="M-234.3-525.2c164.4,0,297.6,133.3,297.6,297.6C63.4-63.2-69.9,70.1-234.3,70.1
		c-164.4,0-297.6-133.3-297.6-297.6C-531.9-391.9-398.6-525.2-234.3-525.2z"/>
	<path class="st1" d="M-226.7-175.9c28,0,50.6-22.1,50.6-49.2v-129c0-27.1-22.7-49.2-50.6-49.2s-50.6,22.1-50.6,49.2v129
		C-277.4-198-254.7-175.9-226.7-175.9"/>
	<path class="st1" d="M-126.8-232.4v-35c0-6.6-5.4-11.9-11.9-11.9c-6.6,0-12.8,5.3-12.8,11.9v35c0,50.4-27.7,82.9-75.5,82.9
		c-47.8,0-76.3-32.6-76.3-82.9v-35c0-6.6-6.2-11.9-12.8-11.9c-6.6,0-11.9,5.3-11.9,11.9v35c0,54.1,28.2,92.8,74.6,103.5v27.9h-37.1
		c-6.7,0-12.2,5.4-12.2,12.2c0,6.7,5.4,12.2,12.2,12.2h126.1c6.7,0,12.2-5.4,12.2-12.2c0-6.7-5.4-12.2-12.2-12.2h-37v-27.9
		C-155-139.5-126.8-178.3-126.8-232.4z"/>
	<path class="st2" d="M-697.9-527.7c164.4,0,297.6,133.3,297.6,297.6c0,164.4-133.3,297.6-297.6,297.6
		c-164.4,0-297.6-133.3-297.6-297.6C-995.5-394.4-862.2-527.7-697.9-527.7z"/>
	<g>
		<path class="st1" d="M-778.5-98.1c-19.3,6.3-37.7,12.2-61,19.7c2.9-12.6,4.6-21.1,6.8-29.3c2.4-8.9,5.2-17.7,8.1-27.3
			c-5.2-9-10.5-17.8-15.5-26.8c-29.9-54.7-24.5-114.1,14.8-162.3c70.4-86.4,217-87.3,288.5-1.6c47.7,57.1,46.6,134.6-2.8,190.6
			C-587.9-80.5-670.1-60-743.3-84.8C-754.2-88.5-764.9-93-778.5-98.1z"/>
		<path class="st2" d="M-679.6-68.3c-21.9,0-44.1-3.5-65.6-10.8c-7.4-2.5-14.8-5.4-22.7-8.5c-3.4-1.3-7-2.7-10.7-4.2
			c-10.1,3.3-20,6.5-30.6,9.9c-8.8,2.9-18.1,5.9-28.4,9.2l-10,3.3l2.3-10.3c0.9-4.1,1.8-7.8,2.5-11.2c1.6-7.1,2.8-12.7,4.3-18.3
			c1.6-6.1,3.4-12,5.4-18.3c0.7-2.2,1.4-4.4,2-6.7c-1.4-2.4-2.8-4.8-4.2-7.2c-3.3-5.7-6.8-11.5-10-17.4c-15.3-27.9-21.9-58-19.3-87
			c2.6-29,14.6-57.4,34.7-81.9c34.7-42.6,88.8-67.2,148.4-67.5c59.7-0.3,114.1,23.7,149.4,65.9c24.3,29.1,36.9,63.6,36.4,99.6
			c-0.5,36.1-14.1,70.2-39.3,98.8C-570.9-90.6-624.4-68.3-679.6-68.3z M-778.3-104.5l2,0.8c4.5,1.7,8.8,3.4,12.8,5
			c8.1,3.2,15,5.9,22.2,8.3c20.2,6.8,41.2,10.2,61.8,10.2c51.8,0,101.9-20.8,135.5-58.8c23.3-26.4,35.8-57.8,36.3-91
			c0.5-33.1-11.1-64.9-33.6-91.8c-33-39.5-84-61.9-140.1-61.6c-56,0.3-106.7,23.3-139.2,63.1c-37.8,46.3-42.9,103-14.2,155.6
			c3.2,5.8,6.6,11.5,9.9,17.2c1.9,3.2,3.7,6.3,5.6,9.5l1.3,2.2l-0.7,2.5c-0.9,3.2-1.9,6.3-2.8,9.3c-1.9,6.2-3.7,12-5.3,17.9
			c-1.4,5.4-2.7,10.9-4.2,17.9c-0.1,0.3-0.1,0.7-0.2,1c6.4-2.1,12.5-4,18.4-5.9c11.3-3.6,21.8-7,32.6-10.5L-778.3-104.5z"/>
	</g>
</g>
</svg>
