<?xml version="1.0" encoding="utf-8"?>
<!-- Generator: Adobe Illustrator 16.0.0, SVG Export Plug-In . SVG Version: 6.00 Build 0)  -->
<!DOCTYPE svg PUBLIC "-//W3C//DTD SVG 1.1//EN" "http://www.w3.org/Graphics/SVG/1.1/DTD/svg11.dtd">
<svg version="1.1" id="图层_1" xmlns="http://www.w3.org/2000/svg" xmlns:xlink="http://www.w3.org/1999/xlink" x="0px" y="0px"
	 width="42.623px" height="37.61px" viewBox="0 0 42.623 37.61" enable-background="new 0 0 42.623 37.61" xml:space="preserve">
<path id="XMLID_27_" fill="#FFFFFF" d="M9.592,34.753c-2.275,0.71-4.479,1.422-7.251,2.346c0.355-1.492,0.569-2.487,0.782-3.482
	c0.285-1.066,0.64-2.133,0.995-3.271c-0.64-1.066-1.279-2.134-1.848-3.2c-3.555-6.539-2.915-13.647,1.777-19.335
	c8.388-10.307,25.875-10.45,34.406-0.213c5.687,6.823,5.545,16.065-0.355,22.748c-5.758,6.54-15.568,8.957-24.312,6.042
	C12.506,35.891,11.227,35.322,9.592,34.753z"/>
</svg>
