<?xml version="1.0" encoding="utf-8"?>
<!-- Generator: Adobe Illustrator 19.0.0, SVG Export Plug-In . SVG Version: 6.00 Build 0)  -->
<svg version="1.1" id="图层_1" xmlns="http://www.w3.org/2000/svg" xmlns:xlink="http://www.w3.org/1999/xlink" x="0px" y="0px"
	 viewBox="0 0 275 56" style="enable-background:new 0 0 275 56;" xml:space="preserve">
<style type="text/css">
	.st0{fill-rule:evenodd;clip-rule:evenodd;fill:#00CB98;}
	.st1{fill:#999999;}
	.st2{fill:#00CB98;}
</style>
<path id="XMLID_27_" class="st0" d="M13.5,48.9c-3.2,1-6.3,2-10.2,3.3c0.5-2.1,0.8-3.5,1.1-4.9c0.4-1.5,0.9-3,1.4-4.6
	c-0.9-1.5-1.8-3-2.6-4.5C-1.8,29-0.9,19,5.7,11C17.5-3.5,42.1-3.7,54.1,10.7c8,9.6,7.8,22.6-0.5,32c-8.1,9.2-21.9,12.6-34.2,8.5
	C17.6,50.5,15.8,49.7,13.5,48.9z"/>
<g id="XMLID_59_">
	<path id="XMLID_60_" class="st1" d="M86.5,12.8c0,0.4,0.1,0.8,0.3,1.1c0.2,0.3,0.4,0.6,0.6,0.8c0.3,0.2,0.6,0.3,0.9,0.4
		c0.3,0.1,0.7,0.1,1.1,0.1c0.4,0,0.8-0.1,1.2-0.2c0.3-0.1,0.6-0.3,0.8-0.5c0.2-0.2,0.4-0.4,0.5-0.7c0.1-0.3,0.1-0.5,0.1-0.8
		c0-0.4-0.1-0.7-0.3-1c-0.2-0.2-0.4-0.4-0.7-0.6c-0.3-0.2-0.6-0.3-1-0.4s-0.7-0.2-1.1-0.3c-0.4-0.1-0.8-0.2-1.1-0.3
		c-0.4-0.1-0.7-0.3-1-0.5c-0.3-0.2-0.5-0.5-0.7-0.8c-0.2-0.3-0.3-0.7-0.3-1.2c0-0.3,0.1-0.7,0.2-1c0.1-0.3,0.4-0.6,0.6-0.9
		c0.3-0.3,0.6-0.5,1.1-0.6c0.4-0.1,0.9-0.2,1.5-0.2c0.6,0,1.1,0.1,1.5,0.2c0.4,0.2,0.8,0.4,1.1,0.7c0.3,0.3,0.5,0.6,0.6,1
		c0.1,0.4,0.2,0.8,0.2,1.2h-0.9c0-0.4-0.1-0.7-0.2-1C91.4,7.2,91.2,7,91,6.8c-0.2-0.2-0.5-0.3-0.8-0.4c-0.3-0.1-0.6-0.1-0.9-0.1
		c-0.5,0-0.9,0.1-1.2,0.2c-0.3,0.1-0.6,0.3-0.8,0.5c-0.2,0.2-0.3,0.5-0.4,0.7s-0.1,0.5,0,0.8c0.1,0.3,0.2,0.6,0.4,0.8
		c0.2,0.2,0.5,0.4,0.8,0.5s0.6,0.2,1,0.3s0.7,0.2,1.1,0.3c0.4,0.1,0.7,0.2,1.1,0.3c0.4,0.1,0.7,0.3,0.9,0.5c0.3,0.2,0.5,0.5,0.7,0.8
		c0.2,0.3,0.2,0.7,0.2,1.2c0,0.9-0.3,1.7-1,2.2s-1.5,0.8-2.7,0.8c-0.5,0-1-0.1-1.5-0.2c-0.4-0.1-0.8-0.3-1.2-0.6
		c-0.3-0.3-0.6-0.6-0.8-1c-0.2-0.4-0.3-0.9-0.3-1.4H86.5z"/>
	<path id="XMLID_62_" class="st1" d="M94.7,5.8h1v6c0,1.3,0.2,2.2,0.7,2.7c0.5,0.6,1.2,0.8,2.3,0.8c0.5,0,1-0.1,1.4-0.2
		c0.4-0.1,0.7-0.4,0.9-0.7c0.2-0.3,0.4-0.7,0.5-1.1c0.1-0.4,0.2-1,0.2-1.6v-6h1V12c0,1.3-0.3,2.3-1,3c-0.6,0.7-1.6,1-2.9,1
		c-1.3,0-2.3-0.4-2.9-1.1c-0.6-0.7-1-1.7-1-3V5.8z"/>
	<path id="XMLID_64_" class="st1" d="M104.8,15.8V5.8h3.6c0.6,0,1.1,0.1,1.5,0.2c0.4,0.1,0.8,0.3,1,0.5s0.5,0.5,0.6,0.8
		c0.1,0.3,0.2,0.7,0.2,1c0,0.4,0,0.7-0.1,0.9s-0.2,0.5-0.4,0.6c-0.1,0.2-0.3,0.3-0.5,0.4c-0.2,0.1-0.4,0.2-0.6,0.2v0
		c0.7,0.1,1.2,0.4,1.6,0.8c0.3,0.4,0.5,1,0.5,1.7c0,0.5-0.1,1-0.2,1.3c-0.2,0.4-0.4,0.7-0.7,0.9c-0.3,0.2-0.6,0.4-1,0.5
		c-0.4,0.1-0.8,0.1-1.3,0.1H104.8z M105.7,10.2h2.4c0.5,0,0.9,0,1.2-0.1c0.3-0.1,0.6-0.2,0.8-0.4c0.2-0.2,0.4-0.4,0.4-0.6
		c0.1-0.2,0.1-0.5,0.1-0.8c0-0.3-0.1-0.6-0.2-0.8c-0.1-0.2-0.3-0.4-0.5-0.5s-0.5-0.2-0.9-0.3c-0.4-0.1-0.8-0.1-1.3-0.1h-2.2V10.2z
		 M105.7,15h2.4c0.5,0,1,0,1.4-0.1c0.4,0,0.7-0.1,1-0.3s0.4-0.4,0.6-0.6c0.1-0.3,0.2-0.6,0.2-1.1c0-0.4-0.1-0.8-0.2-1
		s-0.3-0.5-0.6-0.6c-0.3-0.1-0.6-0.2-0.9-0.3c-0.4-0.1-0.8-0.1-1.2-0.1h-2.5V15z"/>
	<path id="XMLID_68_" class="st1" d="M114.1,15.8V5.8h1.5l3.3,8.9h0l3.2-8.9h1.4v10.1h-1v-9h0l-3.3,9h-0.9l-3.3-9h0v9H114.1z"/>
	<path id="XMLID_70_" class="st1" d="M124.9,15.8l4-10.1h1.1l3.9,10.1h-1l-1.2-3.2H127l-1.2,3.2H124.9z M127.4,11.9h3.9l-2-5.3
		L127.4,11.9z"/>
	<path id="XMLID_73_" class="st1" d="M135.5,15.8V5.8h1v10.1H135.5z"/>
	<path id="XMLID_75_" class="st1" d="M139,15.8V5.8h1V15h5.4v0.8H139z"/>
</g>
<g id="XMLID_29_">
	<path id="XMLID_31_" class="st2" d="M88.6,24.7l7.3,0v1.8H92c0.1,1,0.1,2.1,0.1,3.2S92,32,91.9,33.2H96V35h-4.3
		c-0.1,1.1-0.2,2.1-0.3,2.9c0.9,1,1.7,2.1,2.6,3.2c0.9,1.1,1.8,2.3,2.6,3.5l-1.8,0.9c-0.7-1-1.3-1.9-2-2.8c-0.6-0.9-1.3-1.8-1.9-2.6
		c-0.7,3-2.4,6-5,9.1l-1.8-1c1.9-2.2,3.2-4.3,4.1-6.2c0.4-1,0.8-2.1,1-3.2c0.3-1.2,0.5-2.4,0.6-3.7h-5.5v-1.8H90
		c0.1-1.1,0.1-2.2,0.1-3.3s0-2.3,0-3.4h-2.1c-0.2,0.8-0.4,1.6-0.7,2.4c-0.3,0.8-0.6,1.7-1,2.7L84.5,31c0.7-1.7,1.3-3.4,1.8-5.1
		c0.5-1.6,0.9-3.2,1.3-4.8l1.9,0.3L88.6,24.7z M105,46.6c0.7-1.4,1.4-2.7,2-4.1c0.6-1.3,1.2-2.7,1.7-4.1l1.9,0.6
		c-0.5,1.3-1.1,2.6-1.7,3.8s-1.2,2.5-1.8,3.7h5.3v1.7H95.2v-1.7H105z M112.1,24.8H96.4v-1.8h15.7V24.8z M111.3,37.4h-14v-9.5h14
		V37.4z M100.9,46c-0.7-2.2-1.5-4.5-2.4-6.8l1.8-0.5c1.1,2.5,1.9,4.8,2.5,7L100.9,46z M109.4,35.5v-5.9H99.3v5.9H109.4z"/>
	<path id="XMLID_38_" class="st2" d="M120.7,32c-0.4,0.7-0.8,1.5-1.3,2.2c-0.5,0.8-1.1,1.6-1.6,2.5l-1.6-1c3.1-4.4,5.5-9.3,7-14.8
		l1.9,0.5c-0.8,2.4-1.6,4.6-2.5,6.6v21.1h-1.9V32z M134.1,24.9l-1.9-3.3l2-0.7c0.9,1.5,1.6,2.8,2.2,4h8.1v1.8h-18.9v-1.8H134.1z
		 M143.1,31.5h-16.6v-1.8h16.6V31.5z M143.1,36.2h-16.5v-1.8h16.5V36.2z M129.1,47.3v1.9h-1.9V39h15.4v10.1h-1.9v-1.8H129.1z
		 M140.7,45.4V41h-11.6v4.4H140.7z"/>
	<path id="XMLID_45_" class="st2" d="M146.3,49.9l11.8-27.5h1.8l-11.9,27.5H146.3z"/>
	<path id="XMLID_47_" class="st2" d="M171.5,43.3l-3,2.5c-0.3,0.3-0.6,0.6-0.9,0.9c-0.3,0.4-0.7,0.8-1,1.3l-1.7-1.4
		c0.4-0.4,0.6-0.7,0.8-1c0.2-0.3,0.2-0.7,0.2-1.3V32.2h-4v-1.8h5.9v13.5l2.8-2.5L171.5,43.3z M167.7,28c-1.5-2-3.1-3.8-4.8-5.4
		l1.5-1.2c0.7,0.7,1.5,1.5,2.3,2.4c0.8,0.9,1.7,1.9,2.7,3L167.7,28z M176.9,24.5H171v-1.8h18.4v1.8h-10.5l-0.5,3.3h8.6v6.3h3V36
		h-19.6v-1.8h4.9l0.7-4.5h-4v-1.8h4.3L176.9,24.5z M174.4,47.1v2.1h-1.9V38.4h15.4v10.4h-1.9v-1.7H174.4z M185.9,45.3v-4.9h-11.5
		v4.9H185.9z M178.1,29.7l-0.7,4.5h7.7v-4.5H178.1z"/>
	<path id="XMLID_54_" class="st2" d="M207.6,23.8l-1.3-2.7l1.8-0.6l1.6,3.3H221v1.8h-6.3l1.4,0.7l-2.3,3.9h8.7V32h-28.7v-1.8h8.5
		l-2-3.8l1.7-0.7l2.5,4.5h7.1c0.5-0.8,0.9-1.6,1.3-2.4c0.4-0.8,0.8-1.5,1.1-2.2h-18.3v-1.8H207.6z M199.9,47.7v1.7H198V34.9h20.4
		v14.5h-1.9v-1.7H199.9z M199.9,40.4h16.5v-3.6h-16.5V40.4z M216.4,42.2h-16.5v3.6h16.5V42.2z"/>
</g>
</svg>
