<?xml version="1.0" encoding="UTF-8"?>
<!-- Created with EazyDraw for Mac ( http://www.eazydraw.com/ ) -->

<svg
    version="1.1"
    xmlns:dc="http://purl.org/dc/elements/1.1/"
    xmlns:cc="http://creativecommons.org/ns#"
    xmlns:rdf="http://www.w3.org/1999/02/22-rdf-syntax-ns#"
    xmlns:svg="http://www.w3.org/2000/svg"
    xmlns:xlink="http://www.w3.org/1999/xlink"
    xmlns="http://www.w3.org/2000/svg"
    width="275"
    height="56"
    viewBox="0, 0, 275, 56"
    preserveAspectRatio="none"
    id="svg2">
   <defs
       id="defs_F79901CA"/>
   <metadata
       id="metadata7">
      <rdf:RDF>
         <cc:Work
             rdf:about="">
            <dc:format>image/svg+xml</dc:format>
            <dc:type rdf:resource="http://purl.org/dc/dcmitype/StillImage"/>
            <dc:title></dc:title>
         </cc:Work>
      </rdf:RDF>
   </metadata>
   <g
       id="layer_Paper"
       style="fill:#000000;fill-opacity:1;stroke:#000000;stroke-opacity:1;fill-rule:nonzero;stroke-linecap:butt;stroke-linejoin:miter;stroke-width:1;stroke-miterlimit:4">
      <path
          style="fill:#19C386;stroke:none"
          id="6FF1A99A"
          d="M13.5,48.9 C10.3,49.9 7.2,50.9 3.3,52.2 C3.8,50.1 4.1,48.7 4.4,47.3 C4.8,45.8 5.3,44.3 5.8,42.7 C4.9,41.2 4,39.7 3.2,38.2 C-1.8,29 -0.9,19 5.7,11 C17.5,-3.5 42.1,-3.7 54.1,10.7 C62.1,20.3 61.9,33.3 53.6,42.7
C45.5,51.9 31.7,55.3 19.4,51.2 C17.6,50.5 15.8,49.7 13.5,48.9 z"/>
      <path
          style="fill:#19C386;stroke:none"
          id="FF02A99A"
          d="M88.6,24.7 L95.9,24.7 L95.9,26.5 L92,26.5 C92.1,27.5 92.1,28.6 92.1,29.7 C92.1,30.8 92,32 91.9,33.2 L96,33.2 L96,35 L91.7,35 C91.6,36.1 91.5,37.1 91.4,37.9 C92.3,38.9 93.1,40 94,41.1 C94.9,42.2 95.8,43.4 96.6,44.6
L94.8,45.5 C94.1,44.5 93.5,43.6 92.8,42.7 C92.2,41.8 91.5,40.9 90.9,40.1 C90.2,43.1 88.5,46.1 85.9,49.2 L84.1,48.2 C86,46 87.3,43.9 88.2,42 C88.6,41 89,39.9 89.2,38.8 C89.5,37.6 89.7,36.4 89.8,35.1 L84.3,35.1
L84.3,33.3 L90,33.3 C90.1,32.2 90.1,31.1 90.1,30 C90.1,28.9 90.1,27.7 90.1,26.6 L88,26.6 C87.8,27.4 87.6,28.2 87.3,29 C87,29.8 86.7,30.7 86.3,31.7 L84.5,31 C85.2,29.3 85.8,27.6 86.3,25.9 C86.8,24.3 87.2,22.7 87.6,21.1
L89.5,21.4 L88.6,24.7 z M105,46.6 C105.7,45.2 106.4,43.9 107,42.5 C107.6,41.2 108.2,39.8 108.7,38.4 L110.6,39 C110.1,40.3 109.5,41.6 108.9,42.8 C108.3,44 107.7,45.3 107.1,46.5 L112.4,46.5 L112.4,48.2 L95.2,48.2
L95.2,46.5 L105,46.5 z M112.1,24.8 L96.4,24.8 L96.4,23 L112.1,23 L112.1,24.8 z M111.3,37.4 L97.3,37.4 L97.3,27.9 L111.3,27.9 L111.3,37.4 z M100.9,46 C100.2,43.8 99.4,41.5 98.5,39.2 L100.3,38.7 C101.4,41.2 102.2,43.5 102.8,45.7
L100.9,46 z M109.4,35.5 L109.4,29.6 L99.3,29.6 L99.3,35.5 L109.4,35.5 z"/>
      <path
          style="fill:#19C386;stroke:none"
          id="8112A99A"
          d="M120.7,32 C120.3,32.7 119.9,33.5 119.4,34.2 C118.9,35 118.3,35.8 117.8,36.7 L116.2,35.7 C119.3,31.3 121.7,26.4 123.2,20.9 L125.1,21.4 C124.3,23.8 123.5,26 122.6,28 L122.6,49.1 L120.7,49.1 L120.7,32 z M134.1,24.9
L132.2,21.6 L134.2,20.9 C135.1,22.4 135.8,23.7 136.4,24.9 L144.5,24.9 L144.5,26.7 L125.6,26.7 L125.6,24.9 L134.1,24.9 z M143.1,31.5 L126.5,31.5 L126.5,29.7 L143.1,29.7 L143.1,31.5 z M143.1,36.2 L126.6,36.2
L126.6,34.4 L143.1,34.4 L143.1,36.2 z M129.1,47.3 L129.1,49.2 L127.2,49.2 L127.2,39 L142.6,39 L142.6,49.1 L140.7,49.1 L140.7,47.3 L129.1,47.3 z M140.7,45.4 L140.7,41 L129.1,41 L129.1,45.4 L140.7,45.4 z"/>
   </g>
</svg>
