<?xml version="1.0" encoding="utf-8"?>
<!-- Generator: Adobe Illustrator 19.0.0, SVG Export Plug-In . SVG Version: 6.00 Build 0)  -->
<svg version="1.1" id="图层_1" xmlns="http://www.w3.org/2000/svg" xmlns:xlink="http://www.w3.org/1999/xlink" x="0px" y="0px"
	 viewBox="7026 -155.5 708.5 710" style="enable-background:new 7026 -155.5 708.5 710;" xml:space="preserve">
<style type="text/css">
	.st0{fill:#00CB98;}
	.st1{clip-path:url(#SVGID_2_);}
	.st2{fill:#FFFFFF;}
</style>
<path class="st0" d="M7381.2,555.1c-47.9,0-94.4-9.4-138.2-27.9c-42.3-17.9-80.2-43.5-112.8-76.1c-32.6-32.6-58.2-70.6-76.1-112.8
	c-18.5-43.8-27.9-90.3-27.9-138.2c0-47.9,9.4-94.4,27.9-138.2c17.9-42.3,43.5-80.2,76.1-112.8s70.6-58.2,112.8-76.1
	c43.8-18.5,90.3-27.9,138.2-27.9c47.9,0,94.4,9.4,138.2,27.9c42.3,17.9,80.2,43.5,112.8,76.1c32.6,32.6,58.2,70.6,76.1,112.8
	c18.5,43.8,27.9,90.3,27.9,138.2c0,47.9-9.4,94.4-27.9,138.2c-17.9,42.3-43.5,80.2-76.1,112.8c-32.6,32.6-70.6,58.2-112.8,76.1
	C7475.6,545.7,7429.1,555.1,7381.2,555.1z M7381.2-148.9c-93.2,0-180.9,36.3-246.8,102.2s-102.2,153.6-102.2,246.8
	c0,93.2,36.3,180.9,102.2,246.8c65.9,65.9,153.6,102.2,246.8,102.2c93.2,0,180.9-36.3,246.8-102.2s102.2-153.6,102.2-246.8
	c0-93.2-36.3-180.9-102.2-246.8C7562-112.6,7474.4-148.9,7381.2-148.9z"/>
<g>
	<defs>
		<path id="SVGID_1_" d="M7381.2-151.9c194.4,0,352,157.6,352,352c0,194.4-157.6,352-352,352c-194.4,0-352-157.6-352-352
			C7029.2,5.7,7186.8-151.9,7381.2-151.9z"/>
	</defs>
	<clipPath id="SVGID_2_">
		<use xlink:href="#SVGID_1_"  style="overflow:visible;"/>
	</clipPath>
	<g class="st1">
		<g>
			<path class="st2" d="M7381.2,260.6c112.4,0,203.5,82.5,203.5,184.2c0,101.8-91.1,184.2-203.5,184.2
				c-112.4,0-203.5-82.5-203.5-184.2C7177.7,343.1,7268.8,260.6,7381.2,260.6z"/>
			<path class="st0" d="M7381.2,632.1c-113.9,0-206.5-84-206.5-187.2s92.6-187.2,206.5-187.2s206.5,84,206.5,187.2
				S7495,632.1,7381.2,632.1z M7381.2,263.6c-110.6,0-200.5,81.3-200.5,181.2s89.9,181.2,200.5,181.2s200.5-81.3,200.5-181.2
				S7491.7,263.6,7381.2,263.6z"/>
		</g>
		<g>
			<path class="st2" d="M7489.4,458.6c-1.2,0-2.4-0.4-3.5-1.1l-16.7-12l-16.7,12c-1,0.7-2.2,1.1-3.5,1.1c-1.2,0-2.4-0.4-3.4-1.1
				c-2.1-1.4-2.9-4-2.1-6.3l6.6-19.1l-16.9-11.7c-2.1-1.4-2.9-4-2.2-6.3c0.8-2.3,3-3.9,5.5-3.9h0l20.8,0.2l6.3-19.2
				c0.8-2.3,3-3.9,5.5-3.9s4.8,1.6,5.5,3.9l6.3,19.2l20.8-0.2h0.1c2.5,0,4.8,1.6,5.5,3.9c0.8,2.3-0.1,4.9-2.1,6.3l-16.9,11.7
				l6.6,19.1c0.8,2.3-0.1,4.9-2.1,6.3C7491.8,458.2,7490.6,458.6,7489.4,458.6z"/>
			<path class="st0" d="M7489.4,461.6c-1.9,0-3.7-0.6-5.2-1.7l-15-10.7l-15,10.7c-1.5,1.1-3.3,1.7-5.2,1.7c-1.9,0-3.7-0.6-5.2-1.7
				c-3.2-2.2-4.4-6.1-3.2-9.8l5.8-17l-15.1-10.4c-3.2-2.2-4.5-6.1-3.3-9.7c1.2-3.6,4.6-5.9,8.4-5.9l18.7,0.1l5.6-17.1
				c1.2-3.6,4.5-6,8.4-6c3.9,0,7.2,2.4,8.4,6l5.6,17.1l18.6-0.1c3.9,0,7.3,2.4,8.5,6c1.2,3.6-0.1,7.5-3.3,9.7l-15.1,10.4l5.8,17
				c1.2,3.6-0.1,7.6-3.2,9.8C7493,461,7491.2,461.6,7489.4,461.6z M7469.2,441.8l18.5,13.2c1,0.7,2.4,0.7,3.4,0c1-0.7,1.4-1.8,1-2.9
				l-7.3-21.3l18.8-13c1-0.7,1.4-1.8,1-2.9c-0.4-1.1-1.5-1.9-2.7-1.9l-23,0.2l-7-21.3c-0.4-1.1-1.5-1.9-2.7-1.9
				c-1.2,0-2.3,0.8-2.7,1.9l-7,21.3l-23-0.2c-1.3,0-2.3,0.7-2.7,1.9c-0.4,1.1,0.1,2.2,1,2.9l18.8,13l-7.3,21.3c-0.4,1.1,0,2.2,1,2.9
				c1,0.7,2.4,0.7,3.4,0L7469.2,441.8z"/>
		</g>
		<g>
			<path class="st2" d="M7381.2-19.9c91.1,0,165,83.7,165,187c0,103.3-73.9,187-165,187c-91.1,0-165-83.7-165-187
				C7216.2,63.8,7290-19.9,7381.2-19.9z"/>
			<path class="st0" d="M7381.2,357.1c-92.6,0-168-85.2-168-190s75.4-190,168-190s168,85.2,168,190S7473.8,357.1,7381.2,357.1z
				 M7381.2-16.9c-89.3,0-162,82.5-162,184s72.7,184,162,184s162-82.5,162-184S7470.5-16.9,7381.2-16.9z"/>
		</g>
		<g>
			<path class="st2" d="M7216.2,112.1l1,0c60.3,0,113.1-20.8,142.8-51.9c30.5,27.8,80.4,46,136.7,46c15.2,0,29.9-1.3,43.9-3.8
				c-23.9-77.7-86.9-133.2-160.9-133.2C7302.8-30.9,7237.7,29.3,7216.2,112.1z"/>
			<path class="st0" d="M7217.2,115.1l-4.9-0.1l1-3.7c10.7-41.1,32.7-78.1,61.9-104c30.3-27,66.5-41.2,104.6-41.2
				c36.5,0,71.5,13.2,101.1,38.2c28.9,24.4,50.5,58,62.6,97.2l1,3.2l-3.3,0.6c-14.5,2.6-29.4,3.9-44.4,3.9
				c-53.5,0-104.3-16.7-136.6-44.8C7328.3,96.2,7275.2,115.1,7217.2,115.1z M7379.8-27.9c-36.6,0-71.4,13.7-100.6,39.7
				c-27.5,24.4-48.4,58.8-59.1,97.3c56.5-0.6,107.8-19.6,137.8-51l2-2.1l2.2,2c31.1,28.3,81.4,45.2,134.7,45.2
				c13.5,0,26.9-1.1,40-3.2c-11.9-36.7-32.5-68.2-59.7-91.1C7448.5-15.2,7414.9-27.9,7379.8-27.9z"/>
		</g>
		<g>
			<path class="st2" d="M7433.4,150.6c-16.7,0-30.2,13.5-30.2,30.2c0,16.7,13.5,30.2,30.2,30.2s30.2-13.5,30.2-30.2
				C7463.7,164.1,7450.1,150.6,7433.4,150.6z M7328.9,150.6c-16.7,0-30.2,13.5-30.2,30.2c0,16.7,13.5,30.2,30.2,30.2
				s30.2-13.5,30.2-30.2C7359.2,164.1,7345.6,150.6,7328.9,150.6z"/>
			<path class="st0" d="M7433.4,214.1c-18.3,0-33.2-14.9-33.2-33.2s14.9-33.2,33.2-33.2s33.2,14.9,33.2,33.2
				S7451.7,214.1,7433.4,214.1z M7433.4,153.6c-15,0-27.2,12.2-27.2,27.2s12.2,27.2,27.2,27.2s27.2-12.2,27.2-27.2
				S7448.4,153.6,7433.4,153.6z M7328.9,214.1c-18.3,0-33.2-14.9-33.2-33.2s14.9-33.2,33.2-33.2s33.2,14.9,33.2,33.2
				S7347.2,214.1,7328.9,214.1z M7328.9,153.6c-15,0-27.2,12.2-27.2,27.2s12.2,27.2,27.2,27.2s27.2-12.2,27.2-27.2
				S7343.9,153.6,7328.9,153.6z"/>
		</g>
		<path class="st0" d="M7328.9,167.1c-7.6,0-13.8,6.2-13.8,13.8c0,7.6,6.2,13.8,13.8,13.8s13.8-6.2,13.8-13.8
			C7342.7,173.2,7336.5,167.1,7328.9,167.1z M7433.4,167.1c-7.6,0-13.8,6.2-13.8,13.8c0,7.6,6.2,13.8,13.8,13.8s13.8-6.2,13.8-13.8
			C7447.2,173.2,7441,167.1,7433.4,167.1z"/>
		<path class="st0" d="M7381.8,288.3c-15.1,0-26.8-7.6-27.5-8.1c-3.8-2.5-4.8-7.6-2.3-11.4c2.5-3.8,7.6-4.8,11.4-2.3
			c0.8,0.5,18.2,11.6,34.1,0.2c3.7-2.6,8.8-1.8,11.5,1.9c2.7,3.7,1.8,8.8-1.9,11.5C7398.4,286.2,7389.7,288.3,7381.8,288.3z"/>
	</g>
</g>
</svg>
