<?xml version="1.0" encoding="utf-8"?>
<!-- Generator: Adobe Illustrator 19.0.0, SVG Export Plug-In . SVG Version: 6.00 Build 0)  -->
<svg version="1.1" id="图层_1" xmlns="http://www.w3.org/2000/svg" xmlns:xlink="http://www.w3.org/1999/xlink" x="0px" y="0px"
	 viewBox="6211.4 -81.9 713 713" style="enable-background:new 6211.4 -81.9 713 713;" xml:space="preserve">
<style type="text/css">
	.st0{fill:#00CB98;}
	.st1{fill:#FFFFFF;}
	.st2{fill:#BDBFBF;}
	.st3{fill:#BF4B3D;}
</style>
<path class="st0" d="M6567.9,631.1c-48.1,0-94.8-9.4-138.8-28c-42.5-18-80.6-43.7-113.3-76.4s-58.4-70.9-76.4-113.3
	c-18.6-44-28-90.6-28-138.8c0-48.1,9.4-94.8,28-138.8c18-42.5,43.7-80.6,76.4-113.3s70.9-58.4,113.3-76.4c44-18.6,90.6-28,138.8-28
	c48.1,0,94.8,9.4,138.8,28c42.5,18,80.6,43.7,113.3,76.4s58.4,70.9,76.4,113.3c18.6,44,28,90.6,28,138.8c0,48.1-9.4,94.8-28,138.8
	c-18,42.5-43.7,80.6-76.4,113.3c-32.7,32.7-70.9,58.4-113.3,76.4C6662.7,621.7,6616,631.1,6567.9,631.1z M6567.9-75.9
	c-93.6,0-181.6,36.5-247.8,102.7C6253.9,93,6217.4,181,6217.4,274.6c0,93.6,36.5,181.6,102.7,247.8
	c66.2,66.2,154.2,102.7,247.8,102.7c93.6,0,181.6-36.5,247.8-102.7c66.2-66.2,102.7-154.2,102.7-247.8
	c0-93.6-36.5-181.6-102.7-247.8S6661.5-75.9,6567.9-75.9z"/>
<g>
	<path class="st1" d="M6396.7,131h342.4v325.9h-342.4V131z"/>
	<path class="st0" d="M6742.1,459.9h-348.4V128h348.4V459.9z M6399.7,453.9h336.4V134h-336.4V453.9z"/>
</g>
<g>
	<path class="st1" d="M6419,108.9h297.5l22.7,22h-342.5L6419,108.9z"/>
	<path class="st0" d="M6746.5,134h-357.2l28.4-28h300L6746.5,134z M6404,128h327.8l-16.5-16h-295.1L6404,128z"/>
</g>
<g>
	<g>
		<path class="st1" d="M6418.8,440.3h77.3V219.4h-77.3V440.3z M6518.2,456.9h99.4V219.4h-99.4V456.9z M6639.7,219.4v220.9h77.3
			V219.4H6639.7z"/>
		<path class="st0" d="M6620.6,459.9h-105.4V216.4h105.4V459.9z M6521.2,453.9h93.4V222.4h-93.4V453.9z M6720,443.3h-83.3V216.4
			h83.3V443.3z M6642.7,437.3h71.3V222.4h-71.3V437.3z M6499.1,443.3h-83.3V216.4h83.3V443.3z M6421.8,437.3h71.3V222.4h-71.3V437.3
			z"/>
	</g>
</g>
<path class="st2" d="M6396.7,219.4h342.4v16.6h-342.4V219.4z"/>
<path class="st1" d="M6777.7,186.1l-33.4-33.1h-353.2l-33,33.1h-0.1v22.1c0,6.1,4.9,11.1,11,11.1h397.7c6.1,0,11-5,11-11.1
	L6777.7,186.1L6777.7,186.1z"/>
<g>
	<path class="st1" d="M6590,280.1h-44.2c-6.1,0-11,5-11,11v16.6c0,6.1,4.9,11,11,11h44.2c6.1,0,11-5,11-11v-16.6
		C6601,285.1,6596.1,280.1,6590,280.1z M6592.7,307.7c0,1.5-1.2,2.8-2.8,2.8h-44.2c-1.5,0-2.8-1.2-2.8-2.8v-16.6
		c0-1.5,1.2-2.8,2.8-2.8h44.2c1.5,0,2.8,1.2,2.8,2.8V307.7z"/>
	<path class="st0" d="M6590,321.8h-44.2c-7.7,0-14-6.3-14-14v-16.6c0-7.7,6.3-14,14-14h44.2c7.7,0,14,6.3,14,14v16.6
		C6604,315.5,6597.7,321.8,6590,321.8z M6545.8,283.1c-4.4,0-8,3.6-8,8v16.6c0,4.4,3.6,8,8,8h44.2c4.4,0,8-3.6,8-8v-16.6
		c0-4.4-3.6-8-8-8H6545.8z M6590,313.5h-44.2c-3.2,0-5.8-2.6-5.8-5.8v-16.6c0-3.2,2.6-5.8,5.8-5.8h44.2c3.2,0,5.8,2.6,5.8,5.8v16.6
		C6595.7,310.9,6593.2,313.5,6590,313.5z M6546,307.5h43.7v-16.1H6546V307.5z"/>
</g>
<g>
	<g>
		<path class="st1" d="M6739.1,390.6c-19.2,0-35,14-38.1,32.3c-4.1-2.9-9-4.7-14.5-4.7c-13.7,0-24.8,11.1-24.8,24.9
			c0,13.7,11.1,24.9,24.8,24.9c2,0,51,0,52.5,0c21.3,0,38.6-17.3,38.6-38.7C6777.8,407.9,6760.5,390.6,6739.1,390.6z"/>
		<path class="st0" d="M6739.1,470.9h-52.5c-15.3,0-27.8-12.5-27.8-27.9c0-15.4,12.5-27.9,27.8-27.9c4.3,0,8.6,1,12.4,3
			c4.9-17.9,21.1-30.6,40.1-30.6c23,0,41.6,18.7,41.6,41.7C6780.8,452.2,6762.1,470.9,6739.1,470.9z M6686.6,421.2
			c-12,0-21.8,9.8-21.8,21.9c0,12.1,9.8,21.9,21.8,21.9h52.5c19.6,0,35.6-16,35.6-35.7c0-19.7-16-35.7-35.6-35.7
			c-17.5,0-32.2,12.5-35.1,29.8l-0.8,4.8l-3.9-2.8C6695.6,422.6,6691.2,421.2,6686.6,421.2z"/>
	</g>
</g>
<g>
	<g>
		<path class="st1" d="M6449.2,418.2c-5.4,0-10.4,1.8-14.5,4.7c-3-18.3-18.9-32.3-38.1-32.3c-21.3,0-38.6,17.3-38.6,38.7
			c0,21.4,17.3,38.7,38.6,38.7c1.6,0,50.5,0,52.5,0c13.7,0,24.8-11.1,24.8-24.9C6474,429.3,6462.9,418.2,6449.2,418.2z"/>
		<path class="st0" d="M6449.2,470.9h-52.5c-23,0-41.6-18.7-41.6-41.7c0-23,18.7-41.7,41.6-41.7c19,0,35.2,12.6,40.1,30.6
			c3.9-2,8.1-3,12.4-3c15.3,0,27.8,12.5,27.8,27.9C6477,458.4,6464.5,470.9,6449.2,470.9z M6396.6,393.6c-19.7,0-35.6,16-35.6,35.7
			c0,19.7,16,35.7,35.6,35.7h52.5c12,0,21.8-9.8,21.8-21.9c0-12.1-9.8-21.9-21.8-21.9c-4.5,0-8.9,1.4-12.7,4.1l-3.9,2.8l-0.8-4.8
			C6428.9,406.1,6414.1,393.6,6396.6,393.6z"/>
	</g>
</g>
<polygon class="st1" points="6744.3,153.1 6391.1,153.1 6358.1,186.1 6358,186.1 6358,186.2 6777.8,186.2 6777.8,186.1 
	6777.7,186.1 "/>
<g>
	<polygon class="st3" points="6490.6,186.2 6512.7,186.2 6518.2,153.1 6496.1,153.1 	"/>
	<rect x="6578.9" y="153.1" class="st3" width="22.1" height="33.1"/>
	<polygon class="st3" points="6446.4,186.2 6468.5,186.2 6479.5,153.1 6457.4,153.1 	"/>
	<polygon class="st3" points="6694.9,153.1 6711.5,186.2 6733.6,186.2 6717,153.1 	"/>
	<rect x="6534.7" y="153.1" class="st3" width="22.1" height="33.1"/>
	<polygon class="st3" points="6733.6,153.1 6755.7,186.2 6777.8,186.2 6777.7,186.1 6777.7,186.1 6744.3,153.1 	"/>
	<polygon class="st3" points="6639.7,153.1 6617.6,153.1 6623.1,186.2 6645.2,186.2 	"/>
	<polygon class="st3" points="6402.2,153.1 6391.1,153.1 6358.1,186.1 6358.1,186.1 6358,186.2 6380.1,186.2 	"/>
	<polygon class="st3" points="6678.4,153.1 6656.3,153.1 6667.3,186.2 6689.4,186.2 	"/>
	<polygon class="st3" points="6424.3,186.2 6440.9,153.1 6424.3,153.1 6402.2,186.2 	"/>
</g>
<g>
	<path class="st0" d="M6620.6,238.9h-105.4v-22.6h105.4V238.9z M6521.2,232.9h93.4v-10.6h-93.4V232.9z"/>
	<path class="st0" d="M6720,238.9h-83.3v-22.6h83.3V238.9z M6642.7,232.9h71.3v-10.6h-71.3V232.9z"/>
	<path class="st0" d="M6499.1,238.9h-83.3v-22.6h83.3V238.9z M6421.8,232.9h71.3v-10.6h-71.3V232.9z"/>
</g>
<g>
	<polygon class="st0" points="6496.1,153.1 6490.6,186.2 6490.6,219.3 6512.7,219.3 6512.7,186.2 6518.2,153.1 	"/>
	<polygon class="st0" points="6457.4,153.1 6446.4,186.2 6446.4,219.3 6468.5,219.3 6468.5,186.2 6479.5,153.1 	"/>
	<rect x="6534.7" y="153.1" class="st0" width="22.1" height="66.2"/>
	<polygon class="st0" points="6424.3,153.1 6402.2,186.2 6402.2,219.3 6424.3,219.3 6424.3,186.2 6440.9,153.1 	"/>
	<polygon class="st0" points="6694.9,153.1 6711.5,186.2 6711.5,219.3 6733.6,219.3 6733.6,186.2 6717,153.1 	"/>
	<path class="st0" d="M6777.7,186.1l-33.4-33h-10.7l22.1,33.1v33.1h11c6.1,0,11-5,11-11.1L6777.7,186.1L6777.7,186.1L6777.7,186.1z"
		/>
	<path class="st0" d="M6369.1,219.3h11v-33.1l22.1-33.1h-11.1l-33,33h0l-0.1,0.1v22C6358,214.4,6363,219.3,6369.1,219.3z"/>
	<rect x="6578.9" y="153.1" class="st0" width="22.1" height="66.2"/>
	<polygon class="st0" points="6689.4,219.3 6689.4,186.2 6678.4,153.1 6656.3,153.1 6667.3,186.2 6667.3,219.3 	"/>
	<polygon class="st0" points="6645.2,219.3 6645.2,186.2 6639.7,153.1 6617.6,153.1 6623.1,186.2 6623.1,219.3 	"/>
</g>
</svg>
