<?xml version="1.0" encoding="utf-8"?>
<!-- Generator: Adobe Illustrator 19.0.0, SVG Export Plug-In . SVG Version: 6.00 Build 0)  -->
<svg version="1.1" id="图层_1" xmlns="http://www.w3.org/2000/svg" xmlns:xlink="http://www.w3.org/1999/xlink" x="0px" y="0px"
	 viewBox="5259.8 -26.4 710 710" style="enable-background:new 5259.8 -26.4 710 710;" xml:space="preserve">
<style type="text/css">
	.st0{fill:#00CB98;}
</style>
<path class="st0" d="M5614.8,683.6c-47.9,0-94.4-9.4-138.2-27.9c-42.3-17.9-80.2-43.5-112.8-76.1s-58.2-70.6-76.1-112.8
	c-18.5-43.8-27.9-90.3-27.9-138.2c0-47.9,9.4-94.4,27.9-138.2c17.9-42.3,43.5-80.2,76.1-112.8c32.6-32.6,70.6-58.2,112.8-76.1
	c43.8-18.5,90.3-27.9,138.2-27.9c47.9,0,94.4,9.4,138.2,27.9c42.3,17.9,80.2,43.5,112.8,76.1c32.6,32.6,58.2,70.6,76.1,112.8
	c18.5,43.8,27.9,90.3,27.9,138.2c0,47.9-9.4,94.4-27.9,138.2c-17.9,42.3-43.5,80.2-76.1,112.8c-32.6,32.6-70.6,58.2-112.8,76.1
	C5709.2,674.2,5662.7,683.6,5614.8,683.6z M5614.8-20.4c-93.2,0-180.9,36.3-246.8,102.2c-65.9,65.9-102.2,153.6-102.2,246.8
	c0,93.2,36.3,180.9,102.2,246.8c65.9,65.9,153.6,102.2,246.8,102.2c93.2,0,180.9-36.3,246.8-102.2
	c65.9-65.9,102.2-153.6,102.2-246.8c0-93.2-36.3-180.9-102.2-246.8C5795.6,15.9,5708-20.4,5614.8-20.4z"/>
<path class="st0" d="M5734.2,519.6c-18.6,0-36.1-7-49.5-19.8h-0.3l-0.8-1.1c-0.5-0.5-1-1-1.4-1.5c-0.2-0.2-0.4-0.4-0.5-0.6
	c-10.8-10.3-37.6-17.2-66.6-17.2c-31.3,0-59.5,7.9-68.6,19.3l-0.9,1.1h-0.5c-13.4,12.8-31,19.8-49.5,19.8c-39.7,0-72-32.3-72-72
	c0-21.7,9.6-41.9,26.4-55.7c8.9-12.7,14.4-36.8,14.4-63.1c0-26.9-5.9-52-15.1-64.2c-16.3-13.7-25.7-33.8-25.7-55.1
	c0-39.7,32.3-72,72-72c19,0,36.8,7.3,50.4,20.6h0.3l0.9,1c9.8,11.1,37.1,18.6,67.9,18.6c30.2,0,57.4-7.3,67.5-18.2
	c13.7-14.2,32.1-22,51.8-22c39.7,0,72,32.3,72,72c0,20.4-8.8,39.9-24.1,53.6c-10,11.5-16.4,37.2-16.4,65.7c0,27,5.7,51.4,14.9,63.8
	c16.2,13.7,25.5,33.7,25.5,54.9C5806.1,487.3,5773.8,519.6,5734.2,519.6z M5687.7,494.4l0.3,0.3c12.4,12.2,28.8,18.9,46.2,18.9
	c36.4,0,66-29.6,66-66c0-19.5-8.6-38-23.6-50.6l-0.3-0.2l-0.2-0.3c-10.1-13.3-16.3-39.3-16.3-67.7c0-29.9,7.1-57.3,18-69.8l0.3-0.3
	c14.1-12.5,22.2-30.5,22.2-49.3c0-36.4-29.6-66-66-66c-18,0-34.8,7.2-47.4,20.2c-11.3,12.2-39.6,20-71.9,20
	c-32,0-59.8-7.7-71.5-19.6h-0.2l-0.9-0.9c-12.5-12.7-29.2-19.7-47-19.7c-36.4,0-66,29.6-66,66c0,19.6,8.7,38.1,23.8,50.7l0.3,0.2
	l0.2,0.3c10.2,13.3,16.6,39.3,16.6,68.1c0,27.7-6,53.4-15.7,66.9l-0.2,0.3l-0.3,0.3c-15.6,12.6-24.5,31.3-24.5,51.3
	c0,36.4,29.6,66,66,66c17.4,0,33.8-6.7,46.2-18.9l0.9-0.9h0.1c11.1-12.2,39.8-20.4,72.3-20.4c31,0,58.8,7.4,70.8,18.9l0.1,0.1
	c0.2,0.2,0.4,0.5,0.7,0.7C5686.9,493.6,5687.3,494,5687.7,494.4z M5614.9,422.4c-30.2,0-57.7-7.2-70.1-18.2l-0.2-0.2
	c-1.7-1.9-3.5-3.7-5.3-5.3l-0.3-0.3c-10.9-12.8-17.7-39.4-17.7-69.4c0-32,7.7-59.8,19.6-71.5v-0.1l0.9-0.9c0.9-0.8,1.7-1.8,2.5-2.7
	l0.6-0.6c12.4-11.1,39.9-18.2,70-18.2c29.3,0,55.6,6.5,68.7,17l0.2,0.2l0.2,0.2c1.8,2.2,3.9,4.2,6.2,6.3l0.2,0.2
	c11,12.4,18.2,39.9,18.2,70c0,28.5-6.3,54.5-16.4,67.8l-0.2,0.3l-0.3,0.2c-2.6,2.2-5.2,4.7-7.5,7.5l-0.4,0.4
	C5670.9,415.7,5644.5,422.4,5614.9,422.4z M5549,399.8c11.4,10.1,37.2,16.6,65.9,16.6c27.7,0,53.1-6.2,65-15.8
	c2.4-2.8,5-5.4,7.7-7.7c9.2-12.4,15-36.9,15-64c0-28.6-6.5-54.5-16.5-65.9c-2.4-2.2-4.5-4.3-6.4-6.5c-12-9.4-37.3-15.5-64.7-15.5
	c-28.7,0-54.5,6.5-65.9,16.6l-0.2,0.2c-0.6,0.7-1.2,1.4-1.9,2.1v0.3l-1,0.9c-11.1,9.8-18.6,37.1-18.6,67.9
	c0,28.1,6.3,53.7,16.1,65.4C5545.4,396,5547.2,397.8,5549,399.8z"/>
</svg>
