<?xml version="1.0" encoding="utf-8"?>
<!-- Generator: Adobe Illustrator 19.0.0, SVG Export Plug-In . SVG Version: 6.00 Build 0)  -->
<svg version="1.1" id="图层_1" xmlns="http://www.w3.org/2000/svg" xmlns:xlink="http://www.w3.org/1999/xlink" x="0px" y="0px"
	 viewBox="-1573.5 4998.2 704 704" style="enable-background:new -1573.5 4998.2 704 704;" xml:space="preserve">
<style type="text/css">
	.st0{fill:#FFFFFF;}
	.st1{fill:#F85A56;}
</style>
<path class="st0" d="M-1221.5,4998.2c194.4,0,352,157.6,352,352c0,194.4-157.6,352-352,352c-194.4,0-352-157.6-352-352
	C-1573.5,5155.8-1416,4998.2-1221.5,4998.2z"/>
<g>
	<g>
		<path class="st1" d="M-1013.1,5451c0,26.6-21.6,48.2-48.2,48.2h-330c-26.6,0-48.2-21.6-48.2-48.2v-204.7
			c0-26.6,21.6-48.2,48.2-48.2h330c26.6,0,48.2,21.6,48.2,48.2V5451z"/>
		<path class="st0" d="M-1061.3,5505.2h-330c-29.9,0-54.2-24.3-54.2-54.2v-204.7c0-29.9,24.3-54.2,54.2-54.2h330
			c29.9,0,54.2,24.3,54.2,54.2V5451C-1007.1,5480.9-1031.4,5505.2-1061.3,5505.2z M-1391.2,5204.1c-23.3,0-42.2,18.9-42.2,42.2V5451
			c0,23.3,18.9,42.2,42.2,42.2h330c23.3,0,42.2-18.9,42.2-42.2v-204.7c0-23.3-18.9-42.2-42.2-42.2H-1391.2z"/>
	</g>
	<g>
		<path class="st1" d="M-1013.1,5240.5l-179.1,134.2c-26.5,17.1-41,15.9-68.2,0l-179.2-134.5"/>
		<path class="st0" d="M-1225.3,5393.1c-11.4,0-23-4.4-38.1-13.2l-0.6-0.4l-179.2-134.5l7.2-9.6l179,134.3
			c25.8,15.1,38,15.1,61.4,0.1l179-134.1l7.2,9.6l-179.3,134.4l-0.2,0.1C-1202.8,5388.7-1213.9,5393.1-1225.3,5393.1z"/>
	</g>
</g>
</svg>
