<?xml version="1.0" encoding="utf-8"?>
<!-- Generator: Adobe Illustrator 19.0.0, SVG Export Plug-In . SVG Version: 6.00 Build 0)  -->
<svg version="1.1" id="图层_1" xmlns="http://www.w3.org/2000/svg" xmlns:xlink="http://www.w3.org/1999/xlink" x="0px" y="0px"
	 viewBox="3625.7 1424.2 710 710" style="enable-background:new 3625.7 1424.2 710 710;" xml:space="preserve">
<style type="text/css">
	.st0{fill:#00CB98;}
	.st1{fill-rule:evenodd;clip-rule:evenodd;fill:#00CB98;}
</style>
<g>
	<path class="st0" d="M3980.7,2134.2c-47.9,0-94.4-9.4-138.2-27.9c-42.3-17.9-80.2-43.5-112.8-76.1c-32.6-32.6-58.2-70.6-76.1-112.8
		c-18.5-43.8-27.9-90.3-27.9-138.2c0-47.9,9.4-94.4,27.9-138.2c17.9-42.3,43.5-80.2,76.1-112.8c32.6-32.6,70.6-58.2,112.8-76.1
		c43.8-18.5,90.3-27.9,138.2-27.9c47.9,0,94.4,9.4,138.2,27.9c42.3,17.9,80.2,43.5,112.8,76.1c32.6,32.6,58.2,70.6,76.1,112.8
		c18.5,43.8,27.9,90.3,27.9,138.2c0,47.9-9.4,94.4-27.9,138.2c-17.9,42.3-43.5,80.2-76.1,112.8c-32.6,32.6-70.6,58.2-112.8,76.1
		C4075.1,2124.8,4028.7,2134.2,3980.7,2134.2z M3980.7,1430.2c-93.2,0-180.9,36.3-246.8,102.2c-65.9,65.9-102.2,153.6-102.2,246.8
		c0,93.2,36.3,180.9,102.2,246.8c65.9,65.9,153.6,102.2,246.8,102.2c93.2,0,180.9-36.3,246.8-102.2
		c65.9-65.9,102.2-153.6,102.2-246.8c0-93.2-36.3-180.9-102.2-246.8C4161.6,1466.5,4073.9,1430.2,3980.7,1430.2z"/>
	<path class="st1" d="M4064.9,1872.3c6.4,2.7,13.1,5.5,21.9,9.2c2.1-7.6,3.3-13.6,5.4-19.3c4.6-12.4,8.6-25.2,14.6-36.8
		c6.7-12.9,17.2-23.2,33.1-20.4c16.4,2.9,25.5,14.6,30.2,33.4c-7.5-0.6-13.2-1-19.9-1.5c-12.8,8.8-14.4,23.3-17.2,39.3
		c26.1-4.9,48.9-13.5,64.3-34.4c3.4-10.5-0.4-17.1-8.8-21.3c-5.9-2.9-11.5-5.5-10.9-13.5c26.9-9.2,56.4,7.5,63,36
		c-2.7,18.8-15.6,30.9-30,41.5c-18.1,13.3-38.7,21.3-60.1,27.3c-6,1.7-12,3.3-17.6,4.9c-2.7,24.5,2.6,42.5,16.2,54.7
		c14.4-7.9,10.5-24.4,17.7-38.2c3.3-0.9,8.3-2.3,12.2-3.5c14.5,15.3-15.7,69.3-42.2,79.5c-15-1.9-25.1-10.9-31.5-24.1
		c-4.9-10.2-9.3-20.8-12.5-31.6c-2.9-10.2-3.9-21-5.8-32c-11.8-3.4-24.1-6.2-35.8-10.6c-24.5-9.2-30.9-29.5-17.1-51.7
		c10.9-17.5,39.5-36.5,61.6-40.8c6,4.7,3.4,8.5-1.4,11.9c-7.8,5.4-15.9,10.2-23.5,15.8C4063.1,1852.1,4059.7,1859.8,4064.9,1872.3z"
		/>
	<g>
		<path class="st1" d="M4081,1631.6c-22.8-17.8-45.4-35.8-68.4-53.4c-17-13-28.9-12.9-45,0.3c-22.4,18.3-44.6,37-67.8,56.4
			c5.4,4.6,9.3,7.9,14.1,12c17.1-13.9,33.6-27.6,50.4-40.8c22.1-17.4,34.1-17.3,56.1-0.1c18.7,14.6,37.3,29.3,55.6,44.4
			c4,3.3,6.6,8.2,9.8,12.4c-1.1,1.1-2.3,2.2-3.4,3.3c-13.1-10.4-26.2-21-39.4-31.3c-8.5-6.6-16.5-14.9-26.2-18.7
			c-8-3.2-20.7-4.6-27-0.4c-20,13.2-38,29.5-57,44.8c9,9.5,16.3,7.1,23.7,0.8c9.9-8.4,19-18.1,30.1-24.4c6.9-3.9,19.4-6.5,24.7-2.9
			c25.1,17.2,48.7,36.9,74,56.5c-29.4,24.4-56.7,47.9-85.1,70.2c-17.2,13.5-29.8,12.9-47.2-0.2c-24.9-18.9-49.5-38.2-73.6-58.1
			c-4.7-3.9-6.3-11.5-9.3-17.3c1.4-1,2.9-2,4.3-3.1c18.5,14.5,36.9,29,55.4,43.4c5.9,4.6,12.1,9,18.2,13.4
			c11.9,8.5,24.5,9.2,35.9,0.2c24.4-19.3,48.2-39.5,73.4-60.2c-5.4-4.5-9.4-7.7-14.3-11.8c-18.4,15.1-36.1,29.9-54.1,44.4
			c-20.6,16.5-27.2,16.5-48.1,0.3c-20-15.5-40.1-31-59.8-46.9c-3.9-3.1-6.5-7.9-9.6-12c1.2-1.2,2.5-2.4,3.7-3.7
			c11.6,9.1,23.1,18.3,34.7,27.3c9.8,7.6,19.7,15.1,29.6,22.4c9.8,7.3,19.8,8.1,29.6,0.1c17.9-14.6,35.8-29.2,53.9-44
			c-6.2-10.3-12.6-9.7-20.2-3.4c-11.2,9.3-22.8,18.1-33.9,27.5c-8.3,7.1-16.5,7.4-24.9,0.9c-23.8-18.4-47.5-37-73.4-57.2
			c28.7-23.2,55.4-46.5,84-67.2c16.6-12,36-11,52.9,1.9c23.5,18.1,46.6,36.7,69.3,55.7c4.2,3.5,6,9.8,8.9,14.9
			C4084.1,1629.4,4082.5,1630.5,4081,1631.6z"/>
		<path class="st0" d="M3980.7,1797.9c-77.7,0-141-63.2-141-141c0-77.7,63.2-141,141-141s141,63.2,141,141
			C4121.7,1734.7,4058.5,1797.9,3980.7,1797.9z M3980.7,1521.9c-74.4,0-135,60.6-135,135c0,74.4,60.6,135,135,135s135-60.6,135-135
			C4115.7,1582.5,4055.2,1521.9,3980.7,1521.9z"/>
	</g>
	<g>
		<path class="st1" d="M3860.6,1982.3c-3.5,3.3-6.6,6.3-9.8,9.1c-14.1,12.6-34.3,12.6-47.4,0.1c-13.5-12.9-14.5-34-0.6-48
			c14-14,29.6-26.4,45.1-40.1c-15.9-16.7-28.2-29.6-40.5-42.4c-17.2-18-18.5-37.7-3.6-52.3c14.6-14.3,34-12.9,51.5,3.6
			c1.7,1.6,3.5,3.1,5.8,5.2c4.2-3.7,8.1-7.5,12.4-10.9c14.6-11.5,34-10.2,46.3,2.8c12.6,13.3,13,32.2,0.2,46.2
			c-13.6,14.9-27.9,29.1-42.2,43.9c14.6,15.5,28.6,29.9,42.1,44.9c8.9,9.9,11.5,21.7,6.6,34.3c-4.9,12.4-14.3,21.1-27.5,21.3
			c-8.8,0.1-18-4-26.4-7.5C3868.1,1990.8,3864.8,1986.1,3860.6,1982.3z M3861.4,1920.3c-13.7,12.6-27.2,24.9-40.4,37.4
			c-5.2,4.9-7.4,10.8-1.7,16.6c5.6,5.8,11.4,4,16.5-1.2c2.1-2.2,4-4.5,6.1-7c-4-4.2-7.5-7.8-11.2-11.7c5.9-5.9,11.3-11.2,16.9-16.8
			c4.3,3.9,8.3,7.6,12.5,11.3c4.9-4.5,9.1-8.3,13.8-12.6c5.9,6.3,11,11.6,16.4,17.3c-4.1,4.8-7.6,8.9-11.2,13.1
			c1.8,1.9,3.1,3.4,4.5,4.8c5.4,5.7,11.4,9.6,18.3,2.6c6.4-6.5,2.6-12.3-2.6-17.4C3886.2,1944.1,3873.1,1931.5,3861.4,1920.3z
			 M3861.9,1879.2c12.2-11.6,26.3-24.3,39.3-38.2c2.7-2.9,0.7-10.2,0.9-15.4c-5.3,0.3-10.7-0.1-15.8,1.2c-2.6,0.6-4.4,4.2-6.7,6.7
			c3.9,4.3,7.6,8.2,10.5,11.4c-5.6,6.5-10.7,12.4-15.9,18.3c-5.1-4.5-9.2-8-13.6-11.9c-4.5,3.9-8.6,7.4-12.1,10.5
			c-6.2-5.6-11.8-10.8-18.2-16.7c4.9-3.9,8.9-7,13.1-10.4c-3.1-3.4-4.9-7-7.4-7.7c-5-1.4-10.5-1.1-15.8-1.6
			c0.1,5.3-2.1,12.7,0.6,15.5C3833.9,1854.5,3848.4,1866.8,3861.9,1879.2z"/>
		<path class="st1" d="M3913.4,1931.9c-5.7-6-10.5-11-15.6-16.3c5.2-5.5,9.8-10.2,15.8-16.5c-5.5-4.5-10.6-8.7-15.6-12.8
			c6-6,11.2-11.2,16.9-17c4.2,3.9,9,8.5,14.6,13.8c10.9-9.7,22.1-20.9,38.1-16.4c7.9,2.2,16.1,7.3,21.4,13.4
			c11.6,13.5,9.1,32.6-4.1,44.8c-15.1,14-32.6,11.7-55.2-8.1C3924.7,1921.4,3919.6,1926.1,3913.4,1931.9z M3947.3,1899.9
			c6.6,7.1,12.1,16,21.6,7.1c2.5-2.3,2.5-11.6,0-13.9C3959.7,1884.5,3953.9,1892.7,3947.3,1899.9z"/>
		<path class="st1" d="M3792,1882.7c5.3-4.9,10.3-9.4,14.7-13.5c5.8,5.1,11.3,9.9,17.5,15.2c-5,5.3-9.6,10.1-14.7,15.4
			c4.7,5.2,9.1,10.1,14.6,16.2c-5.8,4.6-11.3,8.9-17.6,13.9c-3.8-3.5-9-8.2-14-12.9c-26.3,19.9-44.1,21.4-58.3,5.1
			c-11.3-13-10.8-33.1,0.9-45.5C3750,1860.8,3767.6,1862.4,3792,1882.7z M3774.9,1899.6c-6.9-6.5-12.5-15.3-22-6.9
			c-2.5,2.2-2.7,11.6-0.2,14C3762.1,1916,3767.6,1906.6,3774.9,1899.6z"/>
	</g>
</g>
</svg>
