<?xml version="1.0" encoding="utf-8"?>
<!-- Generator: Adobe Illustrator 19.0.0, SVG Export Plug-In . SVG Version: 6.00 Build 0)  -->
<svg version="1.1" id="图层_1" xmlns="http://www.w3.org/2000/svg" xmlns:xlink="http://www.w3.org/1999/xlink" x="0px" y="0px"
	 viewBox="4660 2346.2 707 707" style="enable-background:new 4660 2346.2 707 707;" xml:space="preserve">
<style type="text/css">
	.st0{fill:#FFFFFF;}
	.st1{fill:#00CB98;}
	.st2{fill:#00C18A;}
	.st3{fill:#BF4B3D;}
</style>
<path class="st0" d="M5013.5,2346.2c195.2,0,353.5,158.3,353.5,353.5c0,195.2-158.3,353.5-353.5,353.5
	c-195.2,0-353.5-158.3-353.5-353.5C4660,2504.4,4818.2,2346.2,5013.5,2346.2z"/>
<g>
	<path class="st1" d="M4842.2,2556.1h342.4v325.9h-342.4V2556.1z"/>
	<path class="st0" d="M5187.7,2884.9h-348.4v-331.9h348.4V2884.9z M4845.2,2878.9h336.4v-319.9h-336.4V2878.9z"/>
</g>
<g>
	<path class="st1" d="M4864.5,2534H5162l22.7,22h-342.5L4864.5,2534z"/>
	<path class="st0" d="M5192.1,2559h-357.2l28.4-28h300L5192.1,2559z M4849.5,2553h327.8l-16.5-16h-295.1L4849.5,2553z"/>
</g>
<g>
	<g>
		<path class="st1" d="M4864.3,2865.4h77.3v-220.9h-77.3V2865.4z M4963.8,2881.9h99.4v-237.5h-99.4V2881.9z M5085.3,2644.4v220.9
			h77.3v-220.9H5085.3z"/>
		<path class="st0" d="M5066.2,2884.9h-105.4v-243.5h105.4V2884.9z M4966.8,2878.9h93.4v-231.5h-93.4V2878.9z M5165.6,2868.4h-83.3
			v-226.9h83.3V2868.4z M5088.3,2862.4h71.3v-214.9h-71.3V2862.4z M4944.7,2868.4h-83.3v-226.9h83.3V2868.4z M4867.3,2862.4h71.3
			v-214.9h-71.3V2862.4z"/>
	</g>
</g>
<path class="st2" d="M4845.3,2644.4h336.3v16.6h-336.3V2644.4z"/>
<path class="st0" d="M5223.3,2611.2l-33.4-33.1h-353.2l-33,33.1h-0.1v22.1c0,6.1,4.9,11.1,11,11.1h397.7c6.1,0,11-5,11-11.1
	L5223.3,2611.2L5223.3,2611.2z"/>
<g>
	<path class="st1" d="M5035.6,2705.2h-44.2c-6.1,0-11,5-11,11v16.6c0,6.1,4.9,11,11,11h44.2c6.1,0,11-5,11-11v-16.6
		C5046.6,2710.1,5041.7,2705.2,5035.6,2705.2z M5038.3,2732.8c0,1.5-1.2,2.8-2.8,2.8h-44.2c-1.5,0-2.8-1.2-2.8-2.8v-16.6
		c0-1.5,1.2-2.8,2.8-2.8h44.2c1.5,0,2.8,1.2,2.8,2.8V2732.8z"/>
	<path class="st0" d="M5035.6,2746.8h-44.2c-7.7,0-14-6.3-14-14v-16.6c0-7.7,6.3-14,14-14h44.2c7.7,0,14,6.3,14,14v16.6
		C5049.6,2740.5,5043.3,2746.8,5035.6,2746.8z M4991.4,2708.2c-4.4,0-8,3.6-8,8v16.6c0,4.4,3.6,8,8,8h44.2c4.4,0,8-3.6,8-8v-16.6
		c0-4.4-3.6-8-8-8H4991.4z M5035.6,2738.6h-44.2c-3.2,0-5.8-2.6-5.8-5.8v-16.6c0-3.2,2.6-5.8,5.8-5.8h44.2c3.2,0,5.8,2.6,5.8,5.8
		v16.6C5041.3,2736,5038.7,2738.6,5035.6,2738.6z M4991.6,2732.6h43.7v-16.1h-43.7V2732.6z"/>
</g>
<g>
	<g>
		<path class="st1" d="M5184.7,2815.6c-19.2,0-35,14-38.1,32.3c-4.1-2.9-9-4.7-14.5-4.7c-13.7,0-24.8,11.1-24.8,24.9
			s11.1,24.9,24.8,24.9c2,0,51,0,52.5,0c21.3,0,38.6-17.3,38.6-38.7S5206.1,2815.6,5184.7,2815.6z"/>
		<path class="st0" d="M5184.7,2896h-52.5c-15.3,0-27.8-12.5-27.8-27.9c0-15.4,12.5-27.9,27.8-27.9c4.3,0,8.6,1,12.4,3
			c4.9-17.9,21.1-30.6,40.1-30.6c23,0,41.6,18.7,41.6,41.7S5207.7,2896,5184.7,2896z M5132.2,2846.2c-12,0-21.8,9.8-21.8,21.9
			c0,12.1,9.8,21.9,21.8,21.9h52.5c19.6,0,35.6-16,35.6-35.7c0-19.7-16-35.7-35.6-35.7c-17.5,0-32.2,12.5-35.1,29.8l-0.8,4.8
			l-3.9-2.8C5141.1,2847.7,5136.7,2846.2,5132.2,2846.2z"/>
	</g>
</g>
<g>
	<g>
		<path class="st1" d="M4894.7,2843.2c-5.4,0-10.4,1.8-14.5,4.7c-3-18.3-18.9-32.3-38.1-32.3c-21.3,0-38.6,17.3-38.6,38.7
			s17.3,38.7,38.6,38.7c1.6,0,50.5,0,52.5,0c13.7,0,24.8-11.1,24.8-24.9C4919.6,2854.4,4908.5,2843.2,4894.7,2843.2z"/>
		<path class="st0" d="M4894.7,2896h-52.5c-23,0-41.6-18.7-41.6-41.7s18.7-41.7,41.6-41.7c19,0,35.2,12.6,40.1,30.6
			c3.9-2,8.1-3,12.4-3c15.3,0,27.8,12.5,27.8,27.9C4922.6,2883.5,4910.1,2896,4894.7,2896z M4842.2,2818.6
			c-19.7,0-35.6,16-35.6,35.7c0,19.7,16,35.7,35.6,35.7h52.5c12,0,21.8-9.8,21.8-21.9c0-12.1-9.8-21.9-21.8-21.9
			c-4.5,0-8.9,1.4-12.7,4.2l-3.9,2.8l-0.8-4.8C4874.5,2831.2,4859.7,2818.6,4842.2,2818.6z"/>
	</g>
</g>
<polygon class="st0" points="5189.9,2578.1 4836.7,2578.1 4803.7,2611.2 4803.6,2611.2 4803.6,2611.3 5223.4,2611.3 5223.4,2611.2 
	5223.3,2611.2 "/>
<g>
	<polygon class="st3" points="4936.1,2611.3 4958.2,2611.3 4963.8,2578.1 4941.7,2578.1 	"/>
	<rect x="5024.5" y="2578.1" class="st3" width="22.1" height="33.1"/>
	<polygon class="st3" points="4892,2611.3 4914.1,2611.3 4925.1,2578.1 4903,2578.1 	"/>
	<polygon class="st3" points="5140.5,2578.1 5157.1,2611.3 5179.2,2611.3 5162.6,2578.1 	"/>
	<rect x="4980.3" y="2578.1" class="st3" width="22.1" height="33.1"/>
	<polygon class="st3" points="5179.2,2578.1 5201.3,2611.3 5223.4,2611.3 5223.3,2611.2 5223.3,2611.2 5189.9,2578.1 	"/>
	<polygon class="st3" points="5085.3,2578.1 5063.2,2578.1 5068.7,2611.3 5090.8,2611.3 	"/>
	<polygon class="st3" points="4847.8,2578.1 4836.7,2578.1 4803.7,2611.2 4803.7,2611.2 4803.6,2611.3 4825.7,2611.3 	"/>
	<polygon class="st3" points="5123.9,2578.1 5101.8,2578.1 5112.9,2611.3 5135,2611.3 	"/>
	<polygon class="st3" points="4869.9,2611.3 4886.4,2578.1 4869.9,2578.1 4847.8,2611.3 	"/>
</g>
<g>
	<path class="st1" d="M5066.2,2664h-105.4v-22.6h105.4V2664z M4966.8,2658h93.4v-10.6h-93.4V2658z"/>
	<path class="st1" d="M5165.6,2664h-83.3v-22.6h83.3V2664z M5088.3,2658h71.3v-10.6h-71.3V2658z"/>
	<path class="st1" d="M4944.7,2664h-83.3v-22.6h83.3V2664z M4867.3,2658h71.3v-10.6h-71.3V2658z"/>
</g>
<g>
	<polygon class="st1" points="4941.7,2578.1 4936.1,2611.3 4936.1,2644.4 4958.2,2644.4 4958.2,2611.3 4963.8,2578.1 	"/>
	<polygon class="st1" points="4903,2578.1 4892,2611.3 4892,2644.4 4914.1,2644.4 4914.1,2611.3 4925.1,2578.1 	"/>
	<rect x="4980.3" y="2578.1" class="st1" width="22.1" height="66.2"/>
	<polygon class="st1" points="4869.9,2578.1 4847.8,2611.3 4847.8,2644.4 4869.9,2644.4 4869.9,2611.3 4886.4,2578.1 	"/>
	<polygon class="st1" points="5140.5,2578.1 5157.1,2611.3 5157.1,2644.4 5179.2,2644.4 5179.2,2611.3 5162.6,2578.1 	"/>
	<path class="st1" d="M5223.3,2611.2l-33.4-33h-10.7l22.1,33.1v33.1h11c6.1,0,11-5,11-11.1L5223.3,2611.2L5223.3,2611.2
		L5223.3,2611.2z"/>
	<path class="st1" d="M4814.6,2644.4h11v-33.1l22.1-33.1h-11.1l-33,33h0l-0.1,0.1v22C4803.6,2639.4,4808.5,2644.4,4814.6,2644.4z"/>
	<rect x="5024.5" y="2578.1" class="st1" width="22.1" height="66.2"/>
	<polygon class="st1" points="5135,2644.4 5135,2611.3 5123.9,2578.1 5101.8,2578.1 5112.9,2611.3 5112.9,2644.4 	"/>
	<polygon class="st1" points="5090.8,2644.4 5090.8,2611.3 5085.3,2578.1 5063.2,2578.1 5068.7,2611.3 5068.7,2644.4 	"/>
</g>
</svg>
