<?xml version="1.0" encoding="utf-8"?>
<!-- Generator: Adobe Illustrator 19.0.0, SVG Export Plug-In . SVG Version: 6.00 Build 0)  -->
<svg version="1.1" id="图层_1" xmlns="http://www.w3.org/2000/svg" xmlns:xlink="http://www.w3.org/1999/xlink" x="0px" y="0px"
	 viewBox="4403.6 -60.4 709.4 709.4" style="enable-background:new 4403.6 -60.4 709.4 709.4;" xml:space="preserve">
<style type="text/css">
	.st0{fill:#00CB98;}
	.st1{fill:#E74C3C;}
</style>
<path class="st0" d="M4758.3,649c-47.9,0-94.3-9.4-138.1-27.9c-42.2-17.9-80.2-43.4-112.7-76c-32.6-32.6-58.1-70.5-76-112.7
	c-18.5-43.7-27.9-90.2-27.9-138.1c0-47.9,9.4-94.3,27.9-138.1c17.9-42.2,43.4-80.2,76-112.7s70.5-58.1,112.7-76
	c43.7-18.5,90.2-27.9,138.1-27.9s94.3,9.4,138.1,27.9c42.2,17.9,80.2,43.4,112.7,76s58.1,70.5,76,112.7
	c18.5,43.7,27.9,90.2,27.9,138.1c0,47.9-9.4,94.3-27.9,138.1c-17.9,42.2-43.4,80.2-76,112.7c-32.6,32.6-70.5,58.1-112.7,76
	C4852.6,639.6,4806.2,649,4758.3,649z M4758.3-54.4c-93.1,0-180.7,36.3-246.6,102.1c-65.9,65.9-102.1,153.4-102.1,246.6
	c0,93.1,36.3,180.7,102.1,246.6c65.9,65.9,153.4,102.1,246.6,102.1s180.7-36.3,246.6-102.1C5070.7,475,5107,387.5,5107,294.3
	c0-93.1-36.3-180.7-102.1-246.6C4939-18.1,4851.5-54.4,4758.3-54.4z"/>
<path class="st0" d="M4758.3,56.2c-36.4,0-65.9,29.5-65.9,65.9c0,36.4,29.5,65.9,65.9,65.9s65.9-29.5,65.9-65.9
	C4824.3,85.8,4794.7,56.2,4758.3,56.2z M4758.3,177.1c-30.4,0-55-24.6-55-55c0-30.3,24.6-55,55-55s55,24.6,55,55
	C4813.3,152.5,4788.7,177.1,4758.3,177.1z"/>
<path class="st0" d="M4758.3,517.1c-92.6,0-167.9-75.3-167.9-167.9c0-40.7,14.7-79.8,41.4-110.4l-15.2-15.2l16-16.1l15.2,15.2
	c26.9-23.4,60.9-37.8,96.4-40.8v-28.1h28V182c35.5,2.9,69.5,17.4,96.4,40.8l15.2-15.2l16,16l-15.2,15.2
	c26.7,30.6,41.4,69.7,41.4,110.4C4926.2,441.8,4850.9,517.1,4758.3,517.1z M4625.1,223.7l15,15l-1.9,2.1
	c-26.9,29.8-41.8,68.3-41.8,108.5c0,89.2,72.6,161.9,161.9,161.9s161.9-72.6,161.9-161.9c0-40.2-14.8-78.7-41.8-108.5l-1.9-2.1
	l15-15l-7.6-7.6l-15,15l-2.1-1.9c-26.9-24.3-61.6-39-97.7-41.4l-2.8-0.2v-27.7h-16v27.7l-2.8,0.2c-36.1,2.4-70.8,17.1-97.7,41.4
	l-2.1,1.9l-15-15L4625.1,223.7z"/>
<path class="st0" d="M4758.3,492.5c-79,0-143.2-64.2-143.2-143.2c0-79,64.2-143.2,143.2-143.2s143.2,64.2,143.2,143.2
	C4901.5,428.2,4837.3,492.5,4758.3,492.5z M4758.3,212.1c-75.6,0-137.2,61.5-137.2,137.2c0,75.6,61.5,137.2,137.2,137.2
	s137.2-61.5,137.2-137.2C4895.5,273.6,4834,212.1,4758.3,212.1z"/>
<path class="st0" d="M4758.3,222.9c-3,0-5.5,2.5-5.5,5.5c0,3,2.5,5.5,5.5,5.5c3,0,5.5-2.5,5.5-5.5
	C4763.8,225.3,4761.4,222.9,4758.3,222.9z M4879.2,343.8c-3,0-5.5,2.5-5.5,5.5c0,3,2.5,5.5,5.5,5.5c3,0,5.5-2.5,5.5-5.5
	C4884.7,346.2,4882.2,343.8,4879.2,343.8z M4637.4,343.8c-3,0-5.5,2.5-5.5,5.5c0,3,2.5,5.5,5.5,5.5s5.5-2.5,5.5-5.5
	C4642.9,346.2,4640.4,343.8,4637.4,343.8z M4670.4,261.4c-3,0-5.5,2.5-5.5,5.5c0,3,2.5,5.5,5.5,5.5c3,0,5.5-2.5,5.5-5.5
	C4675.9,263.8,4673.4,261.4,4670.4,261.4z M4846.2,261.4c-3,0-5.5,2.5-5.5,5.5c0,3,2.5,5.5,5.5,5.5c3,0,5.5-2.5,5.5-5.5
	C4851.7,263.8,4849.3,261.4,4846.2,261.4z M4846.2,426.2c-3,0-5.5,2.5-5.5,5.5c0,3,2.5,5.5,5.5,5.5c3,0,5.5-2.5,5.5-5.5
	C4851.7,428.7,4849.3,426.2,4846.2,426.2z M4670.4,426.2c-3,0-5.5,2.5-5.5,5.5c0,3,2.5,5.5,5.5,5.5c3,0,5.5-2.5,5.5-5.5
	C4675.9,428.7,4673.4,426.2,4670.4,426.2z M4758.3,464.7c-3,0-5.5,2.5-5.5,5.5c0,3,2.5,5.5,5.5,5.5c3,0,5.5-2.5,5.5-5.5
	C4763.8,467.1,4761.4,464.7,4758.3,464.7z"/>
<path class="st0" d="M4780.3,159.9h-44c-10.7,0-19.5-8.7-19.5-19.5V124c0-10.7,8.7-19.5,19.5-19.5h44c10.7,0,19.5,8.7,19.5,19.5
	v16.5C4799.8,151.2,4791,159.9,4780.3,159.9z M4736.3,110.5c-7.4,0-13.5,6-13.5,13.5v16.5c0,7.4,6,13.5,13.5,13.5h44
	c7.4,0,13.5-6,13.5-13.5V124c0-7.4-6-13.5-13.5-13.5H4736.3z"/>
<path class="st0" d="M4906.3,189.3l11.9,11.9c6.5,6.5,6.5,17.2,0,23.7l-4,4c-6.5,6.5-17.2,6.5-23.7,0l-11.9-11.9
	c-6.6-6.5-6.6-17.2,0-23.7l4-4C4889.1,182.7,4899.7,182.7,4906.3,189.3z"/>
<path class="st0" d="M4610.4,189.3l-11.9,11.9c-6.5,6.5-6.5,17.2,0,23.7l4,4c6.5,6.5,17.2,6.5,23.7,0L4638,217
	c6.6-6.5,6.6-17.2,0-23.7l-4-4C4627.5,182.7,4616.9,182.7,4610.4,189.3z"/>
<g>
	<rect x="4758.3" y="118.5" class="st0" width="5.5" height="38.5"/>
	<rect x="4747.3" y="118.5" class="st0" width="5.5" height="38.5"/>
	<path class="st0" d="M4725.3,152.7c1.6,1.4,3.4,2.5,5.5,3.3v-37.5h-5.5V152.7z"/>
	<rect x="4736.3" y="118.5" class="st0" width="5.5" height="38.5"/>
	<rect x="4769.3" y="118.5" class="st0" width="5.5" height="38.5"/>
	<path class="st0" d="M4791.3,118.5v34.2c3.3-3,5.5-7.3,5.5-12.2V124c0-1.9-0.4-3.8-1-5.5H4791.3z M4785.8,118.5h-5.5v38.5
		c1.9,0,3.8-0.4,5.5-1V118.5z"/>
</g>
<path class="st1" d="M4739.4,338.3c-5.5,7.6-0.8,24.1,9.5,29.2l0.3,0.1l0,0l0,0l0.1,0l0.1,0l0,0l0,0l0.3,0.2
	c10.3,5.1,26.2-1.2,29-10.2l26.7-91c0.6-2.5,0.9-5.7-2-7.1l-0.3-0.1l0,0l0,0l-0.1,0l0,0l0,0l0,0l-0.3-0.2c-2.9-1.4-5.3,0.7-6.9,2.7
	L4739.4,338.3z M4749.2,343.2c2.7-5.4,9.2-7.6,14.7-5c5.4,2.7,7.6,9.3,4.9,14.7c-2.7,5.4-9.2,7.6-14.7,5
	C4748.7,355.2,4746.5,348.6,4749.2,343.2z"/>
</svg>
