<?xml version="1.0" encoding="utf-8"?>
<!-- Generator: Adobe Illustrator 19.0.0, SVG Export Plug-In . SVG Version: 6.00 Build 0)  -->
<svg version="1.1" id="图层_1" xmlns="http://www.w3.org/2000/svg" xmlns:xlink="http://www.w3.org/1999/xlink" x="0px" y="0px"
	 viewBox="6533.7 2321.8 710 710" style="enable-background:new 6533.7 2321.8 710 710;" xml:space="preserve">
<style type="text/css">
	.st0{fill:#00CB98;}
	.st1{fill-rule:evenodd;clip-rule:evenodd;fill:#00CB98;}
</style>
<path class="st0" d="M6888.7,3031.8c-47.9,0-94.4-9.4-138.2-27.9c-42.3-17.9-80.2-43.5-112.8-76.1s-58.2-70.6-76.1-112.8
	c-18.5-43.8-27.9-90.3-27.9-138.2c0-47.9,9.4-94.4,27.9-138.2c17.9-42.3,43.5-80.2,76.1-112.8c32.6-32.6,70.6-58.2,112.8-76.1
	c43.8-18.5,90.3-27.9,138.2-27.9c47.9,0,94.4,9.4,138.2,27.9c42.3,17.9,80.2,43.5,112.8,76.1c32.6,32.6,58.2,70.6,76.1,112.8
	c18.5,43.8,27.9,90.3,27.9,138.2c0,47.9-9.4,94.4-27.9,138.2c-17.9,42.3-43.5,80.2-76.1,112.8s-70.6,58.2-112.8,76.1
	C6983.1,3022.4,6936.7,3031.8,6888.7,3031.8z M6888.7,2327.8c-93.2,0-180.9,36.3-246.8,102.2c-65.9,65.9-102.2,153.6-102.2,246.8
	c0,93.2,36.3,180.9,102.2,246.8c65.9,65.9,153.6,102.2,246.8,102.2c93.2,0,180.9-36.3,246.8-102.2
	c65.9-65.9,102.2-153.6,102.2-246.8c0-93.2-36.3-180.9-102.2-246.8C7069.6,2364.1,6982,2327.8,6888.7,2327.8z"/>
<g>
	<path class="st1" d="M6888.7,2752.6c33.1,0,59.9-26.1,59.9-58.2v-152.6c0-32.1-26.8-58.2-59.9-58.2s-59.9,26.1-59.9,58.2v152.6
		C6828.8,2726.5,6855.6,2752.6,6888.7,2752.6"/>
	<path class="st1" d="M7007.6,2685.8v-41.4c0-7.8-6.4-14.1-14.1-14.1c-7.8,0-15.1,6.3-15.1,14.1v41.4c0,59.6-32.7,98-89.3,98.1
		c-56.5,0-90.2-38.5-90.2-98.1v-41.4c0-7.8-7.3-14.1-15.1-14.1c-7.8,0-14.1,6.3-14.1,14.1v41.4c0,64,33.3,109.8,88.2,122.4v33h-43.9
		c-7.9,0-14.4,6.4-14.4,14.4c0,7.9,6.4,14.4,14.4,14.4h149.1c7.9,0,14.4-6.4,14.4-14.4c0-7.9-6.4-14.4-14.4-14.4h-43.8v-33
		C6974.3,2795.7,7007.6,2749.9,7007.6,2685.8z"/>
</g>
</svg>
