<?xml version="1.0" encoding="utf-8"?>
<!-- Generator: Adobe Illustrator 19.0.0, SVG Export Plug-In . SVG Version: 6.00 Build 0)  -->
<svg version="1.1" id="图层_1" xmlns="http://www.w3.org/2000/svg" xmlns:xlink="http://www.w3.org/1999/xlink" x="0px" y="0px"
	 viewBox="5673.6 2358 710 710" style="enable-background:new 5673.6 2358 710 710;" xml:space="preserve">
<style type="text/css">
	.st0{fill:#00CB98;}
	.st1{fill:#FFFFFF;}
	.st2{clip-path:url(#SVGID_2_);fill:#00CB98;}
</style>
<path class="st0" d="M6028.6,3068c-47.9,0-94.4-9.4-138.2-27.9c-42.3-17.9-80.2-43.5-112.8-76.1c-32.6-32.6-58.2-70.6-76.1-112.8
	c-18.5-43.8-27.9-90.3-27.9-138.2c0-47.9,9.4-94.4,27.9-138.2c17.9-42.3,43.5-80.2,76.1-112.8c32.6-32.6,70.6-58.2,112.8-76.1
	c43.8-18.5,90.3-27.9,138.2-27.9s94.4,9.4,138.2,27.9c42.3,17.9,80.2,43.5,112.8,76.1c32.6,32.6,58.2,70.6,76.1,112.8
	c18.5,43.8,27.9,90.3,27.9,138.2c0,47.9-9.4,94.4-27.9,138.2c-17.9,42.3-43.5,80.2-76.1,112.8c-32.6,32.6-70.6,58.2-112.8,76.1
	C6123,3058.7,6076.5,3068,6028.6,3068z M6028.6,2364c-93.2,0-180.9,36.3-246.8,102.2s-102.2,153.6-102.2,246.8
	c0,93.2,36.3,180.9,102.2,246.8s153.6,102.2,246.8,102.2s180.9-36.3,246.8-102.2s102.2-153.6,102.2-246.8
	c0-93.2-36.3-180.9-102.2-246.8C6209.4,2400.3,6121.8,2364,6028.6,2364z"/>
<g>
	<path class="st1" d="M5863.6,2641.5h330c9.1,0,16.5,7.4,16.5,16.5v242c0,9.1-7.4,16.5-16.5,16.5h-330c-9.1,0-16.5-7.4-16.5-16.5
		v-242C5847.1,2648.9,5854.5,2641.5,5863.6,2641.5z"/>
	<path class="st0" d="M6193.6,2919.5h-330c-10.8,0-19.5-8.7-19.5-19.5v-242c0-10.8,8.7-19.5,19.5-19.5h330
		c10.8,0,19.5,8.7,19.5,19.5v242C6213.1,2910.8,6204.3,2919.5,6193.6,2919.5z M5863.6,2644.5c-7.4,0-13.5,6.1-13.5,13.5v242
		c0,7.4,6.1,13.5,13.5,13.5h330c7.4,0,13.5-6.1,13.5-13.5v-242c0-7.4-6.1-13.5-13.5-13.5H5863.6z"/>
</g>
<g>
	<path class="st1" d="M5863.6,2636h330c9.1,0,16.5,7.4,16.5,16.5v22c0,9.1-7.4,16.5-16.5,16.5h-330c-9.1,0-16.5-7.4-16.5-16.5v-22
		C5847.1,2643.4,5854.5,2636,5863.6,2636z"/>
	<path class="st0" d="M6193.6,2694h-330c-10.8,0-19.5-8.7-19.5-19.5v-22c0-10.8,8.7-19.5,19.5-19.5h330c10.8,0,19.5,8.7,19.5,19.5
		v22C6213.1,2685.3,6204.3,2694,6193.6,2694z M5863.6,2639c-7.4,0-13.5,6.1-13.5,13.5v22c0,7.4,6.1,13.5,13.5,13.5h330
		c7.4,0,13.5-6.1,13.5-13.5v-22c0-7.4-6.1-13.5-13.5-13.5H5863.6z"/>
</g>
<path class="st0" d="M5913.5,2647c-16.7,0-33.5,7.4-33.5,16.5s16.8,16.5,33.5,16.5s32.5-7.4,32.5-16.5S5930.3,2647,5913.5,2647z
	 M6144.5,2647c-16.7,0-33.5,7.4-33.5,16.5s16.8,16.5,33.5,16.5c16.7,0,32.5-7.4,32.5-16.5S6161.3,2647,6144.5,2647z"/>
<g>
	<path class="st1" d="M6028.6,2482c-75.9,0-137.5,61.9-137.5,138.2v43.1h1.3c3.2,3.3,12.1,5.7,20.7,5.7s17.5-2.4,20.7-5.7h1.3v-37.6
		c0-58.1,38.8-99.7,93.5-99.7c54.7,0,93.5,41.6,93.5,99.7v37.6h1.3c3.2,3.3,12,5.7,20.5,5.7c8.5,0,17.5-2.4,20.8-5.7h1.4v-43.1
		C6166.1,2543.9,6104.5,2482,6028.6,2482z"/>
	<path class="st0" d="M6143.9,2672c-7.3,0-16.8-1.8-21.6-5.7h-3.2v-40.6c0-27.4-9-52.1-25.4-69.6c-16.4-17.5-39.5-27.1-65.1-27.1
		c-25.6,0-48.7,9.6-65.1,27.1c-16.4,17.5-25.4,42.2-25.4,69.6v40.6h-3.2c-4.9,3.9-14.5,5.7-21.8,5.7c-7.4,0-17-1.8-21.8-5.7h-3.2
		v-46.1c0-77.9,63-141.2,140.5-141.2s140.5,63.3,140.5,141.2v46.1h-3.2C6160.9,2670.3,6151.3,2672,6143.9,2672z M6125.1,2660.8
		l0.5,0.5c2.2,2.3,9.9,4.8,18.3,4.8c8.6,0,16.4-2.5,18.7-4.8l0.5-0.5v-40.5c0-74.5-60.3-135.2-134.5-135.2s-134.5,60.6-134.5,135.2
		v40.5l0.5,0.5c2.2,2.3,10,4.8,18.5,4.8s16.3-2.5,18.5-4.8l0.5-0.5v-35c0-28.9,9.6-55,27.1-73.7c17.5-18.7,42.2-29,69.4-29
		c27.3,0,51.9,10.3,69.4,29c17.5,18.6,27.1,44.8,27.1,73.7V2660.8z"/>
</g>
<path class="st0" d="M6050.6,2785.2c0-12.5-9.9-22.6-22-22.6c-12.2,0-22,10.1-22,22.6c0,8.2,4.3,15.3,10.6,19.3l-6.2,35.1h35.2
	l-6.2-35.1C6046.3,2800.5,6050.6,2793.4,6050.6,2785.2z"/>
<g>
	<defs>
		<path id="SVGID_1_" d="M6143.9,2672c-7.3,0-16.8-1.8-21.6-5.7h-3.2v-40.6c0-27.4-9-52.1-25.4-69.6c-16.4-17.5-39.5-27.1-65.1-27.1
			c-25.6,0-48.7,9.6-65.1,27.1c-16.4,17.5-25.4,42.2-25.4,69.6v40.6h-3.2c-4.9,3.9-14.5,5.7-21.8,5.7c-7.4,0-17-1.8-21.8-5.7h-3.2
			v-46.1c0-77.9,63-141.2,140.5-141.2s140.5,63.3,140.5,141.2v46.1h-3.2C6160.9,2670.3,6151.3,2672,6143.9,2672z M6125.1,2660.8
			l0.5,0.5c2.2,2.3,9.9,4.8,18.3,4.8c8.6,0,16.4-2.5,18.7-4.8l0.5-0.5v-40.5c0-74.5-60.3-135.2-134.5-135.2s-134.5,60.6-134.5,135.2
			v40.5l0.5,0.5c2.2,2.3,10,4.8,18.5,4.8s16.3-2.5,18.5-4.8l0.5-0.5v-35c0-28.9,9.6-55,27.1-73.7c17.5-18.7,42.2-29,69.4-29
			c27.3,0,51.9,10.3,69.4,29c17.5,18.6,27.1,44.8,27.1,73.7V2660.8z"/>
	</defs>
	<use xlink:href="#SVGID_1_"  style="overflow:visible;fill:#00CB98;"/>
	<clipPath id="SVGID_2_">
		<use xlink:href="#SVGID_1_"  style="overflow:visible;"/>
	</clipPath>
	<path class="st2" d="M6028.6,2831.5c-65.3,0-118.5-55.9-118.5-124.7v-81.1c0-68.8,53.2-124.7,118.5-124.7s118.5,55.9,118.5,124.7
		v81.1C6147.1,2775.6,6093.9,2831.5,6028.6,2831.5z M6028.6,2507c-62,0-112.5,53.2-112.5,118.7v81.1c0,65.4,50.5,118.7,112.5,118.7
		s112.5-53.2,112.5-118.7v-81.1C6141.1,2560.3,6090.6,2507,6028.6,2507z"/>
</g>
</svg>
