<?xml version="1.0" encoding="utf-8"?>
<!-- Generator: Adobe Illustrator 19.0.0, SVG Export Plug-In . SVG Version: 6.00 Build 0)  -->
<svg version="1.1" id="图层_1" xmlns="http://www.w3.org/2000/svg" xmlns:xlink="http://www.w3.org/1999/xlink" x="0px" y="0px"
	 viewBox="5427.8 -2720 704 704" style="enable-background:new 5427.8 -2720 704 704;" xml:space="preserve">
<style type="text/css">
	.st0{fill:#FFFFFF;}
	.st1{fill:#00CB98;}
</style>
<path class="st0" d="M5779.8-2720c194.4,0,352,157.6,352,352c0,194.4-157.6,352-352,352c-194.4,0-352-157.6-352-352
	C5427.8-2562.5,5585.4-2720,5779.8-2720z"/>
<g>
	<rect x="5777.6" y="-2557" class="st1" width="6" height="383.2"/>
	
		<rect x="5560.8" y="-2271.2" transform="matrix(0.7071 0.7071 -0.7071 0.7071 62.6681 -4687.6978)" class="st1" width="258.3" height="6"/>
	
		<rect x="5868.4" y="-2397.3" transform="matrix(0.7071 0.7071 -0.7071 0.7071 115.8406 -4816.0664)" class="st1" width="6" height="258.3"/>
	<polygon class="st1" points="5838.2,-2500.1 5780.3,-2558 5722.4,-2500.1 5718.2,-2504.3 5780.3,-2566.5 5842.4,-2504.3 	"/>
	<polygon class="st1" points="5960.6,-2276.7 5960.6,-2358.5 5878.7,-2358.5 5878.7,-2364.5 5966.6,-2364.5 5966.6,-2276.7 	"/>
	<polygon class="st1" points="5599,-2276.7 5593,-2276.7 5593,-2364.5 5680.9,-2364.5 5680.9,-2358.5 5599,-2358.5 	"/>
</g>
</svg>
