<?xml version="1.0" encoding="utf-8"?>
<!-- Generator: Adobe Illustrator 19.0.0, SVG Export Plug-In . SVG Version: 6.00 Build 0)  -->
<svg version="1.1" id="图层_1" xmlns="http://www.w3.org/2000/svg" xmlns:xlink="http://www.w3.org/1999/xlink" x="0px" y="0px"
	 viewBox="6144.7 1424.8 710 710" style="enable-background:new 6144.7 1424.8 710 710;" xml:space="preserve">
<style type="text/css">
	.st0{fill:#00CB98;}
	.st1{fill:#65717D;}
	.st2{fill:#FFFFFF;}
</style>
<path class="st0" d="M6499.7,1811.2l-100.1-68.6v-156.9c0-16.9,13.8-30.7,30.7-30.7H6569c16.9,0,30.7,13.8,30.7,30.7v156.9
	L6499.7,1811.2z M6405.6,1739.4l94.1,64.5l94.1-64.5v-153.7c0-13.6-11.1-24.7-24.7-24.7h-138.7c-13.6,0-24.7,11.1-24.7,24.7V1739.4z
	"/>
<g>
	<polygon class="st1" points="6569,1760 6569,1557.9 6541.3,1557.9 6541.3,1779 	"/>
	<polygon class="st1" points="6458.1,1779 6458.1,1557.9 6430.4,1557.9 6430.4,1760 	"/>
	<polygon class="st1" points="6499.7,1807.6 6513.6,1798.1 6513.6,1557.9 6485.8,1557.9 6485.8,1798.1 	"/>
</g>
<g>
	<g>
		<polygon class="st2" points="6569,1760 6569,1557.9 6541.3,1557.9 6541.3,1779 		"/>
		<path class="st0" d="M6538.3,1784.7v-229.8h33.7v206.7L6538.3,1784.7z M6544.3,1560.9v212.4l21.7-14.9v-197.5H6544.3z"/>
	</g>
	<g>
		<polygon class="st2" points="6458.1,1779 6458.1,1557.9 6430.4,1557.9 6430.4,1760 		"/>
		<path class="st0" d="M6461.1,1784.7l-33.7-23.1v-206.7h33.7V1784.7z M6433.4,1758.4l21.7,14.9v-212.4h-21.7V1758.4z"/>
	</g>
	<g>
		<polygon class="st2" points="6499.7,1807.6 6513.6,1798.1 6513.6,1557.9 6485.8,1557.9 6485.8,1798.1 		"/>
		<path class="st0" d="M6499.7,1811.2l-16.9-11.6v-244.7h33.7v244.7L6499.7,1811.2z M6488.8,1796.5l10.9,7.5l10.9-7.5v-235.5h-21.7
			V1796.5z"/>
	</g>
</g>
<g>
	<path class="st2" d="M6640.1,1824.3c-2.4-7.3-8.7-12.6-16.3-13.8l-73.6-11.3l-32-68.6c-3.4-7.2-10.6-11.8-18.5-11.8
		c-7.9,0-15.1,4.6-18.5,11.8l-32,68.6l-73.6,11.3c-7.6,1.2-13.8,6.5-16.3,13.8c-2.4,7.3-0.6,15.4,4.7,20.9l53.9,55.6l-12.5,77.1
		c-1.3,7.8,2,15.6,8.4,20.1c3.5,2.5,7.7,3.8,11.8,3.8c3.4,0,6.8-0.8,9.9-2.6l64.2-35.7l64.2,35.7c3.1,1.7,6.5,2.6,9.9,2.6
		c4.1,0,8.2-1.3,11.8-3.8c6.4-4.5,9.6-12.4,8.4-20.1l-12.5-77.1l53.9-55.6C6640.7,1839.6,6642.5,1831.6,6640.1,1824.3z"/>
	<path class="st0" d="M6573.8,2004.7c-3.9,0-7.9-1-11.3-2.9l-62.7-34.9l-62.7,34.9c-3.5,1.9-7.4,2.9-11.3,2.9
		c-4.8,0-9.5-1.5-13.5-4.3c-7.3-5.2-11.1-14.2-9.6-23l12.3-75.6l-52.9-54.5c-6.2-6.3-8.2-15.5-5.4-23.9c2.8-8.4,10-14.5,18.7-15.8
		l72-11.1l31.3-67.1c3.8-8.2,12.2-13.5,21.2-13.5c9.1,0,17.4,5.3,21.2,13.5l31.3,67.1l72,11.1c8.7,1.3,15.9,7.4,18.7,15.8l0,0
		c2.8,8.4,0.7,17.6-5.4,23.9l-52.9,54.5l12.3,75.6c1.4,8.8-2.3,17.9-9.6,23C6583.3,2003.2,6578.6,2004.7,6573.8,2004.7z
		 M6499.7,1960l65.6,36.5c2.6,1.4,5.5,2.2,8.4,2.2c3.6,0,7.1-1.1,10-3.2c5.4-3.8,8.2-10.6,7.2-17.2l-12.8-78.6l55-56.7
		c4.6-4.7,6.1-11.6,4.1-17.8c-2.1-6.3-7.4-10.8-13.9-11.8l-75.2-11.6l-32.7-70c-2.8-6.1-9-10.1-15.8-10.1c-6.7,0-12.9,4-15.8,10.1
		l-32.7,70l-75.2,11.5c-6.5,1-11.8,5.5-13.9,11.8c-2.1,6.3-0.5,13.1,4,17.8l55,56.7l-12.7,78.6c-1.1,6.6,1.7,13.3,7.2,17.2
		c3,2.1,6.4,3.2,10,3.2c2.9,0,5.9-0.8,8.4-2.2L6499.7,1960z"/>
</g>
<g>
	<path class="st0" d="M6502.5,1932.6c-32.2,0-58.5-26.2-58.5-58.5s26.2-58.5,58.5-58.5c32.2,0,58.5,26.2,58.5,58.5
		S6534.7,1932.6,6502.5,1932.6z M6502.5,1821.7c-28.9,0-52.5,23.5-52.5,52.5s23.5,52.5,52.5,52.5c28.9,0,52.5-23.5,52.5-52.5
		S6531.4,1821.7,6502.5,1821.7z M6502.5,1921.5c-26.1,0-47.4-21.3-47.4-47.4s21.3-47.4,47.4-47.4c26.1,0,47.4,21.3,47.4,47.4
		S6528.6,1921.5,6502.5,1921.5z M6502.5,1832.7c-22.8,0-41.4,18.6-41.4,41.4s18.6,41.4,41.4,41.4c22.8,0,41.4-18.6,41.4-41.4
		S6525.3,1832.7,6502.5,1832.7z"/>
	<path class="st0" d="M6502.5,1899.3c-4.7,0-8.5-3.8-8.5-8.5v-33.3c0-4.7,3.8-8.5,8.5-8.5s8.5,3.8,8.5,8.5v33.3
		C6511,1895.5,6507.2,1899.3,6502.5,1899.3z M6502.5,1854.9c-1.4,0-2.5,1.1-2.5,2.5v33.3c0,1.4,1.1,2.5,2.5,2.5s2.5-1.1,2.5-2.5
		v-33.3C6505,1856.1,6503.9,1854.9,6502.5,1854.9z"/>
</g>
<path class="st0" d="M6499.7,2134.8c-47.9,0-94.4-9.4-138.2-27.9c-42.3-17.9-80.2-43.5-112.8-76.1c-32.6-32.6-58.2-70.6-76.1-112.8
	c-18.5-43.8-27.9-90.3-27.9-138.2c0-47.9,9.4-94.4,27.9-138.2c17.9-42.3,43.5-80.2,76.1-112.8c32.6-32.6,70.6-58.2,112.8-76.1
	c43.8-18.5,90.3-27.9,138.2-27.9c47.9,0,94.4,9.4,138.2,27.9c42.3,17.9,80.2,43.5,112.8,76.1c32.6,32.6,58.2,70.6,76.1,112.8
	c18.5,43.8,27.9,90.3,27.9,138.2c0,47.9-9.4,94.4-27.9,138.2c-17.9,42.3-43.5,80.2-76.1,112.8c-32.6,32.6-70.6,58.2-112.8,76.1
	C6594.1,2125.4,6547.6,2134.8,6499.7,2134.8z M6499.7,1430.8c-93.2,0-180.9,36.3-246.8,102.2c-65.9,65.9-102.2,153.6-102.2,246.8
	c0,93.2,36.3,180.9,102.2,246.8c65.9,65.9,153.6,102.2,246.8,102.2c93.2,0,180.9-36.3,246.8-102.2
	c65.9-65.9,102.2-153.6,102.2-246.8c0-93.2-36.3-180.9-102.2-246.8C6680.6,1467.1,6592.9,1430.8,6499.7,1430.8z"/>
</svg>
