<?xml version="1.0" encoding="utf-8"?>
<!-- Generator: Adobe Illustrator 19.0.0, SVG Export Plug-In . SVG Version: 6.00 Build 0)  -->
<svg version="1.1" id="图层_1" xmlns="http://www.w3.org/2000/svg" xmlns:xlink="http://www.w3.org/1999/xlink" x="0px" y="0px"
	 viewBox="5374.5 1424.2 710 710" style="enable-background:new 5374.5 1424.2 710 710;" xml:space="preserve">
<style type="text/css">
	.st0{fill:#00CB98;}
</style>
<g>
	<path class="st0" d="M5729.5,2134.2c-47.9,0-94.4-9.4-138.2-27.9c-42.3-17.9-80.2-43.5-112.8-76.1c-32.6-32.6-58.2-70.6-76.1-112.8
		c-18.5-43.8-27.9-90.3-27.9-138.2c0-47.9,9.4-94.4,27.9-138.2c17.9-42.3,43.5-80.2,76.1-112.8c32.6-32.6,70.6-58.2,112.8-76.1
		c43.8-18.5,90.3-27.9,138.2-27.9c47.9,0,94.4,9.4,138.2,27.9c42.3,17.9,80.2,43.5,112.8,76.1c32.6,32.6,58.2,70.6,76.1,112.8
		c18.5,43.8,27.9,90.3,27.9,138.2c0,47.9-9.4,94.4-27.9,138.2c-17.9,42.3-43.5,80.2-76.1,112.8c-32.6,32.6-70.6,58.2-112.8,76.1
		C5823.9,2124.8,5777.4,2134.2,5729.5,2134.2z M5729.5,1430.2c-93.2,0-180.9,36.3-246.8,102.2c-65.9,65.9-102.2,153.6-102.2,246.8
		c0,93.2,36.3,180.9,102.2,246.8s153.6,102.2,246.8,102.2c93.2,0,180.9-36.3,246.8-102.2c65.9-65.9,102.2-153.6,102.2-246.8
		c0-93.2-36.3-180.9-102.2-246.8C5910.4,1466.5,5822.7,1430.2,5729.5,1430.2z"/>
	<g>
		<rect x="5727.3" y="1590.2" class="st0" width="6" height="383.2"/>
		
			<rect x="5510.5" y="1876" transform="matrix(0.7071 0.7071 -0.7071 0.7071 2980.4553 -3437.4634)" class="st0" width="258.3" height="6"/>
		
			<rect x="5818.1" y="1749.9" transform="matrix(0.7071 0.7071 -0.7071 0.7071 3033.6401 -3565.8086)" class="st0" width="6" height="258.3"/>
		<polygon class="st0" points="5787.9,1647.1 5730,1589.2 5672.1,1647.1 5667.9,1642.9 5730,1580.7 5792.1,1642.9 		"/>
		<polygon class="st0" points="5910.3,1870.6 5910.3,1788.7 5828.4,1788.7 5828.4,1782.7 5916.3,1782.7 5916.3,1870.6 		"/>
		<polygon class="st0" points="5548.7,1870.6 5542.7,1870.6 5542.7,1782.7 5630.6,1782.7 5630.6,1788.7 5548.7,1788.7 		"/>
	</g>
</g>
</svg>
