<?xml version="1.0" encoding="utf-8"?>
<!-- Generator: Adobe Illustrator 19.0.0, SVG Export Plug-In . SVG Version: 6.00 Build 0)  -->
<svg version="1.1" id="图层_1" xmlns="http://www.w3.org/2000/svg" xmlns:xlink="http://www.w3.org/1999/xlink" x="0px" y="0px"
	 viewBox="4500.1 1424.2 710 710" style="enable-background:new 4500.1 1424.2 710 710;" xml:space="preserve">
<style type="text/css">
	.st0{fill:#00CB98;}
</style>
<g>
	<path class="st0" d="M4855.1,2134.2c-47.9,0-94.4-9.4-138.2-27.9c-42.3-17.9-80.2-43.5-112.8-76.1c-32.6-32.6-58.2-70.6-76.1-112.8
		c-18.5-43.8-27.9-90.3-27.9-138.2c0-47.9,9.4-94.4,27.9-138.2c17.9-42.3,43.5-80.2,76.1-112.8c32.6-32.6,70.6-58.2,112.8-76.1
		c43.8-18.5,90.3-27.9,138.2-27.9c47.9,0,94.4,9.4,138.2,27.9c42.3,17.9,80.2,43.5,112.8,76.1c32.6,32.6,58.2,70.6,76.1,112.8
		c18.5,43.8,27.9,90.3,27.9,138.2c0,47.9-9.4,94.4-27.9,138.2c-17.9,42.3-43.5,80.2-76.1,112.8c-32.6,32.6-70.6,58.2-112.8,76.1
		C4949.5,2124.8,4903,2134.2,4855.1,2134.2z M4855.1,1430.2c-93.2,0-180.9,36.3-246.8,102.2c-65.9,65.9-102.2,153.6-102.2,246.8
		c0,93.2,36.3,180.9,102.2,246.8s153.6,102.2,246.8,102.2c93.2,0,180.9-36.3,246.8-102.2c65.9-65.9,102.2-153.6,102.2-246.8
		c0-93.2-36.3-180.9-102.2-246.8C5036,1466.5,4948.3,1430.2,4855.1,1430.2z"/>
	<path class="st0" d="M4855.1,1969.9c-105.2,0-190.8-85.6-190.8-190.8c0-51,19.8-98.9,55.9-134.9c36-36,83.9-55.9,134.9-55.9
		c0,0,0,0,0,0l0,0l0,0c51,0,98.9,19.8,134.9,55.9c36,36,55.9,83.9,55.9,134.9C5045.9,1884.4,4960.3,1969.9,4855.1,1969.9z
		 M4855.1,1594.4c-49.3,0-95.7,19.2-130.6,54.1s-54.1,81.3-54.1,130.6c0,101.9,82.9,184.8,184.8,184.8s184.8-82.9,184.8-184.8
		c0-49.3-19.2-95.7-54.1-130.6C4950.9,1613.6,4904.5,1594.4,4855.1,1594.4L4855.1,1594.4z M4855.1,1934.7
		c-85.8,0-155.6-69.8-155.6-155.6s69.8-155.6,155.6-155.6c85.8,0,155.6,69.8,155.6,155.6S4940.9,1934.7,4855.1,1934.7z
		 M4855.1,1629.6c-82.5,0-149.6,67.1-149.6,149.6s67.1,149.6,149.6,149.6c82.5,0,149.6-67.1,149.6-149.6
		S4937.6,1629.6,4855.1,1629.6z M4878.6,1864.3h-46.9c-3.9,0-7.6-1.5-10.4-4.3c-2.8-2.8-4.3-6.5-4.3-10.4v-55.8h-29.7
		c-7.5,0-13.1-2.6-15.8-7.4c-2.5-4.5-2-10.2,1.6-16l0.2-0.3l0.3-0.3l67.6-67c3.6-5.7,8.6-8.9,13.9-8.9c0,0,0,0,0,0
		c5.4,0,10.3,3.2,13.9,8.9l67.8,67.2l0.2,0.3c3.6,5.8,4.2,11.5,1.6,16c-2.7,4.8-8.3,7.4-15.8,7.4h-29.6v55.8
		C4893.3,1857.7,4886.7,1864.3,4878.6,1864.3z M4778.1,1773.8c-2.2,3.8-2.7,7.2-1.3,9.7c1.5,2.7,5.4,4.3,10.5,4.3h35.7v61.8
		c0,2.3,0.9,4.5,2.6,6.2s3.8,2.6,6.2,2.6h46.9c4.8,0,8.7-3.9,8.7-8.8v-61.8h35.6c5.2,0,9-1.6,10.5-4.3c1.4-2.5,0.9-5.9-1.3-9.6
		l-67.8-67.2l-0.2-0.3c-2.5-4.1-5.7-6.4-9-6.4c0,0,0,0,0,0c-3.3,0-6.5,2.3-9,6.4l-0.2,0.3l-0.3,0.3L4778.1,1773.8z"/>
</g>
</svg>
