<?xml version="1.0" encoding="utf-8"?>
<!-- Generator: Adobe Illustrator 19.0.0, SVG Export Plug-In . SVG Version: 6.00 Build 0)  -->
<svg version="1.1" id="图层_1" xmlns="http://www.w3.org/2000/svg" xmlns:xlink="http://www.w3.org/1999/xlink" x="0px" y="0px"
	 viewBox="3461.9 -1525.6 710 710" style="enable-background:new 3461.9 -1525.6 710 710;" xml:space="preserve">
<style type="text/css">
	.st0{fill:#00CB98;}
</style>
<g>
	<path class="st0" d="M3816.9-815.6c-47.9,0-94.4-9.4-138.2-27.9c-42.3-17.9-80.2-43.5-112.8-76.1c-32.6-32.6-58.2-70.6-76.1-112.8
		c-18.5-43.8-27.9-90.3-27.9-138.2c0-47.9,9.4-94.4,27.9-138.2c17.9-42.3,43.5-80.2,76.1-112.8c32.6-32.6,70.6-58.2,112.8-76.1
		c43.8-18.5,90.3-27.9,138.2-27.9c47.9,0,94.4,9.4,138.2,27.9c42.3,17.9,80.2,43.5,112.8,76.1c32.6,32.6,58.2,70.6,76.1,112.8
		c18.5,43.8,27.9,90.3,27.9,138.2c0,47.9-9.4,94.4-27.9,138.2c-17.9,42.3-43.5,80.2-76.1,112.8c-32.6,32.6-70.6,58.2-112.8,76.1
		C3911.3-824.9,3864.8-815.6,3816.9-815.6z M3816.9-1519.6c-93.2,0-180.9,36.3-246.8,102.2c-65.9,65.9-102.2,153.6-102.2,246.8
		c0,93.2,36.3,180.9,102.2,246.8c65.9,65.9,153.6,102.2,246.8,102.2c93.2,0,180.9-36.3,246.8-102.2
		c65.9-65.9,102.2-153.6,102.2-246.8c0-93.2-36.3-180.9-102.2-246.8C3997.7-1483.3,3910.1-1519.6,3816.9-1519.6z"/>
	<path class="st0" d="M3816.1-979.2c-25.8,0-52-4.1-77.3-12.7c-8.8-3-17.2-6.3-27-10.1c-4.1-1.6-8.4-3.3-12.9-5
		c-22.1,7.1-43.4,14-70.1,22.7l-10,3.2l2.3-10.3c1.1-4.9,2.1-9.3,3-13.3c1.8-8.3,3.3-14.9,5.1-21.6c2-7.4,4.2-14.6,6.5-22.3
		c0.8-2.5,1.6-5.1,2.4-7.7c-1.5-2.6-3-5.2-4.5-7.7c-4.2-7.1-8.5-14.5-12.5-21.8c-17.9-32.8-25.8-68.2-22.7-102.3
		c3.1-34.1,17.2-67.4,40.8-96.3c20.8-25.5,47.3-45.5,78.7-59.3c29.5-13,62.6-19.9,95.9-20.1c33.3-0.2,66.6,6.4,96.3,19
		c31.7,13.5,58.5,33.2,79.6,58.5c28.6,34.3,43.4,74.8,42.8,117.1c-0.6,42.4-16.6,82.5-46.2,116.1
		C3944-1005.4,3881.1-979.2,3816.1-979.2z M3699.2-1019.7l2,0.8c5.3,2,10.2,4,15,5.8c9.6,3.8,17.9,7,26.5,9.9
		c41.4,14,85.7,15.8,128.2,5.3c42.4-10.5,79.2-32.3,106.4-63.2c27.7-31.4,42.6-68.8,43.2-108.3c0.6-39.5-13.3-77.3-40-109.3
		c-38.9-46.6-99-73.2-165.1-73.2c-0.5,0-1,0-1.5,0c-66.6,0.4-126.8,27.8-165.4,75c-45,55.2-51.1,122.7-16.9,185.3
		c4,7.2,8.2,14.5,12.4,21.5c2,3.3,3.9,6.7,5.9,10l1.3,2.2l-0.7,2.5c-1.1,3.5-2.1,6.9-3.1,10.3c-2.3,7.5-4.5,14.7-6.4,21.8
		c-1.7,6.4-3.1,12.9-4.9,21.1c-0.2,1-0.4,2-0.7,3.1c22.9-7.4,42.1-13.6,62.1-20.1L3699.2-1019.7z"/>
</g>
</svg>
