<?xml version="1.0" encoding="utf-8"?>
<!-- Generator: Adobe Illustrator 19.0.0, SVG Export Plug-In . SVG Version: 6.00 Build 0)  -->
<svg version="1.1" id="图层_1" xmlns="http://www.w3.org/2000/svg" xmlns:xlink="http://www.w3.org/1999/xlink" x="0px" y="0px"
	 viewBox="4581.3 -2720 704 704" style="enable-background:new 4581.3 -2720 704 704;" xml:space="preserve">
<style type="text/css">
	.st0{fill:#FFFFFF;}
	.st1{fill-rule:evenodd;clip-rule:evenodd;fill:#00CB98;}
</style>
<path class="st0" d="M4933.3-2720c194.4,0,352,157.6,352,352c0,194.4-157.6,352-352,352c-194.4,0-352-157.6-352-352
	C4581.3-2562.5,4738.9-2720,4933.3-2720z"/>
<path class="st1" d="M5105.2-2305.5c-9.4-12.4-15.8-37.4-15.8-66.2c0-30.4,7.1-56.5,17.3-68.1c14.3-12.7,23.3-31.1,23.3-51.8
	c0-38.3-31-69.3-69.3-69.3c-19.6,0-37.2,8.1-49.8,21.2c-10.5,11.2-37.8,19.2-70,19.2c-32.7,0-60.4-8.2-70.5-19.7h-0.2
	c-12.6-12.8-30-20.7-49.4-20.7c-38.3,0-69.3,31-69.3,69.3c0,21.4,9.7,40.6,25,53.3c9.5,12.3,16,37.5,16,66.6
	c0,28.3-6.2,52.8-15.2,65.5c-15.7,12.7-25.8,32.1-25.8,53.9c0,38.3,31,69.3,69.3,69.3c18.9,0,36-7.6,48.6-19.9h0.3
	c9.5-11.9,37.8-20.5,71.2-20.5c31.2,0,58,7.5,69.1,18.2c0.7,0.7,1.3,1.5,2,2.2c0,0.1,0.1,0.1,0.1,0.2h0
	c12.5,12.3,29.6,19.9,48.6,19.9c38.3,0,69.3-31,69.3-69.3C5130-2273.7,5120.4-2292.8,5105.2-2305.5z M4872.5-2298.4
	c-1.8-2-3.6-3.8-5.6-5.6c-10-11.8-17.1-37.7-17.1-67.8c0-32.7,8.2-60.4,19.7-70.5v-0.1c1-1,2-2.1,3-3.2
	c11.5-10.3,37.8-17.5,68.4-17.5c29.5,0,55,6.7,67.1,16.4c2,2.4,4.2,4.6,6.5,6.6c10.3,11.6,17.5,37.8,17.5,68.3
	c0,28.9-6.4,54-15.8,66.3c-2.8,2.4-5.5,5-7.9,7.8c-12,9.9-37.6,16.8-67.4,16.8C4910.3-2280.8,4884-2288,4872.5-2298.4z"/>
</svg>
