<?xml version="1.0" encoding="utf-8"?>
<!-- Generator: Adobe Illustrator 19.0.0, SVG Export Plug-In . SVG Version: 6.00 Build 0)  -->
<svg version="1.1" id="图层_1" xmlns="http://www.w3.org/2000/svg" xmlns:xlink="http://www.w3.org/1999/xlink" x="0px" y="0px"
	 viewBox="-682.5 4998.2 704 704" style="enable-background:new -682.5 4998.2 704 704;" xml:space="preserve">
<style type="text/css">
	.st0{fill:#FFFFFF;}
	.st1{fill-rule:evenodd;clip-rule:evenodd;fill:#F85A56;}
</style>
<path class="st0" d="M-330.5,4998.2c194.4,0,352,157.6,352,352c0,194.4-157.6,352-352,352c-194.4,0-352-157.6-352-352
	C-682.5,5155.8-524.9,4998.2-330.5,4998.2z"/>
<g>
	<path class="st1" d="M-448.3,5507.3c-22.8,7.4-44.6,14.4-72.1,23.3c3.4-14.9,5.4-24.9,8-34.7c2.8-10.5,6.2-20.9,9.6-32.3
		c-6.1-10.6-12.4-21-18.3-31.7c-35.4-64.7-29-134.9,17.5-191.9c83.3-102.2,256.6-103.1,341.3-1.9c56.4,67.5,55.1,159.2-3.3,225.4
		c-57.2,64.7-154.4,88.9-241,59.6C-419.6,5518.8-432.2,5513.5-448.3,5507.3z"/>
	<path class="st0" d="M-331.2,5541.5c-25.8,0-52-4.1-77.3-12.7c-8.8-3-17.3-6.3-27-10.1c-4.1-1.6-8.4-3.3-12.9-5
		c-22.1,7.1-43.4,14-70.1,22.7l-10,3.2l2.3-10.3c1.1-4.9,2.1-9.3,3-13.3c1.8-8.3,3.3-14.9,5.1-21.6c2-7.4,4.2-14.6,6.5-22.3
		c0.8-2.5,1.6-5.1,2.4-7.7c-1.5-2.6-3-5.2-4.5-7.7c-4.2-7.1-8.5-14.5-12.5-21.8c-17.9-32.8-25.8-68.2-22.7-102.3
		c3.1-34.1,17.2-67.4,40.8-96.3c20.8-25.5,47.3-45.5,78.7-59.3c29.5-13,62.6-19.9,95.9-20.1c33.3-0.2,66.6,6.4,96.3,19
		c31.7,13.5,58.5,33.2,79.6,58.5c28.6,34.3,43.4,74.8,42.8,117.1c-0.6,42.4-16.6,82.5-46.2,116.1
		C-203.3,5515.3-266.2,5541.5-331.2,5541.5z M-448.1,5501l2,0.8c5.3,2,10.2,3.9,15,5.8c9.6,3.8,18,7,26.5,9.9
		c41.4,14,85.7,15.8,128.2,5.3c42.4-10.5,79.2-32.3,106.4-63.2c27.7-31.4,42.6-68.8,43.2-108.3c0.6-39.5-13.3-77.3-40-109.3
		c-39.2-46.9-100-73.6-166.6-73.2c-66.6,0.4-126.8,27.8-165.4,75c-45,55.2-51.1,122.7-16.9,185.3c4,7.2,8.2,14.5,12.4,21.5
		c2,3.3,3.9,6.7,5.9,10l1.3,2.2l-0.7,2.5c-1.1,3.5-2.1,6.9-3.1,10.3c-2.3,7.5-4.5,14.7-6.4,21.8c-1.7,6.4-3.1,12.9-4.9,21.1
		c-0.2,1-0.4,2-0.7,3.1c22.9-7.4,42.1-13.6,62.1-20.1L-448.1,5501z"/>
</g>
</svg>
