<?xml version="1.0" encoding="utf-8"?>
<!-- Generator: Adobe Illustrator 19.0.0, SVG Export Plug-In . SVG Version: 6.00 Build 0)  -->
<svg version="1.1" id="图层_1" xmlns="http://www.w3.org/2000/svg" xmlns:xlink="http://www.w3.org/1999/xlink" x="0px" y="0px"
	 viewBox="3792.7 577.4 710 710" style="enable-background:new 3792.7 577.4 710 710;" xml:space="preserve">
<style type="text/css">
	.st0{fill:#FFFFFF;}
	.st1{fill:#00CB98;}
</style>
<g>
	<path class="st0" d="M4147.7,580.4c194.4,0,352,157.6,352,352c0,194.4-157.6,352-352,352c-194.4,0-352-157.6-352-352
		C3795.7,738,3953.3,580.4,4147.7,580.4z"/>
	<path class="st1" d="M4147.7,1287.4c-47.9,0-94.4-9.4-138.2-27.9c-42.3-17.9-80.2-43.5-112.8-76.1c-32.6-32.6-58.2-70.6-76.1-112.8
		c-18.5-43.8-27.9-90.3-27.9-138.2c0-47.9,9.4-94.4,27.9-138.2c17.9-42.3,43.5-80.2,76.1-112.8c32.6-32.6,70.6-58.2,112.8-76.1
		c43.8-18.5,90.3-27.9,138.2-27.9c47.9,0,94.4,9.4,138.2,27.9c42.3,17.9,80.2,43.5,112.8,76.1c32.6,32.6,58.2,70.6,76.1,112.8
		c18.5,43.8,27.9,90.3,27.9,138.2c0,47.9-9.4,94.4-27.9,138.2c-17.9,42.3-43.5,80.2-76.1,112.8c-32.6,32.6-70.6,58.2-112.8,76.1
		C4242.1,1278,4195.6,1287.4,4147.7,1287.4z M4147.7,583.4c-93.2,0-180.9,36.3-246.8,102.2c-65.9,65.9-102.2,153.6-102.2,246.8
		c0,93.2,36.3,180.9,102.2,246.8c65.9,65.9,153.6,102.2,246.8,102.2c93.2,0,180.9-36.3,246.8-102.2
		c65.9-65.9,102.2-153.6,102.2-246.8c0-93.2-36.3-180.9-102.2-246.8C4328.5,619.7,4240.9,583.4,4147.7,583.4z"/>
</g>
<g>
	<path class="st0" d="M4199.5,866.5l-139.9,63.5l113.3,249.9l61-51.8l78.9-11.7L4199.5,866.5z"/>
	<path class="st1" d="M4171.8,1184.7l-116.2-256.3l145.3-66l116.2,256.3l-82,12.1L4171.8,1184.7z M4063.6,931.4L4174,1175l58.6-49.8
		l75.8-11.2L4198,870.4L4063.6,931.4z"/>
</g>
<g>
	<path class="st0" d="M4095.8,868.9l140.3,63.6l-113.6,250.4l-61.1-51.9l-79.1-11.7L4095.8,868.9z"/>
	<path class="st1" d="M4123.6,1187.8l-63.5-53.9l-82.2-12.2l116.5-256.8l145.7,66.1L4123.6,1187.8z M3986.6,1116.9l76,11.3
		l58.8,49.9L4232.1,934l-134.8-61.1L3986.6,1116.9z"/>
</g>
<g>
	<path class="st0" d="M4329.2,899.3c0,13.5-19.4,24.6-22.2,37.2c-2.9,13,9.8,31.6,4.3,43.4c-5.6,12-27.8,13.3-35.8,23.6
		c-8.1,10.3-4.5,32.8-14.6,41c-10,8.2-30.6-0.3-42.3,5.4c-11.5,5.7-17.8,27.5-30.5,30.5c-12.3,2.9-27.2-14-40.4-14
		c-13.2,0-28.1,16.8-40.4,14c-12.7-3-19-24.8-30.5-30.5c-11.7-5.8-32.2,2.8-42.3-5.4c-10.1-8.3-6.5-30.7-14.5-41
		c-8-10.3-30.2-11.7-35.8-23.6c-5.5-11.8,7.2-30.4,4.3-43.4c-2.8-12.6-22.2-23.7-22.2-37.2c0-13.5,19.4-24.6,22.2-37.2
		c2.9-13-9.8-31.6-4.3-43.4c5.6-12,27.8-13.3,35.8-23.6c8.1-10.3,4.5-32.8,14.5-41c10-8.2,30.6,0.3,42.3-5.4
		c11.5-5.7,17.8-27.5,30.5-30.5c12.3-2.9,27.2,14,40.4,14c13.2,0,28.1-16.8,40.4-14c12.7,3,19,24.8,30.5,30.5
		c11.7,5.8,32.2-2.8,42.3,5.4c10.1,8.2,6.5,30.7,14.5,41c8,10.3,30.2,11.7,35.8,23.6c5.6,11.8-7.2,30.4-4.3,43.4
		C4309.8,874.7,4329.2,885.8,4329.2,899.3z"/>
	<path class="st1" d="M4110.2,1083.9c-1.2,0-2.4-0.1-3.6-0.4c-8-1.9-13.5-9.6-18.7-17.1c-3.9-5.6-7.9-11.3-12.5-13.6
		c-4.7-2.3-11.7-1.9-18.4-1.6c-8.9,0.5-18.1,1-24.4-4.2c-6.3-5.2-7.9-14.5-9.4-23.5c-1.2-6.8-2.4-13.9-5.6-18
		c-3.2-4.1-9.6-6.8-15.8-9.5c-8.3-3.5-16.8-7.2-20.4-14.7c-3.5-7.3-1-16.4,1.5-25.1c1.9-6.7,3.8-13.7,2.6-19
		c-1.1-5-5.5-10-10.1-15.3c-6-6.9-12.2-14.1-12.2-22.5s6.2-15.6,12.2-22.5c4.6-5.3,9-10.3,10.1-15.3c1.2-5.3-0.8-12.2-2.6-19
		c-2.4-8.7-4.9-17.7-1.5-25.1c3.5-7.5,12.1-11.2,20.4-14.7c6.2-2.6,12.6-5.4,15.8-9.5c3.2-4.2,4.4-11.2,5.6-18
		c1.5-9,3.1-18.3,9.4-23.5c6.3-5.2,15.5-4.7,24.4-4.2c6.8,0.4,13.7,0.7,18.4-1.6c4.6-2.3,8.6-8,12.5-13.6
		c5.2-7.5,10.6-15.3,18.7-17.1c7.7-1.8,15.7,2.7,23.5,7c6,3.4,12.2,6.9,17.6,6.9c5.3,0,11.6-3.5,17.6-6.9c7.7-4.3,15.7-8.8,23.5-7
		c8,1.9,13.5,9.6,18.7,17.1c3.9,5.6,7.9,11.3,12.5,13.6c4.7,2.3,11.7,1.9,18.4,1.6c8.9-0.5,18.1-1,24.4,4.2
		c6.3,5.2,7.9,14.5,9.4,23.5c1.2,6.8,2.4,13.9,5.6,18c3.2,4.1,9.6,6.8,15.8,9.5c8.3,3.5,16.8,7.2,20.4,14.7c3.5,7.3,1,16.3-1.4,25.1
		c-1.9,6.7-3.8,13.7-2.6,19c1.1,5,5.5,10,10.1,15.4c6,6.9,12.2,14.1,12.2,22.5c0,8.5-6.2,15.6-12.2,22.5c-4.6,5.3-9,10.3-10.1,15.3
		c-1.2,5.3,0.7,12.3,2.6,19c2.4,8.7,4.9,17.7,1.5,25.1c-3.5,7.5-12.1,11.2-20.4,14.7c-6.2,2.6-12.6,5.4-15.8,9.5
		c-3.2,4.2-4.4,11.2-5.6,18c-1.5,9-3.1,18.3-9.4,23.4c-6.3,5.2-15.5,4.7-24.4,4.2c-6.8-0.4-13.7-0.7-18.4,1.6
		c-4.6,2.3-8.6,8-12.5,13.6c-5.2,7.5-10.6,15.3-18.7,17.1c-7.7,1.8-15.7-2.7-23.5-7c-6-3.4-12.3-6.9-17.6-6.9
		c-5.4,0-11.6,3.5-17.6,6.9C4123.5,1080.1,4116.8,1083.9,4110.2,1083.9z M4064.5,1044.9c4.9,0,9.6,0.5,13.6,2.5
		c5.9,2.9,10.4,9.3,14.7,15.5c4.6,6.6,9.3,13.4,15.1,14.7c5.5,1.3,12.1-2.5,19.2-6.4c6.7-3.8,13.6-7.6,20.5-7.6
		c6.9,0,13.8,3.9,20.5,7.6c7,4,13.7,7.7,19.2,6.4c5.8-1.3,10.5-8.1,15.1-14.7c4.3-6.2,8.8-12.6,14.7-15.5c6.1-3,13.9-2.6,21.4-2.2
		c8.1,0.4,15.8,0.8,20.3-2.9c4.6-3.7,6-11.9,7.3-19.8c1.3-7.6,2.6-15.4,6.8-20.7c4.1-5.3,11.3-8.4,18.2-11.3
		c7.6-3.2,14.7-6.3,17.3-11.7c2.5-5.3,0.4-12.9-1.8-20.9c-2.1-7.4-4.2-15.1-2.7-21.9c1.4-6.5,6.5-12.3,11.4-18
		c5.3-6.1,10.7-12.4,10.7-18.6c0-6.2-5.5-12.5-10.7-18.6c-4.9-5.6-10-11.5-11.4-18c-1.5-6.8,0.6-14.5,2.7-21.9
		c2.2-8,4.3-15.6,1.8-20.9c-2.6-5.4-9.7-8.5-17.3-11.7c-6.9-2.9-14-6-18.2-11.3c-4.2-5.3-5.5-13.2-6.8-20.7
		c-1.3-7.9-2.7-16.1-7.3-19.8c-4.5-3.7-12.2-3.3-20.3-2.9c-7.5,0.4-15.3,0.8-21.4-2.2c-5.9-2.9-10.4-9.3-14.7-15.5
		c-4.6-6.6-9.3-13.4-15.1-14.7c-5.5-1.3-12.1,2.5-19.2,6.4c-6.7,3.8-13.6,7.6-20.5,7.6c-6.9,0-13.8-3.9-20.5-7.6
		c-7.1-4-13.7-7.7-19.2-6.4c-5.8,1.3-10.5,8.1-15.1,14.7c-4.3,6.2-8.8,12.6-14.7,15.5c-6.1,3-13.9,2.6-21.4,2.2
		c-8.1-0.4-15.8-0.8-20.3,2.9c-4.6,3.7-6,11.9-7.3,19.8c-1.3,7.6-2.6,15.4-6.8,20.7c-4.1,5.3-11.3,8.4-18.2,11.3
		c-7.6,3.2-14.7,6.3-17.3,11.7c-2.5,5.3-0.4,12.9,1.8,20.9c2.1,7.4,4.2,15.1,2.7,21.9c-1.4,6.5-6.5,12.3-11.4,18
		c-5.3,6.1-10.7,12.4-10.7,18.6c0,6.2,5.5,12.5,10.7,18.6c4.9,5.6,10,11.5,11.4,18c1.5,6.8-0.6,14.4-2.7,21.9
		c-2.2,8-4.3,15.6-1.8,20.9c2.6,5.4,9.7,8.5,17.3,11.7c6.9,2.9,14,6,18.2,11.3c4.2,5.3,5.5,13.2,6.8,20.7c1.3,7.9,2.7,16.1,7.3,19.8
		c4.5,3.7,12.2,3.3,20.3,2.8C4059.3,1045,4061.9,1044.9,4064.5,1044.9z"/>
</g>
<g>
	<g>
		<path class="st1" d="M4147.7,973.9c-41.1,0-74.5-33.4-74.5-74.5s33.4-74.5,74.5-74.5s74.5,33.4,74.5,74.5
			S4188.7,973.9,4147.7,973.9z M4147.7,830.9c-37.8,0-68.5,30.7-68.5,68.5s30.7,68.5,68.5,68.5s68.5-30.7,68.5-68.5
			S4185.4,830.9,4147.7,830.9z M4147.7,935.4c-19.9,0-36-16.1-36-36s16.1-36,36-36s36,16.1,36,36S4167.5,935.4,4147.7,935.4z
			 M4147.7,869.4c-16.5,0-30,13.5-30,30s13.5,30,30,30s30-13.5,30-30S4164.2,869.4,4147.7,869.4z"/>
	</g>
</g>
<g>
	<g>
		<path class="st1" d="M4147.7,1034.4c-74.4,0-135-60.6-135-135s60.6-135,135-135s135,60.6,135,135S4222.1,1034.4,4147.7,1034.4z
			 M4147.7,770.4c-71.1,0-129,57.9-129,129c0,71.1,57.9,129,129,129s129-57.9,129-129C4276.7,828.3,4218.8,770.4,4147.7,770.4z
			 M4147.7,1012.4c-62.3,0-113-50.7-113-113s50.7-113,113-113s113,50.7,113,113S4210,1012.4,4147.7,1012.4z M4147.7,792.4
			c-59,0-107,48-107,107c0,59,48,107,107,107s107-48,107-107C4254.7,840.4,4206.7,792.4,4147.7,792.4z"/>
	</g>
</g>
</svg>
